<?xml version="1.0" encoding="UTF-8"?>
<svg version="1.1" xmlns="http://www.w3.org/2000/svg" width="434" height="176">
<path d="M0 0 C143.22 0 286.44 0 434 0 C434 58.08 434 116.16 434 176 C290.78 176 147.56 176 0 176 C0 117.92 0 59.84 0 0 Z " fill="#FEFEFE" transform="translate(0,0)"/>
<path d="M0 0 C8.04406942 6.05579378 13.77564393 12.73697048 18.625 21.625 C18.625 22.285 18.625 22.945 18.625 23.625 C23.40359178 22.35622527 25.95755133 20.7317162 29.3125 17.125 C35.36060648 10.69039966 35.36060648 10.69039966 40.25 10.4375 C43.625 10.625 43.625 10.625 44.625 11.625 C45.08855627 14.93611618 45.31022654 17.49192897 43.53125 20.43359375 C41.44215657 22.92828245 39.39655288 25.09651764 36.703125 26.94140625 C33.23717683 29.34035798 31.82733702 30.62997793 30.9609375 34.890625 C30.71401726 38.14997212 30.59106236 41.35729009 30.625 44.625 C31.615 44.625 32.605 44.625 33.625 44.625 C33.30789062 45.18703125 32.99078125 45.7490625 32.6640625 46.328125 C31.55625475 48.77696317 31.23524601 50.70887855 31 53.375 C30.92523438 54.17421875 30.85046875 54.9734375 30.7734375 55.796875 C30.72445312 56.40015625 30.67546875 57.0034375 30.625 57.625 C31.615 57.625 32.605 57.625 33.625 57.625 C33.295 58.615 32.965 59.605 32.625 60.625 C32.40048542 62.85074335 32.21717122 65.08081519 32.0625 67.3125 C31.97871094 68.49199219 31.89492187 69.67148438 31.80859375 70.88671875 C31.74800781 71.79035156 31.68742188 72.69398437 31.625 73.625 C30.305 73.955 28.985 74.285 27.625 74.625 C26.305 68.025 24.985 61.425 23.625 54.625 C23.58761719 57.75742188 23.55023438 60.88984375 23.51171875 64.1171875 C23.46539818 67.17877862 23.41420288 70.24025257 23.36254883 73.30175781 C23.32946426 75.4159421 23.30138204 77.53021123 23.27856445 79.64453125 C23.24471392 82.69828159 23.19238455 85.75126594 23.13671875 88.8046875 C23.13032883 89.73739471 23.1239389 90.67010193 23.11735535 91.631073 C22.79092361 106.47620187 16.7133545 118.43921882 6.44921875 128.92578125 C2.74198448 132.46893323 -0.8677142 135.20033867 -5.375 137.625 C-6.14972656 138.10839844 -6.92445312 138.59179688 -7.72265625 139.08984375 C-14.98521237 142.95108493 -21.89632946 143.08835855 -30 143.125 C-31.06089844 143.13128418 -32.12179688 143.13756836 -33.21484375 143.14404297 C-48.42558575 142.90015965 -60.12963145 137.02703208 -71.28125 126.87109375 C-73.39899622 124.59925779 -74.88547848 122.34146714 -76.375 119.625 C-71.625 116.625 -71.625 116.625 -69.375 116.625 C-68.570625 117.635625 -67.76625 118.64625 -66.9375 119.6875 C-62.90536389 124.57163539 -57.79771657 127.47606202 -52.375 130.625 C-51.405625 131.223125 -50.43625 131.82125 -49.4375 132.4375 C-35.42045775 137.87267965 -21.90718365 136.20239553 -8.41796875 130.33984375 C4.10336169 124.05291 11.01179949 114.73270761 15.67358398 101.69165039 C17.14652519 96.4119117 16.98196607 91.01005549 17.0390625 85.56640625 C17.05842865 84.42211655 17.0777948 83.27782684 17.0977478 82.09886169 C17.1572908 78.46181578 17.20382812 74.82473779 17.25 71.1875 C17.288203 68.71417928 17.32725608 66.24087154 17.3671875 63.76757812 C17.46297156 57.72016767 17.5480925 51.67267839 17.625 45.625 C16.67625 46.12 15.7275 46.615 14.75 47.125 C11.625 48.625 11.625 48.625 9.625 48.625 C9.6564209 50.53007324 9.6564209 50.53007324 9.68847656 52.47363281 C9.76150262 57.23718759 9.80702512 62.00069406 9.84472656 66.76464844 C9.86470057 68.81681674 9.89188947 70.86892917 9.92675781 72.92089844 C10.18733832 88.66302679 9.73058733 102.31768867 -1.375 114.625 C-10.17502771 122.88216886 -20.52760003 126.97738996 -32.6027832 126.73535156 C-43.26533137 126.17094452 -51.43504037 122.81048382 -59.375 115.625 C-60.40758898 114.31674247 -61.41686383 112.98872756 -62.375 111.625 C-61.35921875 110.88636719 -60.3434375 110.14773437 -59.296875 109.38671875 C-49.22090853 101.99079216 -39.76726791 94.28069758 -31.109375 85.234375 C-30.56829102 84.67427734 -30.02720703 84.11417969 -29.46972656 83.53710938 C-28.42793816 82.45130174 -27.39797677 81.35398706 -26.38183594 80.24414062 C-24.96875 78.765625 -24.96875 78.765625 -22.375 76.625 C-20.17578125 76.6328125 -20.17578125 76.6328125 -18.375 77.625 C-17.611875 78.49125 -16.84875 79.3575 -16.0625 80.25 C-15.175625 81.03375 -14.28875 81.8175 -13.375 82.625 C-12.27414063 82.40070313 -11.17328125 82.17640625 -10.0390625 81.9453125 C-6.375 81.625 -6.375 81.625 -3.57421875 83.828125 C-2.74535156 84.83359375 -1.91648437 85.8390625 -1.0625 86.875 C-0.22074219 87.87015625 0.62101562 88.8653125 1.48828125 89.890625 C3.625 92.625 3.625 92.625 5.625 95.625 C6.79564733 91.00317094 6.75297691 86.5556328 6.72265625 81.82421875 C6.7212413 80.98784378 6.71982635 80.15146881 6.71836853 79.28974915 C6.71279184 76.630629 6.70024365 73.9715945 6.6875 71.3125 C6.68248199 69.50455851 6.67791961 67.6966157 6.67382812 65.88867188 C6.66283004 61.46741516 6.6455815 57.04622207 6.625 52.625 C3.71188595 54.39602227 1.05199496 56.22018726 -1.375 58.625 C-2.3334678 62.2623966 -2.3334678 62.2623966 -1.875 66 C-1.76671875 67.86785156 -1.76671875 67.86785156 -1.65625 69.7734375 C-1.5634375 70.71445313 -1.470625 71.65546875 -1.375 72.625 C-2.86 73.12 -2.86 73.12 -4.375 73.625 C-4.66890625 72.83996094 -4.9628125 72.05492188 -5.265625 71.24609375 C-9.07655479 62.3210714 -13.63726373 58.64039984 -22.375 54.625 C-21.88 53.635 -21.88 53.635 -21.375 52.625 C-20.43140625 52.84800781 -19.4878125 53.07101563 -18.515625 53.30078125 C-11.28190338 54.61904013 -11.28190338 54.61904013 -4.47070312 52.50927734 C-2.60619025 50.98942605 -0.99400141 49.4033888 0.625 47.625 C1.14674805 47.06079346 1.66849609 46.49658691 2.20605469 45.9152832 C4.88529026 42.65290362 5.63505228 41.22813654 5.5625 36.875 C4.77116078 33.51668728 4.77116078 33.51668728 2.625 30.625 C0.23204607 29.47431237 0.23204607 29.47431237 -2.6015625 28.58203125 C-3.6328125 28.23076172 -4.6640625 27.87949219 -5.7265625 27.51757812 C-6.80679688 27.16115234 -7.88703125 26.80472656 -9 26.4375 C-10.08796875 26.06947266 -11.1759375 25.70144531 -12.296875 25.32226562 C-14.98661398 24.41388886 -17.67922105 23.515259 -20.375 22.625 C-19.715 21.305 -19.055 19.985 -18.375 18.625 C-11.445 19.12 -11.445 19.12 -4.375 19.625 C-14.78711268 10.98098192 -24.99946167 8.26497131 -38.35498047 9.35888672 C-47.57137222 10.5730355 -55.41097324 15.65712715 -61.375 22.625 C-68.02640786 32.43761461 -69.68698966 41.43438786 -69.60546875 53.0546875 C-69.60501053 54.12623077 -69.60455231 55.19777405 -69.6040802 56.30178833 C-69.60107353 58.55244056 -69.5932351 60.803091 -69.58081055 63.05371094 C-69.56244772 66.50983989 -69.56030183 69.96570214 -69.56054688 73.421875 C-69.55563507 75.6119815 -69.54980823 77.80208617 -69.54296875 79.9921875 C-69.54185593 81.02858368 -69.5407431 82.06497986 -69.53959656 83.13278198 C-69.53321671 84.08782623 -69.52683685 85.04287048 -69.52026367 86.02685547 C-69.51645187 86.86876434 -69.51264008 87.71067322 -69.50871277 88.57809448 C-69.50359934 90.69110036 -69.50359934 90.69110036 -68.375 92.625 C-66.46033633 92.50322312 -66.46033633 92.50322312 -64.375 91.625 C-62.76592892 89.24887135 -62.76592892 89.24887135 -61.375 86.625 C-60.39649805 85.60395449 -59.39519573 84.6043879 -58.375 83.625 C-57.02763027 81.96966005 -55.69165664 80.30487227 -54.375 78.625 C-51.26301935 80.12336105 -48.3215385 81.82433758 -45.375 83.625 C-45.106875 82.985625 -44.83875 82.34625 -44.5625 81.6875 C-43.375 79.625 -43.375 79.625 -40.375 78.625 C-40.08625 78.026875 -39.7975 77.42875 -39.5 76.8125 C-38.0242147 73.94291746 -35.87642195 72.62613756 -33.375 70.625 C-32.06334743 68.50839573 -32.06334743 68.50839573 -31.375 66.625 C-28.70833333 67.95833333 -26.04166667 69.29166667 -23.375 70.625 C-20.735 68.645 -18.095 66.665 -15.375 64.625 C-14.715 64.955 -14.055 65.285 -13.375 65.625 C-21.68220114 74.15147752 -29.96739451 82.30957671 -39.375 89.625 C-41.06282861 90.99959661 -42.75033266 92.37459184 -44.4375 93.75 C-53.5506826 100.98904301 -63.10519572 107.1713414 -73.375 112.625 C-74.50035156 113.23214844 -75.62570313 113.83929688 -76.78515625 114.46484375 C-83.35256289 117.66937627 -89.12966983 119.187216 -96.375 119.3125 C-97.08116455 119.33183594 -97.7873291 119.35117188 -98.51489258 119.37109375 C-102.23278882 119.28598154 -104.87293614 118.63680544 -107.8203125 116.4453125 C-111.54512789 112.33320744 -111.34120915 109.7300637 -111.0859375 104.36328125 C-108.56834768 91.1251853 -99.1962599 76.47041343 -88.375 68.625 C-87.6329557 73.37614477 -87.51376957 77.14351602 -89.98046875 81.38671875 C-91.3878983 83.23776586 -92.81567401 85.0734909 -94.26171875 86.89453125 C-99.254803 93.34585452 -102.40443413 99.38952699 -101.375 107.625 C-98.79623276 110.20376724 -97.65784113 109.9815453 -94.0625 110.0625 C-83.78225411 109.8544474 -75.12441899 105.1547124 -66.1875 100.5 C-65.53934326 100.16355469 -64.89118652 99.82710938 -64.22338867 99.48046875 C-61.05208307 97.76675295 -59.41260942 96.68141413 -57.375 93.625 C-58.14585938 93.9859375 -58.91671875 94.346875 -59.7109375 94.71875 C-61.21527344 95.41484375 -61.21527344 95.41484375 -62.75 96.125 C-64.24660156 96.82109375 -64.24660156 96.82109375 -65.7734375 97.53125 C-68.375 98.625 -68.375 98.625 -70.375 98.625 C-72.85354397 92.85017798 -72.69804906 87.29235513 -72.7109375 81.12109375 C-72.7175943 80.00622086 -72.7242511 78.89134796 -72.73110962 77.74269104 C-72.74121863 75.38503666 -72.74592718 73.02735377 -72.74560547 70.66967773 C-72.74995559 67.09895319 -72.78623204 63.5294886 -72.82421875 59.95898438 C-72.90740718 43.42615446 -72.43920076 29.25900829 -60.375 16.625 C-49.90573519 7.92945361 -39.87185652 4.59945866 -26.375 5.625 C-16.63716144 6.76134421 -8.64518046 11.24142691 -1.375 17.625 C0.11 18.12 0.11 18.12 1.625 18.625 C1.625 19.615 1.625 20.605 1.625 21.625 C5.70464281 20.32344994 5.70464281 20.32344994 9.625 18.625 C9.625 19.945 9.625 21.265 9.625 22.625 C10.615 22.13 10.615 22.13 11.625 21.625 C3.72789162 9.34060919 -6.00480904 1.77546062 -20.4609375 -1.90625 C-22.44761905 -2.20802441 -24.36619337 -2.31346899 -26.375 -2.375 C-27.32761719 -2.44847656 -28.28023438 -2.52195312 -29.26171875 -2.59765625 C-42.91642569 -3.24003691 -54.17502895 1.73740307 -64.375 10.625 C-72.46146296 18.1026366 -78.84316967 29.31352876 -79.55570984 40.44914246 C-79.62273106 43.8961241 -79.62587912 47.33757749 -79.60546875 50.78515625 C-79.60501053 52.04839218 -79.60455231 53.31162811 -79.6040802 54.61314392 C-79.6010663 57.27682175 -79.59429245 59.94014866 -79.58081055 62.60375977 C-79.56380463 66.0052482 -79.55999724 69.40658807 -79.56075573 72.80811405 C-79.56041736 76.07130932 -79.55157317 79.33447383 -79.54296875 82.59765625 C-79.54185593 83.81340836 -79.5407431 85.02916046 -79.53959656 86.28175354 C-79.53321671 87.41991013 -79.52683685 88.55806671 -79.52026367 89.73071289 C-79.51645187 90.72663956 -79.51264008 91.72256622 -79.50871277 92.74867249 C-79.36810343 95.77335385 -78.92985365 98.65067883 -78.375 101.625 C-81.345 102.615 -81.345 102.615 -84.375 103.625 C-86.86277253 96.86554606 -86.71556086 90.23101383 -86.74609375 83.08984375 C-86.75963646 81.12356773 -86.75963646 81.12356773 -86.77345276 79.11756897 C-86.78988678 76.34633943 -86.79763166 73.57522981 -86.80053711 70.80395508 C-86.80589235 67.29293608 -86.84347491 63.78308326 -86.88928127 60.27239132 C-86.92661997 56.87822026 -86.92758744 53.48421241 -86.93359375 50.08984375 C-86.95312607 48.84976059 -86.97265839 47.60967743 -86.99278259 46.33201599 C-86.91722006 31.44244095 -81.40171374 18.20228255 -71.2109375 7.3125 C-66.12371034 2.56681813 -60.57954392 -1.2402678 -54.375 -4.375 C-53.56417969 -4.79007813 -52.75335938 -5.20515625 -51.91796875 -5.6328125 C-35.10244307 -12.67416 -14.84328506 -9.78508226 0 0 Z " fill="#132D52" transform="translate(124.375,20.375)"/>
<path d="M0 0 C7.32779097 4.65558195 7.32779097 4.65558195 9 8 C4.05 7.67 -0.9 7.34 -6 7 C-6.66 7.99 -7.32 8.98 -8 10 C-6.80375 10.226875 -5.6075 10.45375 -4.375 10.6875 C-0.07354462 11.66541434 4.11721429 12.88664174 8.3125 14.25 C9.48425781 14.62640625 10.65601562 15.0028125 11.86328125 15.390625 C15.70726584 17.3628811 17.06831946 19.16525642 19 23 C19.6983716 25.82087353 19.45605477 27.21082111 18.00732422 29.71777344 C14.53724274 34.61505552 9.95382597 40.97178333 3.91210938 42.54296875 C-0.52709751 42.84629406 -4.6897309 42.08501933 -9 41 C-8.19175781 41.46148437 -7.38351563 41.92296875 -6.55078125 42.3984375 C0.77166221 46.8678662 5.34213571 50.68644776 8 59 C8 59.66 8 60.32 8 61 C8.66 60.67 9.32 60.34 10 60 C9.84337891 58.60587891 9.84337891 58.60587891 9.68359375 57.18359375 C9.0294861 47.22662174 9.0294861 47.22662174 11.96875 43.51171875 C17.87228261 39 17.87228261 39 20 39 C20.02479204 44.44433259 20.04290359 49.88863203 20.05493164 55.33300781 C20.05994811 57.18359958 20.06676282 59.0341874 20.07543945 60.88476562 C20.0876229 63.55079117 20.09325528 66.21676412 20.09765625 68.8828125 C20.10281754 69.70492218 20.10797882 70.52703186 20.11329651 71.37405396 C20.11371514 75.69923396 19.86576406 79.74008134 19 84 C16.54720494 81.62385479 14.24978543 79.31719614 12.1328125 76.62890625 C10.19271792 74.20944978 8.36485703 72.00967888 6 70 C2.29945591 70.0636079 2.29945591 70.0636079 -1 71 C-3.3125 69.1875 -3.3125 69.1875 -5 67 C-5.66 66.34 -6.32 65.68 -7 65 C-10.74200817 65.27433935 -12.45634623 67.15009915 -14.94921875 69.796875 C-15.70726807 70.58521729 -16.46531738 71.37355957 -17.24633789 72.18579102 C-18.05192139 73.03197998 -18.85750488 73.87816895 -19.6875 74.75 C-27.72797801 83.02094005 -36.12269045 90.19951163 -45.51391602 96.88110352 C-47.15736819 98.0643174 -47.15736819 98.0643174 -49 100 C-39.42728929 109.06352397 -31.25234457 112.08993332 -18.1875 113.375 C-7.15246812 112.96797014 3.10628452 108.6378414 11 101 C18.73357647 91.50685751 21.42712576 81.45650505 21.51171875 69.3984375 C21.53864555 67.95472275 21.53864555 67.95472275 21.56611633 66.48184204 C21.61974479 63.44627092 21.65396133 60.41085263 21.6875 57.375 C21.72071506 55.30076019 21.75520851 53.22654043 21.79101562 51.15234375 C21.87544337 46.1016737 21.94247897 41.05104522 22 36 C27.75 33 27.75 33 30 33 C30.10215385 40.18574763 30.17177946 47.37130519 30.21972656 54.55761719 C30.23973329 56.99779254 30.26694745 59.43792062 30.30175781 61.87792969 C30.35075874 65.40311411 30.37307916 68.92765989 30.390625 72.453125 C30.41127014 73.5286261 30.43191528 74.6041272 30.45318604 75.71221924 C30.4565133 87.16755117 27.16406818 97.03650624 20 106 C19.47148437 106.67675781 18.94296875 107.35351562 18.3984375 108.05078125 C10.49517483 117.01593604 -2.72116238 123.03226847 -14.546875 124.265625 C-31.09115426 124.14828969 -43.04417437 119.21038902 -55.26953125 107.91796875 C-57 106 -57 106 -57 104 C-57.79921875 104.39832031 -58.5984375 104.79664063 -59.421875 105.20703125 C-70.25465429 110.43270295 -83.17051049 116.026962 -95.359375 112.2734375 C-99.76127797 110.29740077 -101.88045166 108.45167674 -104 104 C-106.17442885 91.85574092 -102.08038002 83.20961397 -96 73 C-95.13955078 71.48212891 -95.13955078 71.48212891 -94.26171875 69.93359375 C-90.22813163 63.16602395 -83.72561887 52.57520629 -76 50 C-75.60729486 53.7525158 -75.5766643 55.44480564 -77.90625 58.5 C-78.7621875 59.325 -79.618125 60.15 -80.5 61 C-88.96195941 69.78603445 -97.3818156 82.20427261 -97.5 94.6875 C-97.5309375 95.78449219 -97.561875 96.88148438 -97.59375 98.01171875 C-97.23184424 101.12589488 -97.23184424 101.12589488 -94.95703125 103.3515625 C-91.32073443 105.37866588 -88.25988077 105.72834914 -84.1875 105.6875 C-83.44266357 105.68169922 -82.69782715 105.67589844 -81.93041992 105.66992188 C-73.3426996 105.31463044 -66.45871854 102.00695532 -59 98 C-58.08541016 97.52699463 -58.08541016 97.52699463 -57.15234375 97.04443359 C-36.56569323 86.35649381 -18.12257345 69.47306417 -2 53 C-4.97 54.98 -7.94 56.96 -11 59 C-14.04951395 57.47524303 -16.36399506 56.07114674 -19 54 C-19.268125 54.763125 -19.53625 55.52625 -19.8125 56.3125 C-20.95134505 58.88988618 -21.81416671 60.26954864 -24 62 C-24.66 62 -25.32 62 -26 62 C-26.66 63.65 -27.32 65.3 -28 67 C-28.99 67 -29.98 67 -31 67 C-31.66 68.65 -32.32 70.3 -33 72 C-33.9075 71.34 -34.815 70.68 -35.75 70 C-38.93175815 67.65060172 -38.93175815 67.65060172 -43 68 C-44.38938077 69.96147874 -45.7260411 71.96166576 -47 74 C-47.66 74 -48.32 74 -49 74 C-49.20625 74.78375 -49.4125 75.5675 -49.625 76.375 C-51 79 -51 79 -54.125 80.3125 C-55.07375 80.539375 -56.0225 80.76625 -57 81 C-57.95540743 78.1337777 -58.13674088 76.29816912 -58.16113281 73.32006836 C-58.17074036 72.37155502 -58.1803479 71.42304169 -58.19024658 70.44578552 C-58.19449646 69.42082474 -58.19874634 68.39586395 -58.203125 67.33984375 C-58.20882507 66.28019913 -58.21452515 65.2205545 -58.22039795 64.12879944 C-58.22985133 61.88185627 -58.23638327 59.63489921 -58.24023438 57.38793945 C-58.24989338 53.9751709 -58.28089475 50.56301662 -58.3125 47.15039062 C-58.31903499 44.96354523 -58.32428351 42.77669554 -58.328125 40.58984375 C-58.3404718 39.57905258 -58.3528186 38.56826141 -58.36553955 37.52684021 C-58.32921764 25.78005313 -54.8646851 15.64431586 -47.03125 6.76953125 C-34.47734694 -5.35226282 -15.54261607 -8.37106416 0 0 Z " fill="#F8A60B" transform="translate(112,33)"/>
<path d="M0 0 C0.10215385 7.18574763 0.17177946 14.37130519 0.21972656 21.55761719 C0.23973329 23.99779254 0.26694745 26.43792062 0.30175781 28.87792969 C0.35075874 32.40311411 0.37307916 35.92765989 0.390625 39.453125 C0.41127014 40.5286261 0.43191528 41.6041272 0.45318604 42.71221924 C0.4565133 54.16755117 -2.83593182 64.03650624 -10 73 C-10.52851563 73.67675781 -11.05703125 74.35351562 -11.6015625 75.05078125 C-19.50482517 84.01593604 -32.72116238 90.03226847 -44.546875 91.265625 C-61.09115426 91.14828969 -73.04417437 86.21038902 -85.26953125 74.91796875 C-87 73 -87 73 -87 71 C-87.79921875 71.39832031 -88.5984375 71.79664063 -89.421875 72.20703125 C-100.25465429 77.43270295 -113.17051049 83.026962 -125.359375 79.2734375 C-129.76127797 77.29740077 -131.88045166 75.45167674 -134 71 C-136.17442885 58.85574092 -132.08038002 50.20961397 -126 40 C-125.42636719 38.98808594 -124.85273437 37.97617188 -124.26171875 36.93359375 C-120.22813163 30.16602395 -113.72561887 19.57520629 -106 17 C-105.60729486 20.7525158 -105.5766643 22.44480564 -107.90625 25.5 C-108.7621875 26.325 -109.618125 27.15 -110.5 28 C-118.96195941 36.78603445 -127.3818156 49.20427261 -127.5 61.6875 C-127.54640625 63.33298828 -127.54640625 63.33298828 -127.59375 65.01171875 C-127.23184424 68.12589488 -127.23184424 68.12589488 -124.95703125 70.3515625 C-121.32073443 72.37866588 -118.25988077 72.72834914 -114.1875 72.6875 C-113.44266357 72.68169922 -112.69782715 72.67589844 -111.93041992 72.66992188 C-103.3426996 72.31463044 -96.45871854 69.00695532 -89 65 C-88.08541016 64.52699463 -88.08541016 64.52699463 -87.15234375 64.04443359 C-65.8309919 52.97506005 -42.48652168 34.12220862 -28 15 C-26.99491199 16.78881736 -25.99607264 18.58114696 -25 20.375 C-24.443125 21.37273437 -23.88625 22.37046875 -23.3125 23.3984375 C-22 26 -22 26 -22 28 C-21.01 27.505 -21.01 27.505 -20 27 C-20.15662109 25.60587891 -20.15662109 25.60587891 -20.31640625 24.18359375 C-20.9705139 14.22662174 -20.9705139 14.22662174 -18.03125 10.51171875 C-12.12771739 6 -12.12771739 6 -10 6 C-9.97520796 11.44433259 -9.95709641 16.88863203 -9.94506836 22.33300781 C-9.94005189 24.18359958 -9.93323718 26.0341874 -9.92456055 27.88476562 C-9.9123771 30.55079117 -9.90674472 33.21676412 -9.90234375 35.8828125 C-9.89718246 36.70492218 -9.89202118 37.52703186 -9.88670349 38.37405396 C-9.88628486 42.69923396 -10.13423594 46.74008134 -11 51 C-13.45279506 48.62385479 -15.75021457 46.31719614 -17.8671875 43.62890625 C-19.80728208 41.20944978 -21.63514297 39.00967888 -24 37 C-27.70054409 37.0636079 -27.70054409 37.0636079 -31 38 C-33.3125 36.1875 -33.3125 36.1875 -35 34 C-35.66 33.34 -36.32 32.68 -37 32 C-40.74200817 32.27433935 -42.45634623 34.15009915 -44.94921875 36.796875 C-45.70726807 37.58521729 -46.46531738 38.37355957 -47.24633789 39.18579102 C-48.05192139 40.03197998 -48.85750488 40.87816895 -49.6875 41.75 C-57.72797801 50.02094005 -66.12269045 57.19951163 -75.51391602 63.88110352 C-77.15736819 65.0643174 -77.15736819 65.0643174 -79 67 C-69.42728929 76.06352397 -61.25234457 79.08993332 -48.1875 80.375 C-37.15246812 79.96797014 -26.89371548 75.6378414 -19 68 C-11.26642353 58.50685751 -8.57287424 48.45650505 -8.48828125 36.3984375 C-8.46135445 34.95472275 -8.46135445 34.95472275 -8.43388367 33.48184204 C-8.38025521 30.44627092 -8.34603867 27.41085263 -8.3125 24.375 C-8.27928494 22.30076019 -8.24479149 20.22654043 -8.20898438 18.15234375 C-8.12455663 13.1016737 -8.05752103 8.05104522 -8 3 C-2.25 0 -2.25 0 0 0 Z " fill="#EFA20E" transform="translate(142,66)"/>
<path d="M0 0 C0.928125 0.70125 1.85625 1.4025 2.8125 2.125 C3.65748047 2.75341797 3.65748047 2.75341797 4.51953125 3.39453125 C9.41559386 7.26658076 12.59122253 11.81520197 15.8125 17.125 C14.3275 17.62 14.3275 17.62 12.8125 18.125 C12.3175 16.64 12.3175 16.64 11.8125 15.125 C11.1525 15.785 10.4925 16.445 9.8125 17.125 C7.1875 17.25 7.1875 17.25 4.8125 17.125 C4.8125 16.135 4.8125 15.145 4.8125 14.125 C3.97138672 13.98191406 3.97138672 13.98191406 3.11328125 13.8359375 C0.26212738 12.9549358 -1.61140341 11.53298391 -4 9.75 C-14.26661615 2.40379959 -25.25802663 0.61825139 -37.76171875 2.515625 C-46.94985859 4.82375675 -55.45093777 10.27021048 -61.1875 17.8125 C-69.67172313 32.057477 -68.69906683 46.48207962 -68.5 62.5625 C-68.48849019 64.95767455 -68.47871051 67.35285806 -68.47070312 69.74804688 C-68.45728859 72.03907216 -68.44236826 74.33008924 -68.42578125 76.62109375 C-68.41839432 77.68678085 -68.41100739 78.75246796 -68.40339661 79.85044861 C-68.34094012 84.70997513 -68.2031466 89.34936526 -67.1875 94.125 C-66.41664062 93.7640625 -65.64578125 93.403125 -64.8515625 93.03125 C-63.34722656 92.33515625 -63.34722656 92.33515625 -61.8125 91.625 C-60.31589844 90.92890625 -60.31589844 90.92890625 -58.7890625 90.21875 C-56.1875 89.125 -56.1875 89.125 -54.1875 89.125 C-55.58701971 92.57879351 -56.93660699 93.8879218 -60.22265625 95.59765625 C-61.43791992 96.23477539 -61.43791992 96.23477539 -62.67773438 96.88476562 C-63.52658203 97.31466797 -64.37542969 97.74457031 -65.25 98.1875 C-66.07177734 98.62126953 -66.89355469 99.05503906 -67.74023438 99.50195312 C-75.05028207 103.28063238 -82.19563871 106.5658808 -90.5625 106.5 C-91.56023437 106.50773437 -92.55796875 106.51546875 -93.5859375 106.5234375 C-96.1875 106.125 -96.1875 106.125 -98.00390625 104.81640625 C-99.63534457 102.4850109 -99.77722489 100.36069733 -99.6640625 97.5625 C-97.95353016 88.81354771 -92.12296416 80.60005181 -86.1875 74.125 C-85.8575 74.125 -85.5275 74.125 -85.1875 74.125 C-84.74225039 80.85321632 -84.92683123 85.53838589 -88.36328125 91.3984375 C-89.43012973 93.2600204 -89.43012973 93.2600204 -88.9375 96.125 C-88.69 96.785 -88.4425 97.445 -88.1875 98.125 C-86.7504191 98.17922947 -85.31274538 98.21789723 -83.875 98.25 C-83.07449219 98.27320312 -82.27398437 98.29640625 -81.44921875 98.3203125 C-78.90361424 98.28317322 -78.90361424 98.28317322 -76.1875 96.125 C-76.429524 95.06388756 -76.429524 95.06388756 -76.67643738 93.9813385 C-77.19729875 91.07023462 -77.33490636 88.37907149 -77.36450195 85.42358398 C-77.37733719 84.30149033 -77.39017242 83.17939667 -77.40339661 82.02330017 C-77.41078354 80.81807205 -77.41817047 79.61284393 -77.42578125 78.37109375 C-77.433853 77.11925797 -77.44192474 75.86742218 -77.45024109 74.57765198 C-77.46406385 71.92730023 -77.47508426 69.27707201 -77.48266602 66.62670898 C-77.49149592 63.92953696 -77.51230386 61.23288518 -77.54418945 58.53588867 C-77.58707984 54.62663389 -77.60306716 50.7180553 -77.61328125 46.80859375 C-77.63078934 45.61753525 -77.64829742 44.42647675 -77.66633606 43.19932556 C-77.62998273 28.9819182 -72.63335384 16.81490017 -62.9375 6.375 C-44.97041613 -10.311579 -20.97083299 -12.33578411 0 0 Z " fill="#A9BED8" transform="translate(121.1875,24.875)"/>
<path d="M0 0 C4.434375 -0.061875 8.86875 -0.12375 13.4375 -0.1875 C14.81736084 -0.21481201 16.19722168 -0.24212402 17.61889648 -0.27026367 C25.686216 -0.32450069 33.32382801 -0.31752107 39.5625 5.3125 C41.3299509 8.61686472 41.60418206 10.29938486 41 14 C39 17.375 39 17.375 37 20 C37.495 20.556875 37.99 21.11375 38.5 21.6875 C40.24754367 24.38162983 40.26218749 25.85375007 40 29 C42.98357416 26.19521223 45.20964307 23.36795043 47.3828125 19.90234375 C48.29740234 18.45311523 48.29740234 18.45311523 49.23046875 16.97460938 C49.85566406 15.97236328 50.48085938 14.97011719 51.125 13.9375 C52.37748225 11.94653788 53.63008122 9.95564919 54.8828125 7.96484375 C55.70869873 6.64407837 55.70869873 6.64407837 56.55126953 5.29663086 C59.86013073 0.05118811 59.86013073 0.05118811 62.43359375 -0.890625 C66.17741107 -1.33851992 68.42275755 -1.28966779 72 0 C76.22875164 4.1678771 78.9546771 9.65607895 81.78222656 14.81933594 C83.44399861 17.79506727 85.30235088 20.59842001 87.1875 23.4375 C90 27.75175644 90 27.75175644 90 30 C86.04 30 82.08 30 78 30 C77.01 27.525 77.01 27.525 76 25 C69.4 25 62.8 25 56 25 C55.34 26.65 54.68 28.3 54 30 C45.75 30 37.5 30 29 30 C28.01 28.02 27.02 26.04 26 24 C22.83759418 21.89172945 21.49342531 21.66182535 17.8125 21.375 C16.91144531 21.30023438 16.01039063 21.22546875 15.08203125 21.1484375 C14.39496094 21.09945312 13.70789063 21.05046875 13 21 C13 23.97 13 26.94 13 30 C8.71 30 4.42 30 0 30 C0 20.1 0 10.2 0 0 Z " fill="#152F54" transform="translate(206,51)"/>
<path d="M0 0 C3.96 0 7.92 0 12 0 C12.495 1.98 12.495 1.98 13 4 C15.06472317 5.77930888 15.06472317 5.77930888 17.5625 7.25 C18.38878906 7.77078125 19.21507812 8.2915625 20.06640625 8.828125 C20.70449219 9.21484375 21.34257813 9.6015625 22 10 C20.50253294 13.88997191 18.29577922 15.46948052 14.875 17.75 C13.96492188 18.36359375 13.05484375 18.9771875 12.1171875 19.609375 C11.41851562 20.06828125 10.71984375 20.5271875 10 21 C7.06553114 19.58208437 4.56667591 18.01667393 2 16 C1.731875 16.763125 1.46375 17.52625 1.1875 18.3125 C0.04865495 20.88988618 -0.81416671 22.26954864 -3 24 C-3.66 24 -4.32 24 -5 24 C-5.99 26.475 -5.99 26.475 -7 29 C-7.99 29 -8.98 29 -10 29 C-10.99 31.475 -10.99 31.475 -12 34 C-12.9075 33.34 -13.815 32.68 -14.75 32 C-17.93175815 29.65060172 -17.93175815 29.65060172 -22 30 C-23.38938077 31.96147874 -24.7260411 33.96166576 -26 36 C-26.66 36 -27.32 36 -28 36 C-28.20625 36.78375 -28.4125 37.5675 -28.625 38.375 C-30 41 -30 41 -33.125 42.3125 C-34.07375 42.539375 -35.0225 42.76625 -36 43 C-37.27385127 39.1784462 -37.12353188 35.5931553 -37.09765625 31.61328125 C-37.0962413 30.79627243 -37.09482635 29.97926361 -37.09336853 29.13749695 C-37.08777294 26.52912732 -37.07522129 23.92084366 -37.0625 21.3125 C-37.05748443 19.54362103 -37.05292162 17.77474072 -37.04882812 16.00585938 C-37.03780496 11.67053981 -37.02054338 7.33528448 -37 3 C-35.79839233 2.96241577 -35.79839233 2.96241577 -34.57250977 2.92407227 C-30.90237974 2.80720265 -27.23244983 2.68489255 -23.5625 2.5625 C-22.30244141 2.52318359 -21.04238281 2.48386719 -19.74414062 2.44335938 C-13.11098393 2.21821306 -6.5829411 1.85241566 0 1 C0 0.67 0 0.34 0 0 Z " fill="#F7A50A" transform="translate(91,71)"/>
<path d="M0 0 C0.10215385 7.18574763 0.17177946 14.37130519 0.21972656 21.55761719 C0.23973329 23.99779254 0.26694745 26.43792062 0.30175781 28.87792969 C0.35075874 32.40311411 0.37307916 35.92765989 0.390625 39.453125 C0.41127014 40.5286261 0.43191528 41.6041272 0.45318604 42.71221924 C0.4565133 54.16755117 -2.83593182 64.03650624 -10 73 C-10.52851563 73.67675781 -11.05703125 74.35351562 -11.6015625 75.05078125 C-19.50482517 84.01593604 -32.72116238 90.03226847 -44.546875 91.265625 C-61.07222992 91.1484239 -72.98165546 86.1899731 -85.26953125 75.015625 C-87 73 -87 73 -87 70 C-84.75 68.25 -84.75 68.25 -82 67 C-78.7353277 67.40808404 -77.08980505 68.5692403 -74.75 70.8125 C-66.85136192 77.79074593 -56.8358153 80.69399524 -46.28125 80.3046875 C-34.61656185 78.74673258 -24.42497888 74.659286 -16.87109375 65.38671875 C-10.70967269 56.29251272 -8.56457534 47.27356206 -8.48828125 36.3984375 C-8.46135445 34.95472275 -8.46135445 34.95472275 -8.43388367 33.48184204 C-8.38025521 30.44627092 -8.34603867 27.41085263 -8.3125 24.375 C-8.27928494 22.30076019 -8.24479149 20.22654043 -8.20898438 18.15234375 C-8.12455663 13.1016737 -8.05752103 8.05104522 -8 3 C-2.25 0 -2.25 0 0 0 Z " fill="#ABC0D9" transform="translate(142,66)"/>
<path d="M0 0 C3.37785166 0.30545696 3.97825191 0.97531298 6.3125 3.625 C7.199375 4.40875 8.08625 5.1925 9 6 C10.65128906 5.66355469 10.65128906 5.66355469 12.3359375 5.3203125 C16 5 16 5 18.80078125 7.203125 C19.62964844 8.20859375 20.45851562 9.2140625 21.3125 10.25 C22.15425781 11.24515625 22.99601562 12.2403125 23.86328125 13.265625 C28.01852777 18.58312512 28.01852777 18.58312512 27.875 21.8125 C26.85372429 25.53286151 25.26798495 27.88962064 23 31 C22.46375 31.969375 21.9275 32.93875 21.375 33.9375 C14.92682407 42.25225317 6.00280605 45.65922707 -4 48 C-4.66 48 -5.32 48 -6 48 C-6.66 46.68 -7.32 45.36 -8 44 C-6.515 43.505 -6.515 43.505 -5 43 C-5.99 42.34 -6.98 41.68 -8 41 C-8 40.34 -8 39.68 -8 39 C-5.69 39.33 -3.38 39.66 -1 40 C-5.455 38.02 -5.455 38.02 -10 36 C-6 35 -6 35 -3 35 C-3.33 34.34 -3.66 33.68 -4 33 C-2.68 33 -1.36 33 0 33 C-1.2065625 32.38125 -1.2065625 32.38125 -2.4375 31.75 C-5.34263444 29.76600575 -5.36958033 29.25716827 -6 26 C-6.99 25.34 -7.98 24.68 -9 24 C-8.01 20.535 -8.01 20.535 -7 17 C-7.99 16.34 -8.98 15.68 -10 15 C-10.33 15.99 -10.66 16.98 -11 18 C-13.38252255 19.67420503 -15.31872415 20.86374483 -18.1875 21.4375 C-18.785625 21.623125 -19.38375 21.80875 -20 22 C-20.24105469 22.55300781 -20.48210937 23.10601562 -20.73046875 23.67578125 C-22.55597957 27.01787028 -25.30741345 29.25927964 -28.125 31.75 C-28.68832031 32.25660156 -29.25164062 32.76320312 -29.83203125 33.28515625 C-31.21651531 34.52884532 -32.60761488 35.76516305 -34 37 C-35.32 36.34 -36.64 35.68 -38 35 C-34.97369862 31.77194519 -31.79070243 28.98874207 -28.3125 26.25 C-21.72629021 21.0334887 -15.43861028 15.57315011 -9.62109375 9.50390625 C-9.04141846 8.90408936 -8.46174316 8.30427246 -7.86450195 7.6862793 C-6.71986347 6.49440941 -5.58646723 5.29162251 -4.46557617 4.07739258 C-2.8828125 2.4296875 -2.8828125 2.4296875 0 0 Z " fill="#407AAC" transform="translate(102,97)"/>
<path d="M0 0 C1.90652344 0.17208984 1.90652344 0.17208984 3.8515625 0.34765625 C4.52131104 0.40759766 5.19105957 0.46753906 5.88110352 0.52929688 C11.10257415 1.10612804 14.16370779 2.59359807 18.4765625 5.41015625 C20.63064554 5.86000155 20.63064554 5.86000155 22.8515625 6.03515625 C24.0478125 6.15890625 25.2440625 6.28265625 26.4765625 6.41015625 C26.9715625 7.40015625 26.9715625 7.40015625 27.4765625 8.41015625 C24.1765625 8.41015625 20.8765625 8.41015625 17.4765625 8.41015625 C17.4765625 9.07015625 17.4765625 9.73015625 17.4765625 10.41015625 C21.7665625 10.41015625 26.0565625 10.41015625 30.4765625 10.41015625 C30.4765625 10.74015625 30.4765625 11.07015625 30.4765625 11.41015625 C28.8265625 11.74015625 27.1765625 12.07015625 25.4765625 12.41015625 C28.4465625 13.40015625 31.4165625 14.39015625 34.4765625 15.41015625 C34.4765625 15.74015625 34.4765625 16.07015625 34.4765625 16.41015625 C27.37755025 17.8299587 21.62765644 17.81700323 14.70703125 15.85546875 C10.3500031 14.98558922 5.89847834 15.26384286 1.4765625 15.41015625 C2.1365625 16.07015625 2.7965625 16.73015625 3.4765625 17.41015625 C3.4765625 18.40015625 3.4765625 19.39015625 3.4765625 20.41015625 C12.0565625 21.73015625 20.6365625 23.05015625 29.4765625 24.41015625 C29.4765625 24.74015625 29.4765625 25.07015625 29.4765625 25.41015625 C23.8665625 26.07015625 18.2565625 26.73015625 12.4765625 27.41015625 C12.4765625 27.74015625 12.4765625 28.07015625 12.4765625 28.41015625 C4.25899174 29.47362069 -3.87204405 29.5280595 -12.1484375 29.47265625 C-13.43878906 29.46814453 -14.72914062 29.46363281 -16.05859375 29.45898438 C-19.21359125 29.4472992 -22.36848887 29.43091669 -25.5234375 29.41015625 C-25.53869692 27.4948166 -25.54956773 25.57944167 -25.55859375 23.6640625 C-25.56511963 22.59744385 -25.57164551 21.5308252 -25.57836914 20.43188477 C-25.50643446 16.47483805 -25.27164256 13.98257529 -23.5234375 10.41015625 C-19.34421402 7.98620663 -15.25904208 6.99807566 -10.515625 6.23046875 C-8.23281231 5.46063519 -8.23281231 5.46063519 -6.2421875 2.84375 C-3.5234375 0.41015625 -3.5234375 0.41015625 0 0 Z " fill="#FBBD47" transform="translate(79.5234375,44.58984375)"/>
<path d="M0 0 C0.99 0.495 0.99 0.495 2 1 C-6.30720114 9.52647752 -14.59239451 17.68457671 -24 25 C-25.68782861 26.37459661 -27.37533266 27.74959184 -29.0625 29.125 C-38.1756826 36.36404301 -47.73019572 42.5463414 -58 48 C-59.12535156 48.60714844 -60.25070313 49.21429688 -61.41015625 49.83984375 C-67.97756289 53.04437627 -73.75466983 54.562216 -81 54.6875 C-81.70616455 54.70683594 -82.4123291 54.72617188 -83.13989258 54.74609375 C-86.85778882 54.66098154 -89.49793614 54.01180544 -92.4453125 51.8203125 C-96.17012789 47.70820744 -95.96620915 45.1050637 -95.7109375 39.73828125 C-93.19334768 26.5001853 -83.8212599 11.84541343 -73 4 C-72.2579557 8.75114477 -72.13876957 12.51851602 -74.60546875 16.76171875 C-76.0128983 18.61276586 -77.44067401 20.4484909 -78.88671875 22.26953125 C-83.879803 28.72085452 -87.02943413 34.76452699 -86 43 C-83.42123276 45.57876724 -82.28284113 45.3565453 -78.6875 45.4375 C-71.35851732 45.28917535 -65.58061333 43.0846625 -59 40 C-57.906875 39.48824219 -56.81375 38.97648437 -55.6875 38.44921875 C-37.88753921 29.48964027 -17.71637108 17.54766629 -4 3 C-2.68824014 1.97186389 -1.3630107 0.95915568 0 0 Z " fill="#112B4E" transform="translate(109,85)"/>
<path d="M0 0 C11.55 0 23.1 0 35 0 C35 2.64 35 5.28 35 8 C27.74 8 20.48 8 13 8 C13 9.32 13 10.64 13 12 C18.94 12 24.88 12 31 12 C31 13.98 31 15.96 31 18 C25.06 18 19.12 18 13 18 C13 19.65 13 21.3 13 23 C20.59 23 28.18 23 36 23 C36 25.31 36 27.62 36 30 C24.12 30 12.24 30 0 30 C0 20.1 0 10.2 0 0 Z " fill="#173156" transform="translate(343,51)"/>
<path d="M0 0 C3.74381732 -0.44789492 5.9891638 -0.39904279 9.56640625 0.890625 C13.79515789 5.0585021 16.52108335 10.54670395 19.34863281 15.70996094 C21.01040486 18.68569227 22.86875713 21.48904501 24.75390625 24.328125 C27.56640625 28.64238144 27.56640625 28.64238144 27.56640625 30.890625 C23.60640625 30.890625 19.64640625 30.890625 15.56640625 30.890625 C14.90640625 29.240625 14.24640625 27.590625 13.56640625 25.890625 C6.96640625 25.890625 0.36640625 25.890625 -6.43359375 25.890625 C-7.42359375 28.365625 -7.42359375 28.365625 -8.43359375 30.890625 C-13.05359375 30.890625 -17.67359375 30.890625 -22.43359375 30.890625 C-21.11359375 29.240625 -19.79359375 27.590625 -18.43359375 25.890625 C-17.28052924 24.17570121 -16.15333527 22.44313858 -15.05078125 20.6953125 C-14.44105469 19.73238281 -13.83132812 18.76945312 -13.203125 17.77734375 C-12.57792969 16.78347656 -11.95273437 15.78960937 -11.30859375 14.765625 C-10.05619556 12.78372399 -8.8036002 10.80194756 -7.55078125 8.8203125 C-6.72489502 7.50909424 -6.72489502 7.50909424 -5.88232422 6.17138672 C-2.55660068 0.93564198 -2.55660068 0.93564198 0 0 Z " fill="#112B52" transform="translate(268.43359375,50.109375)"/>
<path d="M0 0 C2.48764312 1.88794344 4.71378433 3.86288535 7 6 C6.67 6.66 6.34 7.32 6 8 C3.03595372 6.60789736 0.47217943 4.96642353 -2.1875 3.0625 C-11.76664292 -3.26685291 -21.69919643 -4.37663846 -33 -3 C-42.50325927 -0.67530691 -50.31706119 4.56667521 -55.81640625 12.6796875 C-61.10797281 21.88573823 -62.30378732 29.97857936 -62.23046875 40.4296875 C-62.23001053 41.50123077 -62.22955231 42.57277405 -62.2290802 43.67678833 C-62.22607353 45.92744056 -62.2182351 48.178091 -62.20581055 50.42871094 C-62.18744772 53.88483989 -62.18530183 57.34070214 -62.18554688 60.796875 C-62.18063507 62.9869815 -62.17480823 65.17708617 -62.16796875 67.3671875 C-62.16685593 68.40358368 -62.1657431 69.43997986 -62.16459656 70.50778198 C-62.15502678 71.94034836 -62.15502678 71.94034836 -62.14526367 73.40185547 C-62.14145187 74.24376434 -62.13764008 75.08567322 -62.13371277 75.95309448 C-62.12859934 78.06610036 -62.12859934 78.06610036 -61 80 C-59.08533633 79.87822312 -59.08533633 79.87822312 -57 79 C-55.39092892 76.62387135 -55.39092892 76.62387135 -54 74 C-53.02149805 72.97895449 -52.02019573 71.9793879 -51 71 C-49.65263027 69.34466005 -48.31665664 67.67987227 -47 66 C-43.88801935 67.49836105 -40.9465385 69.19933758 -38 71 C-37.731875 70.360625 -37.46375 69.72125 -37.1875 69.0625 C-36 67 -36 67 -33 66 C-32.71125 65.401875 -32.4225 64.80375 -32.125 64.1875 C-30.6492147 61.31791746 -28.50142195 60.00113756 -26 58 C-24.68834743 55.88339573 -24.68834743 55.88339573 -24 54 C-20.61994673 55.44859426 -18.5412772 57.37330171 -16 60 C-26.48787792 68.47833926 -37.62331494 75.77687022 -49 83 C-49.33 82.34 -49.66 81.68 -50 81 C-50.77085938 81.3609375 -51.54171875 81.721875 -52.3359375 82.09375 C-53.84027344 82.78984375 -53.84027344 82.78984375 -55.375 83.5 C-56.87160156 84.19609375 -56.87160156 84.19609375 -58.3984375 84.90625 C-61 86 -61 86 -63 86 C-65.47854397 80.22517798 -65.32304906 74.66735513 -65.3359375 68.49609375 C-65.3425943 67.38122086 -65.3492511 66.26634796 -65.35610962 65.11769104 C-65.36621863 62.76003666 -65.37092718 60.40235377 -65.37060547 58.04467773 C-65.37495559 54.47395319 -65.41123204 50.9044886 -65.44921875 47.33398438 C-65.53240718 30.80115446 -65.06420076 16.63400829 -53 4 C-37.05603521 -9.24271456 -17.74028997 -10.76672204 0 0 Z " fill="#20385A" transform="translate(117,33)"/>
<path d="M0 0 C3.96 0 7.92 0 12 0 C12.63808594 1.35996094 13.27617187 2.71992187 13.93359375 4.12109375 C14.76811639 5.89328228 15.60275794 7.66541481 16.4375 9.4375 C16.85837891 10.33533203 17.27925781 11.23316406 17.71289062 12.15820312 C18.11572266 13.01220703 18.51855469 13.86621094 18.93359375 14.74609375 C19.4913147 15.93223267 19.4913147 15.93223267 20.06030273 17.14233398 C20.86104789 18.96497994 20.86104789 18.96497994 22 20 C24.97 13.4 27.94 6.8 31 0 C35.29 0 39.58 0 44 0 C42.43155066 3.92112336 40.80288902 7.30396946 38.7421875 10.95703125 C38.11699219 12.06884766 37.49179687 13.18066406 36.84765625 14.32617188 C36.1901709 15.48831901 35.53261797 16.65042791 34.875 17.8125 C34.20935359 18.99398189 33.54398616 20.175621 32.87890625 21.35742188 C31.25534066 24.23983905 29.62894985 27.12062331 28 30 C23.95199022 30.31976882 20.04025105 30.46778322 16 30 C13.359375 27.68359375 13.359375 27.68359375 11.75 24.4375 C11.44900391 23.86410889 11.14800781 23.29071777 10.83789062 22.69995117 C10.19620741 21.46901093 9.57427341 20.22760872 8.97070312 18.97753906 C7.95237299 16.90297314 6.85688419 14.88713423 5.734375 12.8671875 C0 2.48816666 0 2.48816666 0 0 Z " fill="#142E54" transform="translate(297,51)"/>
<path d="M0 0 C0.02479204 5.44433259 0.04290359 10.88863203 0.05493164 16.33300781 C0.05994811 18.18359958 0.06676282 20.0341874 0.07543945 21.88476562 C0.0876229 24.55079117 0.09325528 27.21676412 0.09765625 29.8828125 C0.10281754 30.70492218 0.10797882 31.52703186 0.11329651 32.37405396 C0.11371514 36.69923396 -0.13423594 40.74008134 -1 45 C-3.45279506 42.62385479 -5.75021457 40.31719614 -7.8671875 37.62890625 C-9.80728208 35.20944978 -11.63514297 33.00967888 -14 31 C-17.70054409 31.0636079 -17.70054409 31.0636079 -21 32 C-23.94774385 29.78919212 -25.80304359 26.93133229 -28 24 C-24.61227103 19.30840284 -21.21814817 14.9700218 -17 11 C-16.16151196 12.45537568 -15.32936066 13.91440373 -14.5 15.375 C-14.0359375 16.18710938 -13.571875 16.99921875 -13.09375 17.8359375 C-12 20 -12 20 -12 22 C-11.34 21.67 -10.68 21.34 -10 21 C-10.10441406 20.07058594 -10.20882812 19.14117187 -10.31640625 18.18359375 C-10.9705139 8.22662174 -10.9705139 8.22662174 -8.03125 4.51171875 C-2.12771739 0 -2.12771739 0 0 0 Z " fill="#F6A409" transform="translate(132,72)"/>
<path d="M0 0 C11.88 0 23.76 0 36 0 C36 2.64 36 5.28 36 8 C32.04 8 28.08 8 24 8 C24 15.26 24 22.52 24 30 C20.04 30 16.08 30 12 30 C12 22.74 12 15.48 12 8 C8.04 8 4.08 8 0 8 C0 5.36 0 2.72 0 0 Z " fill="#152F55" transform="translate(167,51)"/>
<path d="M0 0 C3.96 0 7.92 0 12 0 C12 7.59 12 15.18 12 23 C19.26 23 26.52 23 34 23 C34 25.31 34 27.62 34 30 C22.78 30 11.56 30 0 30 C0 20.1 0 10.2 0 0 Z " fill="#0D284F" transform="translate(383,51)"/>
<path d="M0 0 C15.26785714 -0.66964286 15.26785714 -0.66964286 18.8125 2.25 C21.84090293 6.05713512 23.40395178 8.51483586 22.875 13.4375 C22.2813361 17.63456574 21.19560785 20.0706928 18 23 C12.18602501 25.94287623 6.38168195 25.12892287 0 25 C0 16.75 0 8.5 0 0 Z " fill="#4982B3" transform="translate(306,103)"/>
<path d="M0 0 C0.33 0 0.66 0 1 0 C1.44524961 6.72821632 1.26066877 11.41338589 -2.17578125 17.2734375 C-3.24262973 19.1350204 -3.24262973 19.1350204 -2.75 22 C-2.5025 22.66 -2.255 23.32 -2 24 C5.53776436 24.48506553 10.88669046 22.93801354 17.8125 20.0625 C19.6516508 19.32249422 21.49146973 18.58414626 23.33203125 17.84765625 C24.13358643 17.51773682 24.9351416 17.18781738 25.76098633 16.84790039 C27.82825265 16.06503964 29.84575442 15.48491308 32 15 C30.60048029 18.45379351 29.25089301 19.7629218 25.96484375 21.47265625 C25.15466797 21.89740234 24.34449219 22.32214844 23.50976562 22.75976562 C22.66091797 23.18966797 21.81207031 23.61957031 20.9375 24.0625 C20.11572266 24.49626953 19.29394531 24.93003906 18.44726562 25.37695312 C11.13721793 29.15563238 3.99186129 32.4408808 -4.375 32.375 C-5.37273438 32.38273437 -6.37046875 32.39046875 -7.3984375 32.3984375 C-10 32 -10 32 -11.81640625 30.69140625 C-13.44784457 28.3600109 -13.58972489 26.23569733 -13.4765625 23.4375 C-11.76603016 14.68854771 -5.93546416 6.47505181 0 0 Z " fill="#2F95D6" transform="translate(35,99)"/>
<path d="M0 0 C1.62723299 0.45034123 3.25173664 0.91055354 4.875 1.375 C6.23238281 1.75785156 6.23238281 1.75785156 7.6171875 2.1484375 C10 3 10 3 12 5 C12 5.99 12 6.98 12 8 C13.32 8.33 14.64 8.66 16 9 C16 9.66 16 10.32 16 11 C16.66 11.33 17.32 11.66 18 12 C17.34 12.66 16.68 13.32 16 14 C16 14.33 16 14.66 16 15 C5.39273173 16.92859423 -5.32998872 15.96374295 -16 15 C-16 13.35 -16 11.7 -16 10 C-14.35 9.67 -12.7 9.34 -11 9 C-11 8.34 -11 7.68 -11 7 C-7.92884715 4.04696841 -5.1666604 3.47348414 -1 3 C-0.67 2.01 -0.34 1.02 0 0 Z " fill="#FDE4B6" transform="translate(71,57)"/>
<path d="M0 0 C0.515625 0.680625 1.03125 1.36125 1.5625 2.0625 C3.97254504 4.42428622 3.97254504 4.42428622 7.75 3.75 C8.8225 3.5025 9.895 3.255 11 3 C10.525625 3.5775 10.05125 4.155 9.5625 4.75 C8.03978893 6.94270395 7.53150499 8.4310592 7 11 C6.67 11.33 6.34 11.66 6 12 C6.66 12.66 7.32 13.32 8 14 C7.34 14.66 6.68 15.32 6 16 C6 16.99 6 17.98 6 19 C5.67 19.33 5.34 19.66 5 20 C4.63239269 22.32817964 4.29758419 24.6618385 4 27 C3.2575 26.360625 2.515 25.72125 1.75 25.0625 C-0.77969251 23.16523062 -2.03659527 22.6350153 -5 22 C-5.33 21.34 -5.66 20.68 -6 20 C-6.99 20 -7.98 20 -9 20 C-9.33 19.01 -9.66 18.02 -10 17 C-9.34 16.67 -8.68 16.34 -8 16 C-8.515625 15.608125 -9.03125 15.21625 -9.5625 14.8125 C-11 13 -11 13 -11 10.5625 C-9.68390812 7.19001455 -7.93927245 6.07085104 -5 4 C-4.071875 3.2575 -3.14375 2.515 -2.1875 1.75 C-1.1046875 0.88375 -1.1046875 0.88375 0 0 Z " fill="#0F2B51" transform="translate(107,99)"/>
<path d="M0 0 C3 1.5 3 1.5 5 3 C4.67 4.32 4.34 5.64 4 7 C3.505 6.835 3.01 6.67 2.5 6.5 C-1.18005012 5.76398998 -4.23108935 5.70088011 -8 6 C-10.71604627 8.2067876 -10.95162422 9.53559252 -11.3125 13 C-11.01034403 15.90069733 -10.60493878 17.59259183 -9 20 C-6.04335481 21.4783226 -3.25770263 21.06032783 0 21 C0.33 19.68 0.66 18.36 1 17 C-0.32 17 -1.64 17 -3 17 C-3 15.68 -3 14.36 -3 13 C-0.03 13 2.94 13 6 13 C6 16.63 6 20.26 6 24 C0.64187584 26.14324966 -3.31649281 27.04300754 -9 26 C-12.42997026 23.98527873 -15.2094342 21.5811316 -17 18 C-17.57031437 13.32529208 -17.43841751 9.87683502 -15.3125 5.625 C-10.80068126 0.50347603 -6.70150445 -1.05386562 0 0 Z " fill="#4F86B6" transform="translate(233,102)"/>
<path d="M0 0 C1.98 0 3.96 0 6 0 C6.33 6.93 6.66 13.86 7 21 C12.53920401 21.55685659 12.53920401 21.55685659 14.84301758 19.7644043 C16.24322637 17.6290785 16.42156933 16.31174495 16.51171875 13.76953125 C16.54716797 12.96708984 16.58261719 12.16464844 16.61914062 11.33789062 C16.64169922 10.50451172 16.66425781 9.67113281 16.6875 8.8125 C16.72166016 7.96751953 16.75582031 7.12253906 16.79101562 6.25195312 C16.87341471 4.16843351 16.93838645 2.08423784 17 0 C18.65 0 20.3 0 22 0 C22.08138426 2.87557703 22.14067851 5.74882262 22.1875 8.625 C22.21263672 9.43324219 22.23777344 10.24148437 22.26367188 11.07421875 C22.32520879 16.12024617 21.94606146 19.69676417 19 24 C15.59258408 26.4040051 12.25651518 26.47098959 8.19140625 26.390625 C4.63455929 25.75660593 3.09163284 23.81063162 1 21 C0.07811539 18.23434618 -0.11785222 16.61716298 -0.09765625 13.76953125 C-0.09282227 12.56586914 -0.09282227 12.56586914 -0.08789062 11.33789062 C-0.07951172 10.50451172 -0.07113281 9.67113281 -0.0625 8.8125 C-0.05798828 7.96751953 -0.05347656 7.12253906 -0.04882812 6.25195312 C-0.03705403 4.16793845 -0.0191189 2.08396023 0 0 Z " fill="#5389B7" transform="translate(251,102)"/>
<path d="M0 0 C1.90652344 0.17208984 1.90652344 0.17208984 3.8515625 0.34765625 C4.52131104 0.40759766 5.19105957 0.46753906 5.88110352 0.52929688 C11.10257415 1.10612804 14.16370779 2.59359807 18.4765625 5.41015625 C20.63064554 5.86000155 20.63064554 5.86000155 22.8515625 6.03515625 C24.0478125 6.15890625 25.2440625 6.28265625 26.4765625 6.41015625 C26.9715625 7.40015625 26.9715625 7.40015625 27.4765625 8.41015625 C24.1765625 8.41015625 20.8765625 8.41015625 17.4765625 8.41015625 C17.4765625 9.07015625 17.4765625 9.73015625 17.4765625 10.41015625 C19.4565625 10.41015625 21.4365625 10.41015625 23.4765625 10.41015625 C23.4765625 10.74015625 23.4765625 11.07015625 23.4765625 11.41015625 C8.65811733 11.63399983 -5.83903177 11.5350315 -20.5234375 9.41015625 C-17.22924141 7.62732852 -14.28440431 6.8846735 -10.62109375 6.265625 C-8.24321347 5.47511731 -8.24321347 5.47511731 -6.23046875 2.83984375 C-3.5234375 0.41015625 -3.5234375 0.41015625 0 0 Z " fill="#FDE1AD" transform="translate(79.5234375,44.58984375)"/>
<path d="M0 0 C5.61 0 11.22 0 17 0 C17 1.65 17 3.3 17 5 C13.37 5 9.74 5 6 5 C6 6.98 6 8.96 6 11 C8.64 11 11.28 11 14 11 C14 12.32 14 13.64 14 15 C11.36 15 8.72 15 6 15 C6 17.31 6 19.62 6 22 C9.63 22 13.26 22 17 22 C17 23.32 17 24.64 17 26 C11.39 26 5.78 26 0 26 C0 17.42 0 8.84 0 0 Z " fill="#578CB9" transform="translate(341,102)"/>
<path d="M0 0 C3.38005327 1.44859426 5.4587228 3.37330171 8 6 C-2.48787792 14.47833926 -13.62331494 21.77687022 -25 29 C-25.33 28.34 -25.66 27.68 -26 27 C-26.94875 27.495 -27.8975 27.99 -28.875 28.5 C-32 30 -32 30 -34 30 C-34 29.34 -34 28.68 -34 28 C-27.375 24.125 -27.375 24.125 -24 23 C-22.82244087 20.05610218 -22.96651304 19.10046087 -24 16 C-23.34 15.01 -22.68 14.02 -22 13 C-19.33333333 14.33333333 -16.66666667 15.66666667 -14 17 C-13.731875 16.360625 -13.46375 15.72125 -13.1875 15.0625 C-12 13 -12 13 -9 12 C-8.566875 11.1028125 -8.566875 11.1028125 -8.125 10.1875 C-6.6492147 7.31791746 -4.50142195 6.00113756 -2 4 C-0.68834743 1.88339573 -0.68834743 1.88339573 0 0 Z " fill="#2A8BCB" transform="translate(93,87)"/>
<path d="M0 0 C8 0 8 0 10.5 1.5 C12.59344124 4.98906873 12.88059943 8.09909901 12 12 C9.9375 15 9.9375 15 7 17 C4.69 17 2.38 17 0 17 C0 11.39 0 5.78 0 0 Z " fill="#F8FAFC" transform="translate(311,107)"/>
<path d="M0 0 C0.33 0 0.66 0 1 0 C1.01030746 0.68602798 1.02061493 1.37205597 1.03123474 2.07887268 C1.13959782 9.23309283 1.2541707 16.38719459 1.37231445 23.54125977 C1.41606326 26.20953188 1.45724938 28.87780855 1.49731445 31.54614258 C1.55524955 35.38631 1.61887692 39.22634786 1.68359375 43.06640625 C1.70030624 44.25520889 1.71701874 45.44401154 1.73423767 46.6688385 C1.8327164 52.20192091 2.02728558 57.54795297 3 63 C-0.375 63.125 -0.375 63.125 -4 63 C-4.66 62.34 -5.32 61.68 -6 61 C-5.79309916 57.34475177 -5.48894099 54.74801662 -3.4675293 51.65551758 C-1.70126669 48.45943734 -1.65337239 46.45513482 -1.70703125 42.82421875 C-1.71669922 41.66728516 -1.72636719 40.51035156 -1.73632812 39.31835938 C-1.76146484 38.12017578 -1.78660156 36.92199219 -1.8125 35.6875 C-1.83280273 33.8612207 -1.83280273 33.8612207 -1.85351562 31.99804688 C-1.88880739 28.99824655 -1.93811519 25.99935025 -2 23 C-2.66 22.67 -3.32 22.34 -4 22 C-2.68 21.34 -1.36 20.68 0 20 C0 13.4 0 6.8 0 0 Z " fill="#ADBBCB" transform="translate(37,61)"/>
<path d="M0 0 C0.33 0 0.66 0 1 0 C1 1.65 1 3.3 1 5 C5.04165139 5.02915731 9.0832755 5.04685173 13.125 5.0625 C14.26710938 5.07087891 15.40921875 5.07925781 16.5859375 5.08789062 C17.69453125 5.09111328 18.803125 5.09433594 19.9453125 5.09765625 C21.46922607 5.10551147 21.46922607 5.10551147 23.02392578 5.11352539 C26.09114726 4.99652309 28.98633134 4.56776417 32 4 C32.33 2.68 32.66 1.36 33 0 C40.55137932 -0.30071865 47.58856436 0.57374434 55 2 C55 2.33 55 2.66 55 3 C49.39 3.66 43.78 4.32 38 5 C38 5.33 38 5.66 38 6 C29.78242924 7.06346444 21.65139345 7.11790325 13.375 7.0625 C12.08464844 7.05798828 10.79429688 7.05347656 9.46484375 7.04882812 C6.30984625 7.03714295 3.15494863 7.02076044 0 7 C0 4.69 0 2.38 0 0 Z " fill="#F9C96D" transform="translate(54,67)"/>
<path d="M0 0 C1.65 0 3.3 0 5 0 C5 8.25 5 16.5 5 25 C3.35 25 1.7 25 0 25 C0 16.75 0 8.5 0 0 Z " fill="#447EB1" transform="translate(287,103)"/>
<path d="M0 0 C0.66 0.33 1.32 0.66 2 1 C1.18208984 1.80219971 1.18208984 1.80219971 0.34765625 2.62060547 C-2.10672254 5.03355351 -4.55342556 7.45414031 -7 9.875 C-8.28777344 11.13763672 -8.28777344 11.13763672 -9.6015625 12.42578125 C-10.41367188 13.23144531 -11.22578125 14.03710938 -12.0625 14.8671875 C-12.81660156 15.61081543 -13.57070312 16.35444336 -14.34765625 17.12060547 C-16.22009491 18.83325987 -16.22009491 18.83325987 -16 21 C-16.99 21 -17.98 21 -19 21 C-19.20367187 21.54140625 -19.40734375 22.0828125 -19.6171875 22.640625 C-21.55312808 25.94375526 -24.28699336 28.24122847 -27.125 30.75 C-27.68832031 31.25660156 -28.25164062 31.76320312 -28.83203125 32.28515625 C-30.21651531 33.52884532 -31.60761488 34.76516305 -33 36 C-34.32 35.34 -35.64 34.68 -37 34 C-33.97369862 30.77194519 -30.79070243 27.98874207 -27.3125 25.25 C-17.53729366 17.51069335 -8.73475676 8.86983032 0 0 Z " fill="#4A7AA0" transform="translate(101,98)"/>
<path d="M0 0 C0.66 1.32 1.32 2.64 2 4 C0.4840625 4.061875 0.4840625 4.061875 -1.0625 4.125 C-4.4414126 4.57370872 -6.04326997 5.67139875 -8.5 8 C-11.95340528 11.27329571 -14.29427342 11.80792953 -19 12 C-19.125 8.625 -19.125 8.625 -19 5 C-18.34 4.34 -17.68 3.68 -17 3 C-14.73725212 3.35355436 -13.04911148 3.97544426 -11 5 C-10.67 4.01 -10.34 3.02 -10 2 C-6.75515269 -0.28341107 -3.87540045 -0.17615457 0 0 Z " fill="#FCBE49" transform="translate(81,41)"/>
<path d="M0 0 C-2 2 -2 2 -5 3 C-3.68 3.66 -2.36 4.32 -1 5 C-3.9826906 6.52448631 -6.818202 7.93940067 -10 9 C-10 9.66 -10 10.32 -10 11 C-11.98 11.33 -13.96 11.66 -16 12 C-15.85892253 10.54119891 -15.71197585 9.08296449 -15.5625 7.625 C-15.48128906 6.81289063 -15.40007813 6.00078125 -15.31640625 5.1640625 C-15 3 -15 3 -14 1 C-9.45906828 -0.41904116 -4.7056901 -0.09226843 0 0 Z " fill="#F6A711" transform="translate(70,55)"/>
<path d="M0 0 C0.66 0.33 1.32 0.66 2 1 C1.4740625 2.175625 1.4740625 2.175625 0.9375 3.375 C0.628125 4.24125 0.31875 5.1075 0 6 C0.33 6.66 0.66 7.32 1 8 C0.5 9.9375 0.5 9.9375 -1 12 C-4.28443398 13.6123585 -7.53291282 14.84430427 -11 16 C-11.33 16.99 -11.66 17.98 -12 19 C-14.0625 19.6875 -14.0625 19.6875 -16 20 C-16.625 17.125 -16.625 17.125 -17 14 C-16.34 13.34 -15.68 12.68 -15 12 C-14.67 12.66 -14.34 13.32 -14 14 C-12.08533633 13.87822312 -12.08533633 13.87822312 -10 13 C-8.39092892 10.62387135 -8.39092892 10.62387135 -7 8 C-6.02149805 6.97895449 -5.02019573 5.9793879 -4 5 C-2.65263027 3.34466005 -1.31665664 1.67987227 0 0 Z " fill="#173051" transform="translate(70,99)"/>
<path d="M0 0 C0.66 0 1.32 0 2 0 C1.48173876 4.00312134 -0.29836316 5.51539738 -3.375 8 C-11.87617772 14.49378725 -20.43564804 16.59132101 -31 17 C-31.33 15.02 -31.66 13.04 -32 11 C-30.0625 11.3125 -30.0625 11.3125 -28 12 C-27.67 12.99 -27.34 13.98 -27 15 C-11.53488198 10.63451766 -11.53488198 10.63451766 0 0 Z " fill="#1C385F" transform="translate(123,130)"/>
<path d="M0 0 C4.62 0 9.24 0 14 0 C14.33 1.65 14.66 3.3 15 5 C11.71480525 6.09506492 9.26336585 6.09960608 5.8125 6.0625 C4.18248047 6.04896484 4.18248047 6.04896484 2.51953125 6.03515625 C1.68808594 6.02355469 0.85664063 6.01195313 0 6 C0 4.02 0 2.04 0 0 Z " fill="#FBFCFC" transform="translate(219,59)"/>
<path d="M0 0 C1.8133922 3.20010388 2.52213974 6.13283843 3.125 9.75 C3.29257812 10.73484375 3.46015625 11.7196875 3.6328125 12.734375 C3.81457031 13.85585937 3.81457031 13.85585937 4 15 C0.625 15.125 0.625 15.125 -3 15 C-3.66 14.34 -4.32 13.68 -5 13 C-4.78476665 7.40393298 -3.27082508 4.32592994 0 0 Z " fill="#FAFBFC" transform="translate(36,109)"/>
<path d="M0 0 C3.16115776 1.36983503 3.9927092 1.9890638 6 5 C5.83178711 7.05371094 5.83178711 7.05371094 5 9 C2.52445383 10.60165207 0.18430668 11.94272797 -2.4375 13.25 C-3.47874023 13.79527344 -3.47874023 13.79527344 -4.54101562 14.3515625 C-9.68356438 17 -9.68356438 17 -12 17 C-12 16.34 -12 15.68 -12 15 C-5.375 11.125 -5.375 11.125 -2 10 C-0.82244087 7.05610218 -0.96651304 6.10046087 -2 3 C-1.34 2.01 -0.68 1.02 0 0 Z " fill="#3B74A5" transform="translate(71,100)"/>
<path d="M0 0 C0.99 0.99 1.98 1.98 3 3 C-1.31894458 8.53710844 -5.80258732 12.61621268 -12 16 C-12.66 16 -13.32 16 -14 16 C-14.33 14.68 -14.66 13.36 -15 12 C-14.01 12.33 -13.02 12.66 -12 13 C-11.731875 12.360625 -11.46375 11.72125 -11.1875 11.0625 C-10 9 -10 9 -7 8 C-6.71125 7.401875 -6.4225 6.80375 -6.125 6.1875 C-4.64462682 3.30899659 -2.57721429 1.89900001 0 0 Z " fill="#152F52" transform="translate(91,91)"/>
<path d="M0 0 C3.36591866 1.44253657 5.51047079 3.33264727 8 6 C5.69 7.65 3.38 9.3 1 11 C1 10.01 1 9.02 1 8 C0.34 7.34 -0.32 6.68 -1 6 C-0.625 2.875 -0.625 2.875 0 0 Z " fill="#305D82" transform="translate(93,87)"/>
<path d="M0 0 C3.75376152 1.25125384 4.24073289 2.5652404 6 6 C6 6.66 6 7.32 6 8 C2.7 8 -0.6 8 -4 8 C-2.68 5.36 -1.36 2.72 0 0 Z " fill="#E9EBEF" transform="translate(271,61)"/>
<path d="M0 0 C0 0.33 0 0.66 0 1 C-1.35931641 1.05607422 -1.35931641 1.05607422 -2.74609375 1.11328125 C-10.04520269 1.50720141 -16.1988907 2.30300838 -23 5 C-22.625 3.078125 -22.625 3.078125 -22 1 C-15.72765091 -2.92021818 -6.92931344 -1.00790014 0 0 Z " fill="#2A3A4D" transform="translate(98,28)"/>
<path d="M0 0 C0.66 0.33 1.32 0.66 2 1 C1.57847656 1.42410156 1.15695313 1.84820312 0.72265625 2.28515625 C-3.23246072 6.51945795 -4.7628617 9.19011172 -5 15 C-6.98 15.66 -8.96 16.32 -11 17 C-5.03416856 4.14578588 -5.03416856 4.14578588 0 0 Z " fill="#EA9F11" transform="translate(67,38)"/>
<path d="M0 0 C0.33 0 0.66 0 1 0 C1 8.91 1 17.82 1 27 C0.34 27 -0.32 27 -1 27 C-1.12375 26.360625 -1.2475 25.72125 -1.375 25.0625 C-1.58125 24.381875 -1.7875 23.70125 -2 23 C-2.66 22.67 -3.32 22.34 -4 22 C-2.68 21.34 -1.36 20.68 0 20 C0 13.4 0 6.8 0 0 Z " fill="#BFBAAF" transform="translate(37,61)"/>
<path d="M0 0 C0.66 0.66 1.32 1.32 2 2 C1.278125 2.84304687 0.55625 3.68609375 -0.1875 4.5546875 C-1.12525692 5.66124066 -2.06274294 6.76802342 -3 7.875 C-3.47695312 8.43058594 -3.95390625 8.98617187 -4.4453125 9.55859375 C-7.13104151 12.38878921 -7.13104151 12.38878921 -8 16 C-9.32 15.67 -10.64 15.34 -12 15 C-11.13375 14.01 -10.2675 13.02 -9.375 12 C-6.05802459 8.13809292 -3.00716738 4.10552994 0 0 Z " fill="#C1891A" transform="translate(113,81)"/>
<path d="M0 0 C0.66 0 1.32 0 2 0 C1.34728444 3.51705958 0.48606976 6.89325077 -0.5625 10.3125 C-0.83191406 11.19550781 -1.10132813 12.07851563 -1.37890625 12.98828125 C-1.58386719 13.65214844 -1.78882813 14.31601562 -2 15 C-2.66 14.34 -3.32 13.68 -4 13 C-3.71202618 8.00845374 -2.43490415 4.34048131 0 0 Z " fill="#273A52" transform="translate(57,47)"/>
<path d="M0 0 C1.62723299 0.45034123 3.25173664 0.91055354 4.875 1.375 C5.77992187 1.63023438 6.68484375 1.88546875 7.6171875 2.1484375 C10 3 10 3 12 5 C11.67 5.99 11.34 6.98 11 8 C11 7.34 11 6.68 11 6 C10.21625 6.04125 9.4325 6.0825 8.625 6.125 C6 6 6 6 4 4 C1.42938689 3.35232207 1.42938689 3.35232207 -1 3 C-0.67 2.01 -0.34 1.02 0 0 Z " fill="#FDD893" transform="translate(71,57)"/>
<path d="M0 0 C5.04395895 3.51548654 8.37975847 8.11736877 12 13 C11.01 13.33 10.02 13.66 9 14 C7 12 7 12 5 9 C3.67945725 7.20326153 2.35455044 5.41001721 1.0234375 3.62109375 C0 2 0 2 0 0 Z " fill="#1E3856" transform="translate(118,103)"/>
<path d="M0 0 C0.66 0.33 1.32 0.66 2 1 C1.01 1.66 0.02 2.32 -1 3 C-0.67 2.01 -0.34 1.02 0 0 Z M-2 3 C-1.67 3.99 -1.34 4.98 -1 6 C-2.9375 8.6875 -2.9375 8.6875 -5 11 C-5.33 10.01 -5.66 9.02 -6 8 C-4.0625 5.3125 -4.0625 5.3125 -2 3 Z " fill="#1C3456" transform="translate(64,37)"/>
<path d="M0 0 C0.66 0.33 1.32 0.66 2 1 C-0.64 3.64 -3.28 6.28 -6 9 C-6.66 8.67 -7.32 8.34 -8 8 C-8 7.34 -8 6.68 -8 6 C-6.25 4.4921875 -6.25 4.4921875 -4 2.875 C-3.2575 2.33617188 -2.515 1.79734375 -1.75 1.2421875 C-1.1725 0.83226563 -0.595 0.42234375 0 0 Z " fill="#29445B" transform="translate(109,85)"/>
<path d="M0 0 C1.32 0.66 2.64 1.32 4 2 C4 3.32 4 4.64 4 6 C2.0625 5.6875 2.0625 5.6875 0 5 C-0.33 4.01 -0.66 3.02 -1 2 C-0.67 1.34 -0.34 0.68 0 0 Z " fill="#42739C" transform="translate(94,88)"/>
<path d="M0 0 C0.66 0.33 1.32 0.66 2 1 C-0.57784846 3.64752004 -2.91648098 5.94432065 -6 8 C-4.55746343 4.63408134 -2.66735273 2.48952921 0 0 Z " fill="#2D75AC" transform="translate(93,95)"/>
<path d="M0 0 C0.99 0.99 1.98 1.98 3 3 C2.67 3.99 2.34 4.98 2 6 C1.01 6 0.02 6 -1 6 C-0.67 4.02 -0.34 2.04 0 0 Z " fill="#386E9F" transform="translate(107,101)"/>
</svg>
