<?xml version="1.0" encoding="UTF-8"?>
<svg version="1.1" xmlns="http://www.w3.org/2000/svg" width="345" height="174">
<path d="M0 0 C113.85 0 227.7 0 345 0 C345 57.42 345 114.84 345 174 C231.15 174 117.3 174 0 174 C0 116.58 0 59.16 0 0 Z " fill="#FEFEFE" transform="translate(0,0)"/>
<path d="M0 0 C2.87524115 1.6930354 5.65092062 3.33448119 8.30859375 5.359375 C9.76265625 6.41125 9.76265625 6.41125 11.24609375 7.484375 C16.05938252 11.55911682 20.31696504 17.38448886 22.30859375 23.359375 C26.9506453 22.9033138 28.65776169 21.31122674 31.68359375 17.859375 C36.50252535 12.78257415 36.50252535 12.78257415 40.30859375 12.234375 C43.30859375 12.359375 43.30859375 12.359375 44.30859375 13.359375 C44.80859375 15.921875 44.80859375 15.921875 44.30859375 19.359375 C41.78688366 23.03109573 38.90072693 26.35291939 35.12109375 28.7421875 C33.05362275 30.27150928 33.05362275 30.27150928 32.69921875 33.05859375 C32.6528125 34.04472656 32.60640625 35.03085937 32.55859375 36.046875 C32.47351563 37.53767578 32.47351563 37.53767578 32.38671875 39.05859375 C32.3609375 39.81785156 32.33515625 40.57710937 32.30859375 41.359375 C32.96859375 41.359375 33.62859375 41.359375 34.30859375 41.359375 C33.64859375 44.989375 32.98859375 48.619375 32.30859375 52.359375 C32.96859375 52.359375 33.62859375 52.359375 34.30859375 52.359375 C33.97859375 56.979375 33.64859375 61.599375 33.30859375 66.359375 C31.82359375 66.854375 31.82359375 66.854375 30.30859375 67.359375 C29.31859375 63.399375 28.32859375 59.439375 27.30859375 55.359375 C27.30448486 56.21990479 27.30037598 57.08043457 27.29614258 57.96704102 C26.9664255 97.36163764 26.9664255 97.36163764 12.57421875 113.27734375 C10.5939546 115.1941379 8.56014078 116.76917347 6.30859375 118.359375 C4.95121094 119.34164062 4.95121094 119.34164062 3.56640625 120.34375 C-4.29641741 125.14987693 -11.26203332 126.00447449 -20.44140625 126.046875 C-21.49448975 126.05388428 -22.54757324 126.06089355 -23.63256836 126.06811523 C-38.16020431 125.73121935 -47.40584743 118.97954502 -57.22265625 108.8984375 C-57.9496875 108.13660156 -57.9496875 108.13660156 -58.69140625 107.359375 C-57.69140625 104.359375 -57.69140625 104.359375 -55.91796875 103.4140625 C-53.69140625 103.359375 -53.69140625 103.359375 -51.46484375 105.0546875 C-50.67335937 105.85648437 -49.881875 106.65828125 -49.06640625 107.484375 C-40.02796531 116.05622976 -29.92327461 119.94440393 -17.4921875 119.734375 C-7.10589515 118.70962262 1.79094012 114.51978476 9.30859375 107.359375 C9.870625 106.83730469 10.43265625 106.31523437 11.01171875 105.77734375 C22.12843505 94.23953971 21.08344959 79.52102381 21.12109375 64.609375 C21.14427102 62.4478918 21.16964298 60.28643096 21.19726562 58.125 C21.2596979 52.86978213 21.29496808 47.6149343 21.30859375 42.359375 C18.0587624 43.44722468 18.0587624 43.44722468 15.30859375 45.359375 C15.20997634 48.10174175 15.1714461 50.82347211 15.16796875 53.56640625 C15.1496122 55.28582023 15.13003935 57.00522158 15.109375 58.72460938 C15.08063154 61.43209691 15.05859979 64.13878653 15.05810547 66.84643555 C15.04147245 79.71207319 14.48987887 91.91826877 5.109375 101.83203125 C-4.92704605 110.34448381 -14.79040085 112.21944203 -27.69140625 111.359375 C-35.76653956 109.94830178 -43.09573651 105.27178076 -48.69140625 99.359375 C-48.05976562 99.00488281 -47.428125 98.65039062 -46.77734375 98.28515625 C-38.6172874 93.42909966 -32.12362554 87.42257367 -25.31347656 80.86694336 C-23.72414467 79.38980242 -22.08788263 78.00719319 -20.40625 76.63671875 C-17.59732388 74.45301351 -17.59732388 74.45301351 -15.56640625 71.546875 C-14.94765625 70.825 -14.32890625 70.103125 -13.69140625 69.359375 C-12.37140625 69.359375 -11.05140625 69.359375 -9.69140625 69.359375 C-9.69140625 70.019375 -9.69140625 70.679375 -9.69140625 71.359375 C-6.92162375 73.1320358 -5.71144882 73.36106082 -2.34765625 73.078125 C1.30859375 73.359375 1.30859375 73.359375 3.9609375 75.765625 C5.09208984 77.29703125 5.09208984 77.29703125 6.24609375 78.859375 C7.01824219 79.8803125 7.79039063 80.90125 8.5859375 81.953125 C9.15441406 82.7471875 9.72289063 83.54125 10.30859375 84.359375 C12.31362884 82.35433991 11.56448038 78.35912056 11.625 75.60546875 C11.65617165 74.44229881 11.65617165 74.44229881 11.68797302 73.25563049 C11.75355177 70.76947192 11.81239174 68.28320455 11.87109375 65.796875 C11.91427108 64.11522296 11.95788511 62.43358206 12.00195312 60.75195312 C12.10924154 56.62120629 12.21048507 52.49034964 12.30859375 48.359375 C11.15319868 49.11185788 10.00704312 49.87854072 8.86499023 50.65112305 C8.22577133 51.07652878 7.58655243 51.50193451 6.92796326 51.94023132 C4.96970171 53.39218058 4.96970171 53.39218058 4.40625 56.69140625 C4.39464844 57.83996094 4.38304688 58.98851562 4.37109375 60.171875 C4.32662109 61.91404297 4.32662109 61.91404297 4.28125 63.69140625 C4.29027344 64.57183594 4.29929687 65.45226562 4.30859375 66.359375 C3.64859375 66.359375 2.98859375 66.359375 2.30859375 66.359375 C2.06367187 65.70710938 1.81875 65.05484375 1.56640625 64.3828125 C-1.61400384 56.94723304 -5.46083267 53.81320238 -12.69140625 50.359375 C-12.19640625 49.369375 -12.19640625 49.369375 -11.69140625 48.359375 C-10.44037109 48.51599609 -10.44037109 48.51599609 -9.1640625 48.67578125 C-4.11149984 49.04039917 -0.24114787 49.30948907 4.17578125 46.6015625 C7.83950463 43.14853248 9.98953335 40.48547052 11.37109375 35.609375 C10.03422601 31.52013251 8.58402452 30.50043632 4.88671875 28.4921875 C0.14901671 26.41046994 -4.73686184 24.83748075 -9.69140625 23.359375 C-9.69140625 22.369375 -9.69140625 21.379375 -9.69140625 20.359375 C-5.73140625 20.359375 -1.77140625 20.359375 2.30859375 20.359375 C-6.33708375 14.08428649 -14.79063151 10.03410958 -25.69140625 11.359375 C-34.32592572 12.87588079 -40.97212706 16.77996272 -46.515625 23.60546875 C-51.8966168 31.33168701 -52.99816979 37.9645198 -53.10546875 47.2265625 C-53.1248349 48.26128693 -53.14420105 49.29601135 -53.16415405 50.36209106 C-53.22372467 53.65276967 -53.2702453 56.94348368 -53.31640625 60.234375 C-53.35460673 62.47136905 -53.39365966 64.70834872 -53.43359375 66.9453125 C-53.52940763 72.41653858 -53.61452056 77.88785195 -53.69140625 83.359375 C-53.03140625 83.359375 -52.37140625 83.359375 -51.69140625 83.359375 C-51.36140625 82.699375 -51.03140625 82.039375 -50.69140625 81.359375 C-49.70140625 81.029375 -48.71140625 80.699375 -47.69140625 80.359375 C-45.79842555 78.27192528 -45.79842555 78.27192528 -44.00390625 75.796875 C-43.38128906 74.97058594 -42.75867187 74.14429687 -42.1171875 73.29296875 C-41.64667969 72.65488281 -41.17617188 72.01679687 -40.69140625 71.359375 C-37.61394717 72.57402717 -34.62963821 73.83584732 -31.69140625 75.359375 C-31.60761719 74.7715625 -31.52382812 74.18375 -31.4375 73.578125 C-30.47530817 70.71673778 -29.09962036 69.72576597 -26.75390625 67.859375 C-23.87194524 65.55799053 -22.12517584 63.78240607 -20.69140625 60.359375 C-19.82515625 60.8234375 -19.82515625 60.8234375 -18.94140625 61.296875 C-15.93470154 62.78273849 -15.93470154 62.78273849 -12.69140625 63.359375 C-9.93883831 61.50773464 -9.93883831 61.50773464 -7.69140625 59.359375 C-7.03140625 59.689375 -6.37140625 60.019375 -5.69140625 60.359375 C-11.16152784 65.94345745 -16.68340532 71.35595864 -22.69140625 76.359375 C-23.21476562 76.79652832 -23.738125 77.23368164 -24.27734375 77.68408203 C-59.81445969 107.20950253 -59.81445969 107.20950253 -81.69140625 105.359375 C-85.4317081 103.75638849 -86.4229909 102.76199802 -88.69140625 99.359375 C-90.01899803 88.92829674 -84.49032877 79.77252028 -78.46484375 71.62890625 C-75.96145819 68.42523442 -73.47018873 65.33202602 -70.69140625 62.359375 C-70.03140625 62.359375 -69.37140625 62.359375 -68.69140625 62.359375 C-68.58253118 65.04798431 -68.50370031 67.73210658 -68.44140625 70.421875 C-68.39113281 71.55012695 -68.39113281 71.55012695 -68.33984375 72.70117188 C-68.23963938 78.4879745 -69.62383659 81.49021681 -72.69140625 86.359375 C-72.5783054 89.19955887 -72.5783054 89.19955887 -71.69140625 91.359375 C-70.04140625 91.689375 -68.39140625 92.019375 -66.69140625 92.359375 C-66.8507666 91.61115479 -67.01012695 90.86293457 -67.17431641 90.09204102 C-68.36733984 81.48007916 -67.99854094 72.65706753 -68.04150391 63.97680664 C-68.05802132 61.53595416 -68.08525496 59.0951492 -68.12353516 56.65454102 C-68.39724556 39.07876296 -68.3914013 24.82596934 -55.69140625 11.359375 C-50.0330946 5.55354684 -44.2018793 1.43998239 -36.69140625 -1.640625 C-35.81097656 -2.00542969 -34.93054687 -2.37023437 -34.0234375 -2.74609375 C-23.22674603 -5.64461936 -9.96772189 -5.03334609 0 0 Z " fill="#142E53" transform="translate(98.69140625,25.640625)"/>
<path d="M0 0 C3.77105705 2.60461409 3.77105705 2.60461409 4.9375 4.9375 C0.6475 4.9375 -3.6425 4.9375 -8.0625 4.9375 C-5.59483749 7.40516251 -3.64220639 7.81027494 -0.3125 8.8125 C4.78021775 10.44485971 9.09566387 12.09566387 12.9375 15.9375 C13.34656032 20.003461 13.34079206 22.26838112 11.20703125 25.80859375 C4.68052218 32.62563105 4.68052218 32.62563105 -0.62109375 33.57421875 C-3.8281189 33.56368088 -6.88873725 33.38520948 -10.0625 32.9375 C-9.38703125 33.35 -8.7115625 33.7625 -8.015625 34.1875 C-1.90066102 38.14632061 1.37808132 41.07360446 3.9375 47.9375 C3.9375 48.5975 3.9375 49.2575 3.9375 49.9375 C4.5975 49.9375 5.2575 49.9375 5.9375 49.9375 C5.83308594 48.61685547 5.83308594 48.61685547 5.7265625 47.26953125 C5.29193329 37.94569986 5.29193329 37.94569986 7.203125 34.9609375 C9.34585291 33.18226531 11.09185407 31.9375 13.9375 31.9375 C13.9868651 36.88540177 14.02320269 41.83316083 14.04736328 46.78125 C14.05743317 48.46519466 14.07108988 50.14912179 14.08837891 51.83300781 C14.11258426 54.25069501 14.12397296 56.66815143 14.1328125 59.0859375 C14.14313507 59.8411972 14.15345764 60.59645691 14.16409302 61.37460327 C14.16449318 63.2304398 14.05972716 65.0856928 13.9375 66.9375 C13.2775 67.5975 12.6175 68.2575 11.9375 68.9375 C11.36902344 68.1434375 10.80054687 67.349375 10.21484375 66.53125 C9.44269531 65.5103125 8.67054687 64.489375 7.875 63.4375 C6.74384766 61.90609375 6.74384766 61.90609375 5.58984375 60.34375 C3.0804453 57.56901924 3.0804453 57.56901924 -0.71875 57.6796875 C-1.8221875 57.76476562 -2.925625 57.84984375 -4.0625 57.9375 C-6.5 56.5625 -6.5 56.5625 -8.0625 54.9375 C-8.0625 54.2775 -8.0625 53.6175 -8.0625 52.9375 C-12.96938393 54.12704762 -15.09912348 57.09997162 -18.1953125 60.80078125 C-21.17875823 64.21489174 -24.58483217 67.04140162 -28.0625 69.9375 C-29.0525 70.76894531 -30.0425 71.60039063 -31.0625 72.45703125 C-35.68958116 76.33406206 -40.33751564 80.1799713 -45.0625 83.9375 C-34.04094724 92.5813066 -25.19857554 95.19839871 -11.0625 93.9375 C-2.81998508 91.61958242 4.26382219 87.9772947 9.0625 80.6875 C9.53945312 79.98109375 10.01640625 79.2746875 10.5078125 78.546875 C14.18401571 71.83730194 15.37212391 66.26596412 15.34375 58.73046875 C15.36000427 57.45965202 15.36000427 57.45965202 15.37658691 56.16316223 C15.42216533 52.57114806 15.43399631 48.97921474 15.44873047 45.38696289 C15.46438423 42.75120144 15.49734843 40.11604826 15.53125 37.48046875 C15.52671814 36.2617231 15.52671814 36.2617231 15.52209473 35.01835632 C15.59734322 29.4012883 15.59734322 29.4012883 17.21154785 27.20039368 C18.9375 25.9375 18.9375 25.9375 22.9375 25.9375 C23.06539222 32.26865807 23.15230336 38.59947717 23.2121582 44.93164062 C23.23713783 47.08085579 23.27113366 49.22998745 23.31469727 51.37890625 C23.85195971 78.58334809 23.85195971 78.58334809 13.6875 89.3125 C4.58393076 98.67102917 -5.80316533 103.95746346 -19 104.5 C-32.65677248 104.03323049 -42.75414123 97.4830144 -52.0625 87.9375 C-52.73796875 88.21335937 -53.4134375 88.48921875 -54.109375 88.7734375 C-74.74168382 96.90627881 -74.74168382 96.90627881 -84.875 93.75 C-88.4802427 91.69996004 -90.1397971 90.62908958 -92.0625 86.9375 C-93.2814607 79.15877139 -91.56618334 72.84059038 -88.0625 65.9375 C-87.588125 65.00164062 -87.11375 64.06578125 -86.625 63.1015625 C-81.90254382 54.45129421 -75.39610619 44.49323746 -67.0625 38.9375 C-66.75 42.1875 -66.75 42.1875 -67.0625 45.9375 C-69.125 47.75 -69.125 47.75 -72.0625 49.9375 C-79.70003976 59.50617168 -87.08158098 70.30089586 -86.0625 82.9375 C-84.31996655 86.17363354 -83.59064056 86.76145315 -80.0625 87.9375 C-61.31096109 90.22427304 -43.93117206 76.88319635 -29.83203125 65.96484375 C-25.53548138 62.56201088 -21.47882191 58.95347138 -17.48046875 55.203125 C-14.53929645 52.44726081 -11.49371062 49.82780964 -8.42578125 47.21484375 C-7.97589844 46.79332031 -7.52601562 46.37179688 -7.0625 45.9375 C-7.0625 45.6075 -7.0625 45.2775 -7.0625 44.9375 C-7.92875 45.7109375 -7.92875 45.7109375 -8.8125 46.5 C-11.0625 47.9375 -11.0625 47.9375 -13.0625 47.8125 C-15.35650986 46.80887069 -17.13220438 45.52309997 -19.0625 43.9375 C-19.31 44.72125 -19.5575 45.505 -19.8125 46.3125 C-21.27174503 49.37691457 -22.11264956 49.55475761 -25.0625 50.9375 C-26.33054566 52.9710948 -26.33054566 52.9710948 -27.0625 54.9375 C-27.7225 54.9375 -28.3825 54.9375 -29.0625 54.9375 C-29.3925 56.2575 -29.7225 57.5775 -30.0625 58.9375 C-33.21231186 58.23754181 -36.07826614 57.15494864 -39.0625 55.9375 C-39.58199219 56.64777344 -40.10148437 57.35804687 -40.63671875 58.08984375 C-41.68279297 59.46849609 -41.68279297 59.46849609 -42.75 60.875 C-43.43449219 61.79152344 -44.11898437 62.70804687 -44.82421875 63.65234375 C-47.35963844 66.24086124 -48.58708863 66.4115326 -52.0625 66.9375 C-52.16455759 60.42722073 -52.23423938 53.91715045 -52.28222656 47.40625 C-52.30224747 45.19490855 -52.32947259 42.98361942 -52.36425781 40.77246094 C-52.41319627 37.57994622 -52.43556467 34.38813604 -52.453125 31.1953125 C-52.47377014 30.21885773 -52.49441528 29.24240295 -52.51568604 28.23635864 C-52.51896085 18.04503022 -49.27868872 10.28389929 -42.2734375 2.9140625 C-29.89352726 -8.15348977 -13.72667717 -8.89732324 0 0 Z " fill="#EBA112" transform="translate(97.0625,42.0625)"/>
<path d="M0 0 C4.51197552 3.23344498 8.7085173 6.96548142 12.25 11.25 C12.25 11.91 12.25 12.57 12.25 13.25 C9.16190305 15.01462683 8.01687864 15.25 4.25 15.25 C4.25 14.26 4.25 13.27 4.25 12.25 C3.67636719 12.14429687 3.10273437 12.03859375 2.51171875 11.9296875 C-0.09266771 11.14702214 -1.74748169 9.97861996 -3.9375 8.375 C-12.45709184 2.61215414 -20.48664125 1.14990795 -30.75 2.25 C-40.16661014 4.50676249 -48.04938779 10.06385513 -53.1875 18.25 C-57.49409674 25.70985989 -58.04351597 32.4616494 -57.98046875 40.890625 C-57.98001053 41.89462341 -57.97955231 42.89862183 -57.9790802 43.93304443 C-57.9760716 46.04424225 -57.96822726 48.15543812 -57.95581055 50.26660156 C-57.93748112 53.50333477 -57.93530159 56.73978264 -57.93554688 59.9765625 C-57.93063379 62.03125248 -57.92480639 64.08594052 -57.91796875 66.140625 C-57.91685593 67.10937561 -57.9157431 68.07812622 -57.91459656 69.07623291 C-57.90821671 69.97436707 -57.90183685 70.87250122 -57.89526367 71.79785156 C-57.89145187 72.58726135 -57.88764008 73.37667114 -57.88371277 74.19000244 C-57.82466158 76.44953985 -57.82466158 76.44953985 -56.75 79.25 C-55.76 79.58 -54.77 79.91 -53.75 80.25 C-53.255 78.765 -53.255 78.765 -52.75 77.25 C-50.97265625 76.3984375 -50.97265625 76.3984375 -48.8125 75.625 C-46.05267958 74.370985 -44.99292953 73.81390872 -43.77734375 70.9921875 C-43.15195935 68.22388501 -43.15195935 68.22388501 -42.75 64.25 C-40.11 65.57 -37.47 66.89 -34.75 68.25 C-34.255 66.27 -34.255 66.27 -33.75 64.25 C-31.97265625 62.46875 -31.97265625 62.46875 -29.8125 60.75 C-26.93053899 58.44861553 -25.18376959 56.67303107 -23.75 53.25 C-23.1725 53.559375 -22.595 53.86875 -22 54.1875 C-18.99329529 55.67336349 -18.99329529 55.67336349 -15.75 56.25 C-12.99743206 54.39835964 -12.99743206 54.39835964 -10.75 52.25 C-10.09 52.58 -9.43 52.91 -8.75 53.25 C-14.22012159 58.83408245 -19.74199907 64.24658364 -25.75 69.25 C-26.27335937 69.68715332 -26.79671875 70.12430664 -27.3359375 70.57470703 C-62.87305344 100.10012753 -62.87305344 100.10012753 -84.75 98.25 C-88.49030185 96.64701349 -89.48158465 95.65262302 -91.75 92.25 C-93.07759178 81.81892174 -87.54892252 72.66314528 -81.5234375 64.51953125 C-79.02005194 61.31585942 -76.52878248 58.22265102 -73.75 55.25 C-73.09 55.25 -72.43 55.25 -71.75 55.25 C-71.64112493 57.93860931 -71.56229406 60.62273158 -71.5 63.3125 C-71.44972656 64.44075195 -71.44972656 64.44075195 -71.3984375 65.59179688 C-71.29823313 71.3785995 -72.68243034 74.38084181 -75.75 79.25 C-75.63689915 82.09018387 -75.63689915 82.09018387 -74.75 84.25 C-73.1 84.58 -71.45 84.91 -69.75 85.25 C-69.42 84.59 -69.09 83.93 -68.75 83.25 C-67.43 83.58 -66.11 83.91 -64.75 84.25 C-64.91008545 83.32219727 -65.0701709 82.39439453 -65.23510742 81.43847656 C-65.95238884 76.38341062 -65.95066749 71.33230815 -65.98828125 66.234375 C-65.996353 65.18276184 -66.00442474 64.13114868 -66.01274109 63.04766846 C-66.02652529 60.82883322 -66.03727257 58.60997729 -66.04516602 56.39111328 C-66.05668573 54.13746868 -66.07713722 51.88385137 -66.10668945 49.63037109 C-66.14961303 46.3523529 -66.16556815 43.07514023 -66.17578125 39.796875 C-66.19328934 38.80379333 -66.21079742 37.81071167 -66.22883606 36.78753662 C-66.19093398 24.38148793 -61.28931743 14.22436558 -52.87109375 5.24609375 C-37.97282683 -8.68905288 -17.31737965 -10.85301533 0 0 Z " fill="#A8BDD6" transform="translate(101.75,32.75)"/>
<path d="M0 0 C3.77105705 2.60461409 3.77105705 2.60461409 4.9375 4.9375 C0.6475 4.9375 -3.6425 4.9375 -8.0625 4.9375 C-5.59483749 7.40516251 -3.64220639 7.81027494 -0.3125 8.8125 C4.78021775 10.44485971 9.09566387 12.09566387 12.9375 15.9375 C13.38331969 20.11705956 13.38725928 22.26009617 11.03125 25.80859375 C3.16661312 33.5903203 3.16661312 33.5903203 -1.125 33.625 C-3.0740625 33.2846875 -3.0740625 33.2846875 -5.0625 32.9375 C-6.7283473 32.76283369 -8.39505403 32.59618051 -10.0625 32.4375 C-11.39638058 32.27527128 -12.7299398 32.11023929 -14.0625 31.9375 C-14.0625 32.2675 -14.0625 32.5975 -14.0625 32.9375 C-26.6025 32.9375 -39.1425 32.9375 -52.0625 32.9375 C-52.0625 19.41433891 -51.27532365 12.3844483 -42.2734375 2.9140625 C-29.89352726 -8.15348977 -13.72667717 -8.89732324 0 0 Z " fill="#F7A60B" transform="translate(97.0625,42.0625)"/>
<path d="M0 0 C0.12789222 6.33115807 0.21480336 12.66197717 0.2746582 18.99414062 C0.29963783 21.14335579 0.33363366 23.29248745 0.37719727 25.44140625 C0.91445971 52.64584809 0.91445971 52.64584809 -9.25 63.375 C-18.35356924 72.73352917 -28.74066533 78.01996346 -41.9375 78.5625 C-54.06455609 78.14801407 -63.22708032 73.09547415 -72 65 C-72.58523437 64.46632813 -73.17046875 63.93265625 -73.7734375 63.3828125 C-75 62 -75 62 -75 60 C-71.57415697 57.92002387 -71.57415697 57.92002387 -69.12109375 58.26171875 C-66.65075054 59.12156197 -64.92121693 60.33091219 -62.8125 61.875 C-53.69679398 68.0210838 -44.96609167 69.21720236 -34 68 C-25.75474069 65.65219735 -18.6833034 62.05441719 -13.875 54.75 C-13.15957031 53.69039062 -13.15957031 53.69039062 -12.4296875 52.609375 C-8.75348429 45.89980194 -7.56537609 40.32846412 -7.59375 32.79296875 C-7.57749573 31.52215202 -7.57749573 31.52215202 -7.56091309 30.22566223 C-7.51533467 26.63364806 -7.50350369 23.04171474 -7.48876953 19.44946289 C-7.47311577 16.81370144 -7.44015157 14.17854826 -7.40625 11.54296875 C-7.41078186 10.3242231 -7.41078186 10.3242231 -7.41540527 9.08085632 C-7.34015678 3.4637883 -7.34015678 3.4637883 -5.72595215 1.26289368 C-4 0 -4 0 0 0 Z " fill="#A9BED8" transform="translate(120,68)"/>
<path d="M0 0 C2.97 0 5.94 0 9 0 C8.34 0.66 7.68 1.32 7 2 C9.64 3.98 12.28 5.96 15 8 C13.20814481 11.58371039 12.63951021 12.6338911 9.625 14.8125 C9.03976563 15.25207031 8.45453125 15.69164063 7.8515625 16.14453125 C6 17 6 17 3.9140625 16.734375 C1.597738 15.84566274 -0.090706 14.56834864 -2 13 C-2.2475 13.78375 -2.495 14.5675 -2.75 15.375 C-4.20924503 18.43941457 -5.05014956 18.61725761 -8 20 C-9.26804566 22.0335948 -9.26804566 22.0335948 -10 24 C-10.66 24 -11.32 24 -12 24 C-12.33 25.32 -12.66 26.64 -13 28 C-16.14981186 27.30004181 -19.01576614 26.21744864 -22 25 C-22.51949219 25.71027344 -23.03898437 26.42054687 -23.57421875 27.15234375 C-24.62029297 28.53099609 -24.62029297 28.53099609 -25.6875 29.9375 C-26.37199219 30.85402344 -27.05648437 31.77054688 -27.76171875 32.71484375 C-30 35 -30 35 -35 36 C-35 24.78 -35 13.56 -35 2 C-17.675 1.505 -17.675 1.505 0 1 C0 0.67 0 0.34 0 0 Z " fill="#F8A508" transform="translate(80,73)"/>
<path d="M0 0 C1.32 0 2.64 0 4 0 C4 0.66 4 1.32 4 2 C7.63423209 4.32590854 10.77088331 4.16265833 15 4 C15.67154933 5.28913487 16.33708859 6.58140204 17 7.875 C17.37125 8.59429687 17.7425 9.31359375 18.125 10.0546875 C19 12 19 12 19 14 C19.639375 14.226875 20.27875 14.45375 20.9375 14.6875 C23 16 23 16 23.9375 18.3125 C24.01732226 21.74485734 23.03635888 23.28485482 21 26 C20.01 26.495 20.01 26.495 19 27 C18.55333984 27.92619141 18.55333984 27.92619141 18.09765625 28.87109375 C15.43029838 34.04443909 9.62621721 37.00009309 4.3125 38.875 C1.13830985 39.81407702 -1.66755573 40.32249461 -5 40 C-5.33 39.01 -5.66 38.02 -6 37 C-5.01 36.505 -5.01 36.505 -4 36 C-4.33 35.34 -4.66 34.68 -5 34 C-3.35 34 -1.7 34 0 34 C-3.465 32.515 -3.465 32.515 -7 31 C-3.25 29.875 -3.25 29.875 -1 31 C-1.495 29.515 -1.495 29.515 -2 28 C-1.01 28 -0.02 28 1 28 C-0.65 27.01 -2.3 26.02 -4 25 C-3.67 24.34 -3.34 23.68 -3 23 C-3.66 22.4225 -4.32 21.845 -5 21.25 C-7 19 -7 19 -7 15 C-9.14480659 14.79594227 -9.14480659 14.79594227 -10.9375 16.5 C-13 18 -13 18 -16 18 C-16.38091797 18.86238281 -16.38091797 18.86238281 -16.76953125 19.7421875 C-19.25897374 24.3101169 -23.31978428 28.76297736 -28.08203125 30.9609375 C-30 31.5 -30 31.5 -33 32 C-33.66 31.34 -34.32 30.68 -35 30 C-34.36835937 29.64550781 -33.73671875 29.29101562 -33.0859375 28.92578125 C-24.92588115 24.06972466 -18.43221929 18.06319867 -11.62207031 11.50756836 C-10.03273842 10.03042742 -8.39647638 8.64781819 -6.71484375 7.27734375 C-3.90591763 5.09363851 -3.90591763 5.09363851 -1.875 2.1875 C-1.25625 1.465625 -0.6375 0.74375 0 0 Z " fill="#407AAC" transform="translate(85,95)"/>
<path d="M0 0 C0.99 0.495 0.99 0.495 2 1 C-3.47012159 6.58408245 -8.99199907 11.99658364 -15 17 C-15.52335937 17.43715332 -16.04671875 17.87430664 -16.5859375 18.32470703 C-52.12305344 47.85012753 -52.12305344 47.85012753 -74 46 C-77.74030185 44.39701349 -78.73158465 43.40262302 -81 40 C-82.32798052 29.56586736 -76.79512892 20.42053567 -70.77734375 12.26953125 C-68.27715418 9.07698149 -65.73517988 5.9956732 -63 3 C-62.67 3 -62.34 3 -62 3 C-61.15454545 10.60909091 -61.15454545 10.60909091 -63.453125 14.390625 C-65.26456583 16.6282872 -67.12444219 18.81601713 -69 21 C-72.40644533 26.16461066 -72.59095102 30.96548089 -72 37 C-70.42403695 38.57596305 -68.87747933 38.28418746 -66.6875 38.375 C-56.42068797 38.24374814 -47.34509845 32.26361052 -38.6171875 27.35546875 C-36 26 -36 26 -34 26 C-33.95875 25.4225 -33.9175 24.845 -33.875 24.25 C-32.57146669 20.89805721 -29.95907372 19.88877046 -27 18 C-27 17.34 -27 16.68 -27 16 C-26.01 16 -25.02 16 -24 16 C-23.91621094 15.4121875 -23.83242187 14.824375 -23.74609375 14.21875 C-22.78390192 11.35736278 -21.40821411 10.36639097 -19.0625 8.5 C-16.18053899 6.19861553 -14.43376959 4.42303107 -13 1 C-12.4225 1.309375 -11.845 1.61875 -11.25 1.9375 C-8.24329529 3.42336349 -8.24329529 3.42336349 -5 4 C-2.24743206 2.14835964 -2.24743206 2.14835964 0 0 Z " fill="#122C4E" transform="translate(91,85)"/>
<path d="M0 0 C0.33 1.32 0.66 2.64 1 4 C2.794375 3.87625 2.794375 3.87625 4.625 3.75 C7.94916076 3.52074753 8.9632022 3.97436558 11.78125 5.9375 C15.46191696 8.29598562 18.62499679 8.85465086 22.875 9.25 C23.56335938 9.32734375 24.25171875 9.4046875 24.9609375 9.484375 C26.63906865 9.67083402 28.31937988 9.83749729 30 10 C30 10.33 30 10.66 30 11 C29.236875 11.12375 28.47375 11.2475 27.6875 11.375 C24.79732864 11.88102792 24.79732864 11.88102792 22 14 C23.98 14.66 25.96 15.32 28 16 C28 16.33 28 16.66 28 17 C25.41659616 17.02703562 22.83347692 17.04685611 20.25 17.0625 C19.52039063 17.07087891 18.79078125 17.07925781 18.0390625 17.08789062 C14.50053965 17.10397482 11.40687035 16.89452186 8 16 C6.41788427 15.93451508 4.83329919 15.91421619 3.25 15.9375 C2.05117187 15.95103516 2.05117187 15.95103516 0.828125 15.96484375 C0.22484375 15.97644531 -0.3784375 15.98804688 -1 16 C-0.34 16.33 0.32 16.66 1 17 C1 17.99 1 18.98 1 20 C1.66 20 2.32 20 3 20 C3 20.66 3 21.32 3 22 C3.66 22 4.32 22 5 22 C5 23.32 5 24.64 5 26 C5.99 26.33 6.98 26.66 8 27 C-2.38437692 27.09776087 -12.66192051 27.1555538 -23 26 C-23.45349467 11.84088857 -23.45349467 11.84088857 -18.625 6.25 C-15.2824454 3.3849532 -13.42320706 2 -9 2 C-8.38125 1.67 -7.7625 1.34 -7.125 1 C-4.60272655 -0.18695221 -2.75481627 -0.15304535 0 0 Z " fill="#F6A60E" transform="translate(68,47)"/>
<path d="M0 0 C4.22955053 -0.08093399 8.45755211 -0.1404757 12.6875 -0.1875 C13.88568359 -0.21263672 15.08386719 -0.23777344 16.31835938 -0.26367188 C17.47529297 -0.27333984 18.63222656 -0.28300781 19.82421875 -0.29296875 C20.88729248 -0.3086792 21.95036621 -0.32438965 23.0456543 -0.34057617 C26.42477331 0.04896775 28.27990964 0.99204546 31 3 C32.40457737 5.80915474 32.24895157 7.88810534 32 11 C30.5 13.375 30.5 13.375 29 15 C29.66 15.66 30.32 16.32 31 17 C31.39764263 18.98821313 31.73775349 20.98944339 32 23 C28.7 23 25.4 23 22 23 C21.5359375 21.7934375 21.5359375 21.7934375 21.0625 20.5625 C20.23664655 18.10919595 20.23664655 18.10919595 19 17 C17.48530552 16.76807135 15.96245438 16.58784762 14.4375 16.4375 C13.61121094 16.35371094 12.78492188 16.26992187 11.93359375 16.18359375 C10.97646484 16.09271484 10.97646484 16.09271484 10 16 C10 18.31 10 20.62 10 23 C6.7 23 3.4 23 0 23 C0 15.41 0 7.82 0 0 Z " fill="#122D53" transform="translate(170,65)"/>
<path d="M0 0 C8.91 0 17.82 0 27 0 C27 1.65 27 3.3 27 5 C21.39 5 15.78 5 10 5 C10 6.32 10 7.64 10 9 C14.62 9 19.24 9 24 9 C24 10.65 24 12.3 24 14 C19.38 14 14.76 14 10 14 C10 14.99 10 15.98 10 17 C15.94 17 21.88 17 28 17 C28 18.98 28 20.96 28 23 C18.76 23 9.52 23 0 23 C0 15.41 0 7.82 0 0 Z " fill="#132D53" transform="translate(278,65)"/>
<path d="M0 0 C3.33933623 0.30743795 4.71572784 0.86063269 7.18261719 3.16186523 C9.22784682 5.87182042 10.97395677 8.6404815 12.6953125 11.56640625 C13.31792969 12.55125 13.94054687 13.53609375 14.58203125 14.55078125 C19.0703125 21.75175996 19.0703125 21.75175996 19.0703125 24.19140625 C15.7703125 24.19140625 12.4703125 24.19140625 9.0703125 24.19140625 C8.7403125 22.87140625 8.4103125 21.55140625 8.0703125 20.19140625 C2.7903125 20.19140625 -2.4896875 20.19140625 -7.9296875 20.19140625 C-8.2596875 21.51140625 -8.5896875 22.83140625 -8.9296875 24.19140625 C-12.2296875 24.19140625 -15.5296875 24.19140625 -18.9296875 24.19140625 C-16.96753009 19.03281286 -14.34768977 14.54697302 -11.4296875 9.87890625 C-10.95015625 9.04294922 -10.470625 8.20699219 -9.9765625 7.34570312 C-7.25054158 3.04238401 -5.23846542 0.58526992 0 0 Z " fill="#132D53" transform="translate(221.9296875,63.80859375)"/>
<path d="M0 0 C0.0493651 4.94790177 0.08570269 9.89566083 0.10986328 14.84375 C0.11993317 16.52769466 0.13358988 18.21162179 0.15087891 19.89550781 C0.17508426 22.31319501 0.18647296 24.73065143 0.1953125 27.1484375 C0.20563507 27.9036972 0.21595764 28.65895691 0.22659302 29.43710327 C0.22699318 31.2929398 0.12222716 33.1481928 0 35 C-0.66 35.66 -1.32 36.32 -2 37 C-2.56847656 36.2059375 -3.13695313 35.411875 -3.72265625 34.59375 C-4.49480469 33.5728125 -5.26695313 32.551875 -6.0625 31.5 C-6.81660156 30.4790625 -7.57070312 29.458125 -8.34765625 28.40625 C-10.85175569 25.6272815 -10.85175569 25.6272815 -14.62109375 25.796875 C-16.29365234 25.89742187 -16.29365234 25.89742187 -18 26 C-21 23.75 -21 23.75 -23 21 C-22.70828634 17.34983928 -20.84942363 15.38118941 -18.4375 12.75 C-17.79683594 12.04359375 -17.15617187 11.3371875 -16.49609375 10.609375 C-15.75552734 9.81273438 -15.75552734 9.81273438 -15 9 C-12.02873292 11.71077243 -11.11756266 14.13151386 -10 18 C-9.34 18 -8.68 18 -8 18 C-8.06960937 17.11957031 -8.13921875 16.23914063 -8.2109375 15.33203125 C-8.64556671 6.00819986 -8.64556671 6.00819986 -6.734375 3.0234375 C-4.59164709 1.24476531 -2.84564593 0 0 0 Z " fill="#F6A409" transform="translate(111,74)"/>
<path d="M0 0 C2.97 0 5.94 0 9 0 C11.31 4.62 13.62 9.24 16 14 C18.35337223 10.86217036 19.99684205 8.22270281 21.6875 4.75 C22.12449219 3.85796875 22.56148438 2.9659375 23.01171875 2.046875 C23.33785156 1.37140625 23.66398437 0.6959375 24 0 C27.3 0 30.6 0 34 0 C24.6 19.4 24.6 19.4 21 23 C17.87406841 23.63894188 15.11391196 23.7273467 12 23 C9.46185645 20.68272846 8.08951244 17.92401005 6.5625 14.875 C6.14291016 14.11445312 5.72332031 13.35390625 5.29101562 12.5703125 C3.08456374 8.48820056 1.30649191 4.46920183 0 0 Z " fill="#122D53" transform="translate(242,65)"/>
<path d="M0 0 C0.33 0 0.66 0 1 0 C1.10887507 2.68860931 1.18770594 5.37273158 1.25 8.0625 C1.30027344 9.19075195 1.30027344 9.19075195 1.3515625 10.34179688 C1.45176687 16.1285995 0.06756966 19.13084181 -3 24 C-2.88689915 26.84018387 -2.88689915 26.84018387 -2 29 C-0.35 29.33 1.3 29.66 3 30 C3.33 29.34 3.66 28.68 4 28 C5.32 28.33 6.64 28.66 8 29 C8.33 28.01 8.66 27.02 9 26 C9 26.66 9 27.32 9 28 C11.02045442 27.39816251 13.02111039 26.72693904 15 26 C15.33 25.34 15.66 24.68 16 24 C16.99 24.33 17.98 24.66 19 25 C19.33 24.01 19.66 23.02 20 22 C21.77734375 21.1484375 21.77734375 21.1484375 23.9375 20.375 C26.69732042 19.120985 27.75707047 18.56390872 28.97265625 15.7421875 C29.44956687 13.48834324 29.80389217 11.29446163 30 9 C34.8 11.46153846 34.8 11.46153846 35.8125 14.1875 C35.874375 14.785625 35.93625 15.38375 36 16 C34.20963542 16.94401042 32.41927083 17.88802083 30.62890625 18.83203125 C28.67732013 19.99019799 28.67732013 19.99019799 28 23 C26.05395508 24.31860352 26.05395508 24.31860352 23.51953125 25.62890625 C22.60236328 26.10650391 21.68519531 26.58410156 20.74023438 27.07617188 C19.77408203 27.56666016 18.80792969 28.05714844 17.8125 28.5625 C16.86568359 29.05685547 15.91886719 29.55121094 14.94335938 30.06054688 C2.85680301 36.29360002 2.85680301 36.29360002 -4.25 36.25 C-5.10078125 36.25515625 -5.9515625 36.2603125 -6.828125 36.265625 C-9 36 -9 36 -11 34 C-12.72025275 26.35781524 -9.79137957 20.94546778 -5.82421875 14.56640625 C-4 12 -4 12 -2.3125 10.4453125 C-0.51478376 8.4656845 -0.50330483 6.94560661 -0.3125 4.3125 C-0.24675781 3.50425781 -0.18101563 2.69601563 -0.11328125 1.86328125 C-0.07589844 1.24839844 -0.03851563 0.63351563 0 0 Z " fill="#3293D2" transform="translate(29,88)"/>
<path d="M0 0 C3.3 0 6.6 0 10 0 C10 5.61 10 11.22 10 17 C15.61 17 21.22 17 27 17 C27 18.98 27 20.96 27 23 C18.09 23 9.18 23 0 23 C0 15.41 0 7.82 0 0 Z " fill="#112C52" transform="translate(309,65)"/>
<path d="M0 0 C3.64075903 2.37981322 7.11955543 4.95004986 10.58984375 7.5703125 C8.82421875 8.2421875 8.82421875 8.2421875 6.58984375 8.5703125 C4.73046875 7.4609375 4.73046875 7.4609375 2.83984375 5.8203125 C-4.51087642 -0.09043451 -13.09988314 -2.20311144 -22.41015625 -1.4296875 C-31.03713229 0.04420026 -37.70821681 4.01225002 -43.234375 10.81640625 C-48.6153668 18.54262451 -49.71691979 25.1754573 -49.82421875 34.4375 C-49.8435849 35.47222443 -49.86295105 36.50694885 -49.88290405 37.57302856 C-49.94247467 40.86370717 -49.9889953 44.15442118 -50.03515625 47.4453125 C-50.07335673 49.68230655 -50.11240966 51.91928622 -50.15234375 54.15625 C-50.24815763 59.62747608 -50.33327056 65.09878945 -50.41015625 70.5703125 C-49.75015625 70.5703125 -49.09015625 70.5703125 -48.41015625 70.5703125 C-47.91515625 69.5803125 -47.91515625 69.5803125 -47.41015625 68.5703125 C-45.92515625 68.0753125 -45.92515625 68.0753125 -44.41015625 67.5703125 C-42.51717555 65.48286278 -42.51717555 65.48286278 -40.72265625 63.0078125 C-40.10003906 62.18152344 -39.47742187 61.35523437 -38.8359375 60.50390625 C-38.36542969 59.86582031 -37.89492188 59.22773437 -37.41015625 58.5703125 C-35.71527995 61.9600651 -36.32056227 63.99886556 -37.41015625 67.5703125 C-39.63962849 69.21038403 -41.87005998 70.36422357 -44.37890625 71.52734375 C-46.57149325 72.40015581 -46.57149325 72.40015581 -47.41015625 74.5703125 C-49.34765625 74.2578125 -49.34765625 74.2578125 -51.41015625 73.5703125 C-52.34163441 70.77587803 -52.5460858 69.04147454 -52.57128906 66.14990234 C-52.58089661 65.25822357 -52.59050415 64.3665448 -52.60040283 63.44784546 C-52.60465271 62.48536896 -52.60890259 61.52289246 -52.61328125 60.53125 C-52.61898132 59.53582184 -52.6246814 58.54039368 -52.6305542 57.51480103 C-52.64000538 55.40489769 -52.64653865 53.29497958 -52.65039062 51.18505859 C-52.66005599 47.97857328 -52.69106189 44.77274003 -52.72265625 41.56640625 C-52.72919064 39.51302463 -52.7344394 37.45963843 -52.73828125 35.40625 C-52.75062805 34.45591888 -52.76297485 33.50558777 -52.7756958 32.52645874 C-52.74269693 22.5139581 -49.86659964 14.28139227 -43.41015625 6.5703125 C-31.46092787 -5.03554725 -14.78110061 -8.76804347 0 0 Z " fill="#213856" transform="translate(95.41015625,38.4296875)"/>
<path d="M0 0 C8.91 0 17.82 0 27 0 C27 1.65 27 3.3 27 5 C24.03 5 21.06 5 18 5 C18 10.94 18 16.88 18 23 C15.03 23 12.06 23 9 23 C9 17.06 9 11.12 9 5 C6.03 5 3.06 5 0 5 C0 3.35 0 1.7 0 0 Z " fill="#0C274E" transform="translate(140,65)"/>
<path d="M0 0 C3.57416264 0.49641148 6.69252492 1.58251068 10 3 C10 3.99 10 4.98 10 6 C10.66 6 11.32 6 12 6 C12 6.66 12 7.32 12 8 C12.66 8 13.32 8 14 8 C14 9.32 14 10.64 14 12 C14.99 12.33 15.98 12.66 17 13 C6.61562308 13.09776087 -3.66192051 13.1555538 -14 12 C-14 10.68 -14 9.36 -14 8 C-13.05125 7.54625 -12.1025 7.0925 -11.125 6.625 C-7.99686321 5.19761746 -7.99686321 5.19761746 -6 3 C-4.34183216 2.31246699 -2.67540664 1.64438717 -1 1 C-0.67 0.67 -0.34 0.34 0 0 Z " fill="#FDE3B4" transform="translate(59,61)"/>
<path d="M0 0 C0.7734375 0.495 0.7734375 0.495 1.5625 1 C4.78026512 2.32010877 7.5570528 2.13242105 11 2 C10.01 2.495 10.01 2.495 9 3 C8.28293018 4.98248715 7.61709587 6.98415349 7 9 C6.67 9.66 6.34 10.32 6 11 C6.66 11.33 7.32 11.66 8 12 C7.34 12 6.68 12 6 12 C6.33 12.99 6.66 13.98 7 15 C6.34 15.66 5.68 16.32 5 17 C4.30251417 18.31747324 3.63040043 19.64914193 3 21 C2.38125 20.67 1.7625 20.34 1.125 20 C-0.91018344 18.85806765 -0.91018344 18.85806765 -3 19 C-3.33 18.34 -3.66 17.68 -4 17 C-4.66 17.33 -5.32 17.66 -6 18 C-6.5534764 15.92446352 -7 14.15634036 -7 12 C-7.66 11.01 -8.32 10.02 -9 9 C-7.48328036 4.44984107 -3.83108947 2.49942736 0 0 Z " fill="#133056" transform="translate(89,97)"/>
<path d="M0 0 C3.75654738 0.75889846 6.09257977 2.28262323 9.09375 4.625 C12.32413842 5.41570548 12.32413842 5.41570548 15.09375 5.625 C13.11375 6.615 13.11375 6.615 11.09375 7.625 C11.75375 8.285 12.41375 8.945 13.09375 9.625 C0.58579127 9.8746045 -11.50487873 9.28444275 -23.90625 7.625 C-20.90625 5.625 -20.90625 5.625 -18.03125 4.75 C-14.8326619 3.82156383 -14.8326619 3.82156383 -12.61328125 1.5546875 C-8.39358444 -1.45329262 -4.96234208 -0.53646941 0 0 Z " fill="#FDE0AA" transform="translate(73.90625,50.375)"/>
<path d="M0 0 C0 0.33 0 0.66 0 1 C-0.763125 1.12375 -1.52625 1.2475 -2.3125 1.375 C-5.20267136 1.88102792 -5.20267136 1.88102792 -8 4 C-6.02 4.66 -4.04 5.32 -2 6 C-2 6.33 -2 6.66 -2 7 C-4.58340384 7.02703562 -7.16652308 7.04685611 -9.75 7.0625 C-10.47960937 7.07087891 -11.20921875 7.07925781 -11.9609375 7.08789062 C-17.55626177 7.11332392 -17.55626177 7.11332392 -19.90429688 6.51367188 C-22.43583876 5.89317279 -24.81761973 5.78487034 -27.421875 5.68359375 C-28.95908203 5.62075195 -28.95908203 5.62075195 -30.52734375 5.55664062 C-31.59082031 5.51732422 -32.65429688 5.47800781 -33.75 5.4375 C-34.82894531 5.39431641 -35.90789063 5.35113281 -37.01953125 5.30664062 C-39.67956428 5.20071011 -42.33968812 5.09863579 -45 5 C-44.34 4.34 -43.68 3.68 -43 3 C-45.31 2.67 -47.62 2.34 -50 2 C-49.34 1.34 -48.68 0.68 -48 0 C-45.26488675 0.18737792 -42.64456316 0.48361059 -39.9375 0.875 C-30.91386554 2.04721029 -22.08564977 2.2070148 -13 2 C-13.99 1.34 -14.98 0.68 -16 0 C-10.42289352 -1.06795656 -5.60563042 -0.82622671 0 0 Z " fill="#FCBE4A" transform="translate(98,57)"/>
<path d="M0 0 C2.90542812 1.3024333 4.8092961 2.70886268 7 5 C-1.6773851 11.904431 -10.57844577 18.15213875 -20 24 C-20 23.01 -20 22.02 -20 21 C-18.01924973 19.63823419 -16.01920337 18.30406884 -14 17 C-14 16.34 -14 15.68 -14 15 C-13.01 15 -12.02 15 -11 15 C-10.91621094 14.4121875 -10.83242187 13.824375 -10.74609375 13.21875 C-9.78390192 10.35736278 -8.40821411 9.36639097 -6.0625 7.5 C-3.18053899 5.19861553 -1.43376959 3.42303107 0 0 Z " fill="#298ACA" transform="translate(78,86)"/>
<path d="M0 0 C6.22222222 -0.35897436 6.22222222 -0.35897436 9.4375 1.125 C11 3 11 3 11.4375 6 C11 9 11 9 10 10.875 C6.74686316 12.70488947 3.68609891 12.18128355 0 12 C0 8.04 0 4.08 0 0 Z " fill="#5F91BC" transform="translate(240,107)"/>
<path d="M0 0 C6.6 0.33 13.2 0.66 20 1 C19.67 1.66 19.34 2.32 19 3 C16.93359375 3.6328125 16.93359375 3.6328125 14.4375 4.125 C13.19806641 4.37636719 13.19806641 4.37636719 11.93359375 4.6328125 C11.29550781 4.75398438 10.65742187 4.87515625 10 5 C10 5.33 10 5.66 10 6 C-2.54 6 -15.08 6 -28 6 C-28 5.34 -28 4.68 -28 4 C-18.76 4 -9.52 4 0 4 C0 2.68 0 1.36 0 0 Z " fill="#FCC865" transform="translate(73,69)"/>
<path d="M0 0 C0.33 0 0.66 0 1 0 C1.33 17.82 1.66 35.64 2 54 C0.35 54 -1.3 54 -3 54 C-3.66 53.34 -4.32 52.68 -5 52 C-4.78170286 48.72554284 -4.41553041 46.57677304 -2.48120117 43.8918457 C-0.37706765 39.78380852 -0.52169876 36.09815215 -0.48828125 31.54296875 C-0.46135445 30.18852409 -0.46135445 30.18852409 -0.43388367 28.80671692 C-0.37986979 25.93369156 -0.34591363 23.06083149 -0.3125 20.1875 C-0.27931904 18.23500309 -0.24482866 16.28252796 -0.20898438 14.33007812 C-0.1241484 9.55350484 -0.05729464 4.77697982 0 0 Z " fill="#E2E6EB" transform="translate(30,64)"/>
<path d="M0 0 C1.32 0 2.64 0 4 0 C4 0.66 4 1.32 4 2 C3.401875 2.12375 2.80375 2.2475 2.1875 2.375 C-0.26231348 2.95475985 -0.26231348 2.95475985 -3 5 C-1.125 1.125 -1.125 1.125 0 0 Z M-10 10 C-9.34 10.33 -8.68 10.66 -8 11 C-8.42410156 11.4125 -8.84820312 11.825 -9.28515625 12.25 C-12.52083303 15.43589714 -15.61741014 18.66714895 -18.5625 22.125 C-25.53680664 30.16027499 -25.53680664 30.16027499 -30.75 31.9375 C-31.4925 31.958125 -32.235 31.97875 -33 32 C-33.66 31.34 -34.32 30.68 -35 30 C-34.36835937 29.64550781 -33.73671875 29.29101562 -33.0859375 28.92578125 C-24.31461064 23.70595705 -17.29380143 17.08084372 -10 10 Z " fill="#4A7596" transform="translate(85,95)"/>
<path d="M0 0 C0.66 0 1.32 0 2 0 C2.24356484 5.10375571 2.4581251 10.20764699 2.64697266 15.3137207 C2.71503752 17.04711667 2.79074254 18.78023142 2.87451172 20.51293945 C3.72222786 38.24859108 3.72222786 38.24859108 -1 46 C-1.66 45.67 -2.32 45.34 -3 45 C-2.731875 44.113125 -2.46375 43.22625 -2.1875 42.3125 C-1.60303217 38.84807697 -1.60303217 38.84807697 -4.25 36.4375 C-5.1575 35.633125 -6.065 34.82875 -7 34 C-8.875 31.3125 -8.875 31.3125 -10 29 C-9.67 28.34 -9.34 27.68 -9 27 C-6.36 30.3 -3.72 33.6 -1 37 C0.39523855 35.83251001 0.39523855 35.83251001 0.11352539 32.58178711 C0.11336628 31.06363012 0.10767226 29.54546771 0.09765625 28.02734375 C0.0962413 27.22970108 0.09482635 26.43205841 0.09336853 25.61024475 C0.08775316 23.05262565 0.07519812 20.49509282 0.0625 17.9375 C0.05748698 16.20768355 0.05292373 14.47786574 0.04882812 12.74804688 C0.03777875 8.49866447 0.02050386 4.24934688 0 0 Z " fill="#464A45" transform="translate(110,73)"/>
<path d="M0 0 C0.33 0.99 0.66 1.98 1 3 C-0.0725 3.2475 -1.145 3.495 -2.25 3.75 C-5.99562872 4.67845994 -5.99562872 4.67845994 -8 7.0625 C-10.77531384 9.75108528 -13.23988771 9.71076059 -17 10 C-17.23053497 7.15673536 -17.35903101 5.53854651 -15.75 3.125 C-15.1725 2.75375 -14.595 2.3825 -14 2 C-13.38125 2.165 -12.7625 2.33 -12.125 2.5 C-8.04188047 3.46073401 -4.75546801 -0.40761154 0 0 Z " fill="#FCBE48" transform="translate(68,47)"/>
<path d="M0 0 C0.99 0.33 1.98 0.66 3 1 C-2.56859294 9.29757226 -8.89240502 14.84681414 -18.6875 17.5 C-22.97311166 18.27781564 -25.9667392 17.54465307 -30 16 C-29.67 15.01 -29.34 14.02 -29 13 C-28.34 13 -27.68 13 -27 13 C-26.67 13.66 -26.34 14.32 -26 15 C-17.5808187 14.59262026 -10.97534447 12.218136 -4.375 6.875 C-2.70431817 4.9843199 -2.70431817 4.9843199 -3 2 C-2.01 2 -1.02 2 0 2 C0 1.34 0 0.68 0 0 Z " fill="#1A375E" transform="translate(106,119)"/>
<path d="M0 0 C0.33 0.99 0.66 1.98 1 3 C-0.98 3 -2.96 3 -5 3 C-5 4.98 -5 6.96 -5 9 C-3.68 9.33 -2.36 9.66 -1 10 C-1 9.34 -1 8.68 -1 8 C-1.66 8 -2.32 8 -3 8 C-3 7.34 -3 6.68 -3 6 C-1.35 6 0.3 6 2 6 C2 7.65 2 9.3 2 11 C-0.79870027 12.39935013 -2.90498792 12.25265405 -6 12 C-7.875 10.875 -7.875 10.875 -9 9 C-9.4375 6 -9.4375 6 -9 3 C-6.24653799 -0.05940224 -4.00406942 -0.33367245 0 0 Z " fill="#6192BD" transform="translate(208,107)"/>
<path d="M0 0 C0.99 0 1.98 0 3 0 C3.33 2.97 3.66 5.94 4 9 C4.99 9 5.98 9 7 9 C7.33 6.03 7.66 3.06 8 0 C8.66 0 9.32 0 10 0 C10.05395478 1.62463842 10.09277195 3.24978541 10.125 4.875 C10.14820313 5.77992187 10.17140625 6.68484375 10.1953125 7.6171875 C10 10 10 10 8 12 C4.4375 11.75 4.4375 11.75 1 11 C-0.20272819 8.59454362 -0.10071472 7.05003047 -0.0625 4.375 C-0.05347656 3.55773437 -0.04445312 2.74046875 -0.03515625 1.8984375 C-0.02355469 1.27195312 -0.01195312 0.64546875 0 0 Z " fill="#598DBA" transform="translate(215,107)"/>
<path d="M0 0 C2.4375 1.25 2.4375 1.25 5 3 C5.66015625 5.109375 5.66015625 5.109375 6 7 C3.54665445 8.36396462 1.08808766 9.71634169 -1.375 11.0625 C-2.07367188 11.45244141 -2.77234375 11.84238281 -3.4921875 12.24414062 C-5.29610184 13.22415178 -7.14583482 14.11875071 -9 15 C-9.66 14.67 -10.32 14.34 -11 14 C-5.375 10.125 -5.375 10.125 -2 9 C-1.19436362 6.89415562 -1.19436362 6.89415562 -0.8125 4.4375 C-0.57466797 3.19806641 -0.57466797 3.19806641 -0.33203125 1.93359375 C-0.22246094 1.29550781 -0.11289062 0.65742187 0 0 Z " fill="#3B75A8" transform="translate(59,97)"/>
<path d="M0 0 C0.66 0.66 1.32 1.32 2 2 C0.5378836 5.56096091 -1.3378413 7.36170239 -4.375 9.6875 C-5.14585938 10.28949219 -5.91671875 10.89148438 -6.7109375 11.51171875 C-8.88247501 12.9235887 -10.47080352 13.56691841 -13 14 C-13 13.34 -13 12.68 -13 12 C-12.01 12 -11.02 12 -10 12 C-9.87625 11.12408203 -9.87625 11.12408203 -9.75 10.23046875 C-8.77693185 7.33660461 -7.34128418 6.23987859 -5 4.3125 C-4.278125 3.71050781 -3.55625 3.10851562 -2.8125 2.48828125 C-2.214375 1.99714844 -1.61625 1.50601563 -1 1 C-0.67 0.67 -0.34 0.34 0 0 Z " fill="#163153" transform="translate(77,89)"/>
<path d="M0 0 C1.4370809 -0.05422947 2.87475462 -0.09289723 4.3125 -0.125 C5.11300781 -0.14820312 5.91351563 -0.17140625 6.73828125 -0.1953125 C9 0 9 0 12 2 C11.67 2.99 11.34 3.98 11 5 C7.37 5 3.74 5 0 5 C0 3.35 0 1.7 0 0 Z " fill="#EBEEF1" transform="translate(180,70)"/>
<path d="M0 0 C2.64 0 5.28 0 8 0 C8 0.66 8 1.32 8 2 C6.02 2 4.04 2 2 2 C2 2.99 2 3.98 2 5 C3.32 5 4.64 5 6 5 C6 5.66 6 6.32 6 7 C4.68 7 3.36 7 2 7 C2 7.99 2 8.98 2 10 C3.65 10 5.3 10 7 10 C7 10.66 7 11.32 7 12 C4.69 12 2.38 12 0 12 C0 8.04 0 4.08 0 0 Z " fill="#5187B6" transform="translate(257,107)"/>
<path d="M0 0 C2.475 0.495 2.475 0.495 5 1 C5 2.98 5 4.96 5 7 C3.35 7.33 1.7 7.66 0 8 C0 5.36 0 2.72 0 0 Z " fill="#F6F8FB" transform="translate(243,109)"/>
<path d="M0 0 C0.33 0.99 0.66 1.98 1 3 C0.01 3.495 0.01 3.495 -1 4 C1.64 4.33 4.28 4.66 7 5 C5.4375 6.5625 5.4375 6.5625 3 8 C-0.75 7.6875 -0.75 7.6875 -4 7 C-3.6875 4.625 -3.6875 4.625 -3 2 C-2.01 1.34 -1.02 0.68 0 0 Z " fill="#F4AA1D" transform="translate(50,54)"/>
<path d="M0 0 C2.06242617 -0.02717692 4.12495703 -0.0464758 6.1875 -0.0625 C7.33605469 -0.07410156 8.48460938 -0.08570313 9.66796875 -0.09765625 C12.59300586 -0.01192832 15.16316291 0.32150977 18 1 C17.67 1.99 17.34 2.98 17 4 C11.39 3.01 5.78 2.02 0 1 C0 0.67 0 0.34 0 0 Z " fill="#2E425E" transform="translate(71,34)"/>
<path d="M0 0 C3.63 0 7.26 0 11 0 C8 3 8 3 4.42578125 3.29296875 C3.05438087 3.27309338 1.68313595 3.23741111 0.3125 3.1875 C-0.38939453 3.17396484 -1.09128906 3.16042969 -1.81445312 3.14648438 C-3.54329829 3.11120182 -5.27174765 3.05739583 -7 3 C-7 2.67 -7 2.34 -7 2 C-3.535 1.505 -3.535 1.505 0 1 C0 0.67 0 0.34 0 0 Z " fill="#FCBC42" transform="translate(75,72)"/>
<path d="M0 0 C2.88437779 1.29299694 4.87219421 2.65941363 7 5 C4.525 6.485 4.525 6.485 2 8 C0.93224776 6.03533587 -0.06553465 4.03144641 -1 2 C-0.67 1.34 -0.34 0.68 0 0 Z " fill="#496F88" transform="translate(78,86)"/>
<path d="M0 0 C0.66 0.33 1.32 0.66 2 1 C-5.29840547 9.44646925 -5.29840547 9.44646925 -9 13 C-7.47987323 7.59510481 -3.72614782 4.01507372 0 0 Z " fill="#E39B10" transform="translate(57,43)"/>
<path d="M0 0 C0.66 0.33 1.32 0.66 2 1 C-0.97 3.97 -3.94 6.94 -7 10 C-7.33 9.01 -7.66 8.02 -8 7 C-5.36 4.69 -2.72 2.38 0 0 Z " fill="#2E3F4D" transform="translate(91,85)"/>
<path d="M0 0 C0.66 0 1.32 0 2 0 C2.66 1.98 3.32 3.96 4 6 C2.02 6 0.04 6 -2 6 C-1.34 4.02 -0.68 2.04 0 0 Z " fill="#F2F4F6" transform="translate(221,72)"/>
<path d="M0 0 C0.33 0 0.66 0 1 0 C1.33 2.31 1.66 4.62 2 7 C3.32 6.67 4.64 6.34 6 6 C5.34 7.32 4.68 8.64 4 10 C2.68 9.67 1.36 9.34 0 9 C0 6.03 0 3.06 0 0 Z " fill="#0F2C53" transform="translate(44,103)"/>
<path d="M0 0 C0.66 0 1.32 0 2 0 C2 2.1875 2 2.1875 1 5 C-1.50803179 6.96188534 -4.19641043 8.49921743 -7 10 C-5.66828017 6.00484052 -3.19104539 4.64788873 0 2 C0 1.34 0 0.68 0 0 Z " fill="#2C72A9" transform="translate(78,91)"/>
<path d="M0 0 C0.66 0 1.32 0 2 0 C2.33 0.66 2.66 1.32 3 2 C4.97888961 2.72693904 6.97954558 3.39816251 9 4 C5.06329512 5.31223496 2.87511856 4.24296256 -1 3 C-0.67 2.01 -0.34 1.02 0 0 Z " fill="#244167" transform="translate(77,132)"/>
<path d="M0 0 C1.98 0.99 1.98 0.99 4 2 C4 3.98 4 5.96 4 8 C3.01 7.67 2.02 7.34 1 7 C0.67 4.69 0.34 2.38 0 0 Z " fill="#6696BF" transform="translate(247,108)"/>
<path d="M0 0 C5.75 0.875 5.75 0.875 8 2 C8 2.66 8 3.32 8 4 C4.31245243 3.50168276 2.39509338 2.89932357 0 0 Z " fill="#1A304F" transform="translate(87,36)"/>
</svg>
