<?xml version="1.0" encoding="UTF-8"?>
<svg version="1.1" xmlns="http://www.w3.org/2000/svg" width="382" height="134">
<path d="M0 0 C126.06 0 252.12 0 382 0 C382 44.22 382 88.44 382 134 C255.94 134 129.88 134 0 134 C0 89.78 0 45.56 0 0 Z " fill="#FEFEFE" transform="translate(0,0)"/>
<path d="M0 0 C6.20144506 4.34523021 11.59471209 10.18942417 15 17 C18.59025779 16.43559266 20.01433238 15.20423896 22.375 12.5 C24.86282234 9.88349719 25.80399874 9.05807445 29.375 8 C30.24125 8 31.1075 8 32 8 C33 9 33 9 33.0625 12.125 C32.52302892 15.86330662 30.94003865 17.12395073 28 19.375 C25.48848297 21.34384996 24.19531548 22.36420741 23.25 25.44140625 C23.02839044 27.65403922 22.91941817 29.77896333 23 32 C23.66 32 24.32 32 25 32 C24.34 34.97 23.68 37.94 23 41 C23.66 41 24.32 41 25 41 C24.67 44.96 24.34 48.92 24 53 C22.515 53.495 22.515 53.495 21 54 C20.01 49.545 20.01 49.545 19 45 C18.99589111 45.68924561 18.99178223 46.37849121 18.98754883 47.08862305 C18.80064328 64.99118391 18.2023519 79.46537495 5.15625 92.8984375 C-2.51754506 100.11545904 -10.04473471 102.68262472 -20.5 102.5 C-21.82837891 102.52320312 -21.82837891 102.52320312 -23.18359375 102.546875 C-34.55407883 102.48008801 -42.96966418 96.89686472 -51 89.25 C-53 87 -53 87 -53 85 C-50.525 84.01 -50.525 84.01 -48 83 C-47.401875 83.86625 -46.80375 84.7325 -46.1875 85.625 C-41.91121395 90.79832306 -34.6471634 94.90444899 -28 96 C-15.73903303 96.74222384 -6.67502688 95.93321054 2.9921875 87.8828125 C9.43153523 81.84435802 12.90486725 74.34609129 13.43237305 65.48999023 C13.47300153 63.92982953 13.4990111 62.36923163 13.51171875 60.80859375 C13.53864555 59.56252098 13.53864555 59.56252098 13.56611633 58.29127502 C13.61970918 55.6733996 13.65394879 53.05570096 13.6875 50.4375 C13.72071831 48.64776211 13.75521206 46.85804741 13.79101562 45.06835938 C13.87540521 40.71236833 13.94245691 36.35642503 14 32 C11.39015763 33.53662429 11.39015763 33.53662429 9 36 C8.28479825 39.3088969 8.28479825 39.3088969 8.43359375 43.0390625 C8.42795914 43.71995941 8.42232452 44.40085632 8.41651917 45.10238647 C8.40009604 47.27729268 8.41554416 49.4501659 8.4375 51.625 C8.59277386 71.61257081 8.59277386 71.61257081 2.140625 80.5859375 C-5.58006676 87.89188136 -12.20615446 91.12335823 -23 91 C-29.48330553 90.41441111 -34.9527991 88.13368037 -40 84 C-41.03943677 82.69717654 -42.05010494 81.36948061 -43 80 C-42.23558594 79.45214844 -41.47117188 78.90429688 -40.68359375 78.33984375 C-33.08975691 72.7614328 -26.41658806 66.67777663 -19.93920898 59.82788086 C-19.33794189 59.20147705 -18.7366748 58.57507324 -18.1171875 57.9296875 C-17.32223877 57.08253174 -17.32223877 57.08253174 -16.51123047 56.21826172 C-15 55 -15 55 -12 55 C-12 55.66 -12 56.32 -12 57 C-11.34 57 -10.68 57 -10 57 C-9.67 57.66 -9.34 58.32 -9 59 C-7.02 58.67 -5.04 58.34 -3 58 C-0.36 61.3 2.28 64.6 5 68 C6.09911549 64.70265354 6.1139456 62.27041255 6.09765625 58.80078125 C6.09443359 57.59228516 6.09121094 56.38378906 6.08789062 55.13867188 C6.07951172 53.87603516 6.07113281 52.61339844 6.0625 51.3125 C6.05798828 50.03826172 6.05347656 48.76402344 6.04882812 47.45117188 C6.03702873 44.30073436 6.02056597 41.15039051 6 38 C2.1250233 40.66683002 2.1250233 40.66683002 0.29296875 44.796875 C0.25816406 45.77140625 0.22335938 46.7459375 0.1875 47.75 C0.13980469 48.73484375 0.09210938 49.7196875 0.04296875 50.734375 C0.02878906 51.48203125 0.01460938 52.2296875 0 53 C-0.66 53 -1.32 53 -2 53 C-2.41958984 52.09507813 -2.41958984 52.09507813 -2.84765625 51.171875 C-5.7606661 45.36458849 -8.06271824 42.67759766 -14 40 C-14 39.34 -14 38.68 -14 38 C-12.948125 38.13921875 -12.948125 38.13921875 -11.875 38.28125 C-7.49586017 38.61444542 -4.27330001 38.78507148 -0.453125 36.4296875 C2.79158724 33.40359063 4.7618188 31.21472414 5.625 26.8125 C2.43805967 21.29664174 -4.23232472 19.41424706 -10.125 17.6875 C-11.07375 17.460625 -12.0225 17.23375 -13 17 C-13 16.34 -13 15.68 -13 15 C-9.7 14.67 -6.4 14.34 -3 14 C-9.48292441 8.27977258 -15.40850242 7.58602786 -23.81640625 7.7578125 C-31.125309 8.31382719 -35.62151243 11.10628431 -41.140625 15.79296875 C-46.29960161 21.91654393 -47.58526053 27.67177253 -47.390625 35.53125 C-47.38496521 36.40777222 -47.37930542 37.28429443 -47.37347412 38.18737793 C-47.35126636 40.95883188 -47.3011016 43.72894365 -47.25 46.5 C-47.22991474 48.39060619 -47.21166754 50.28123286 -47.1953125 52.171875 C-47.15145307 56.78175906 -47.08253652 61.3906528 -47 66 C-43.51127585 64.83709195 -42.90023136 63.86032391 -40.8125 60.9375 C-40.28269531 60.20402344 -39.75289062 59.47054687 -39.20703125 58.71484375 C-38.80871094 58.14894531 -38.41039062 57.58304688 -38 57 C-35.08014819 57.68088981 -32.64877696 58.58101234 -30 60 C-29.505 58.515 -29.505 58.515 -29 57 C-28.34 57 -27.68 57 -27 57 C-26.95875 56.443125 -26.9175 55.88625 -26.875 55.3125 C-25.53069626 51.75969726 -22.99025811 50.29041047 -20 48 C-19.34 48.66 -18.68 49.32 -18 50 C-14.40320934 49.67673447 -14.40320934 49.67673447 -11 49 C-23.54409607 64.36988514 -44.08146986 82.51369477 -64.40234375 85.5 C-71.98999515 85.7943089 -71.98999515 85.7943089 -75.3046875 83.1875 C-77.35751104 80.53869543 -77.57297798 78.57360801 -77.37109375 75.2578125 C-75.80563343 65.73322233 -70.16009405 58.16975956 -64 51 C-63.01 50.34 -62.02 49.68 -61 49 C-60.9183918 51.37570543 -60.85922778 53.74855841 -60.8125 56.125 C-60.78736328 56.79015625 -60.76222656 57.4553125 -60.73632812 58.140625 C-60.66610975 62.91547416 -61.71728223 65.86594419 -64 70 C-64 70.99 -64 71.98 -64 73 C-62.35 73.33 -60.7 73.66 -59 74 C-59.33 73.01 -59.66 72.02 -60 71 C-60.10573893 69.53444418 -60.15846747 68.06470745 -60.17700195 66.59545898 C-60.18983719 65.7070079 -60.20267242 64.81855682 -60.21589661 63.90318298 C-60.22328354 62.94384354 -60.23067047 61.98450409 -60.23828125 60.99609375 C-60.246353 60.00303726 -60.25442474 59.00998077 -60.26274109 57.98683167 C-60.27657856 55.88113142 -60.28730222 53.77540877 -60.29516602 51.66967773 C-60.31230424 48.47400284 -60.35618502 45.27938285 -60.40039062 42.08398438 C-60.41052461 40.03386174 -60.4190385 37.98373034 -60.42578125 35.93359375 C-60.44328934 34.98842392 -60.46079742 34.04325409 -60.47883606 33.06944275 C-60.4441672 22.27955239 -56.33174562 13.79541333 -49 6 C-35.56988648 -6.63129636 -16.16196479 -9.81616266 0 0 Z " fill="#163055" transform="translate(99,19)"/>
<path d="M0 0 C0.99 1.32 1.98 2.64 3 4 C-0.63 4 -4.26 4 -8 4 C-8 4.66 -8 5.32 -8 6 C-7.443125 6.09796875 -6.88625 6.1959375 -6.3125 6.296875 C-0.81390221 7.37430295 4.30752567 8.83792497 9 12 C11 15 11 15 10.8515625 17.41796875 C9.31274367 22.08383686 5.9006441 25.14045308 2 28 C-1.97757369 28.59663605 -5.18480767 28.22086155 -9 27 C-9 27.66 -9 28.32 -9 29 C-7.9171875 29.3403125 -7.9171875 29.3403125 -6.8125 29.6875 C-2.16342055 31.85707041 0.42296384 34.54367065 2.3125 39.3125 C2.539375 40.199375 2.76625 41.08625 3 42 C3.66 42 4.32 42 5 42 C4.91878906 41.26394531 4.83757812 40.52789062 4.75390625 39.76953125 C4.69074219 38.79371094 4.62757812 37.81789062 4.5625 36.8125 C4.48128906 35.84957031 4.40007812 34.88664062 4.31640625 33.89453125 C5.24363184 29.96839318 7.18562972 28.99196728 10.48413086 26.8894043 C10.98436768 26.59590088 11.48460449 26.30239746 12 26 C12.05802751 30.58328022 12.09360593 35.16646604 12.125 39.75 C12.14175781 41.05195312 12.15851563 42.35390625 12.17578125 43.6953125 C12.18222656 44.94570312 12.18867187 46.19609375 12.1953125 47.484375 C12.20578613 48.63647461 12.21625977 49.78857422 12.22705078 50.97558594 C12.00758762 53.89892966 11.52728122 55.53732509 10 58 C8.66072279 56.54712339 7.32873153 55.08752741 6 53.625 C5.2575 52.81289062 4.515 52.00078125 3.75 51.1640625 C2 49 2 49 2 47 C0.02 47.66 -1.96 48.32 -4 49 C-4.33 48.01 -4.66 47.02 -5 46 C-5.66 46 -6.32 46 -7 46 C-7 45.34 -7 44.68 -7 44 C-11.98566851 46.54506507 -15.3694965 50.26112082 -19.1875 54.25 C-24.74065496 59.94496666 -30.16428324 64.86640187 -37 69 C-33.80143708 73.79784438 -30.41713265 76.26000328 -25 78 C-15.37888081 79.78573803 -8.30749798 78.91392046 0.1875 74.25 C6.08115254 69.53507797 10.31605804 64.53600244 12 57 C12.4565046 50.85123098 12.44054458 44.69751075 12.43579102 38.53417969 C12.43935958 36.39208765 12.46666279 34.25124435 12.49609375 32.109375 C12.49794678 30.84061523 12.4997998 29.57185547 12.50170898 28.26464844 C13.0805955 24.47196324 13.95619572 23.26182168 17 21 C17.66 21 18.32 21 19 21 C19.09980707 26.21031273 19.17190561 31.42005385 19.21972656 36.63110352 C19.23968762 38.39910593 19.26686652 40.16704366 19.30175781 41.93481445 C19.76126936 65.83617262 19.76126936 65.83617262 11.25 74.875 C4.69682884 81.6713315 -2.12010243 85.51988111 -11.68359375 86.30078125 C-24.28983611 86.34013476 -33.03099424 83.74071074 -42.265625 74.80859375 C-43.12414063 73.91333984 -43.12414063 73.91333984 -44 73 C-44.74765625 73.34933594 -45.4953125 73.69867188 -46.265625 74.05859375 C-47.25046875 74.51363281 -48.2353125 74.96867187 -49.25 75.4375 C-50.22453125 75.88996094 -51.1990625 76.34242187 -52.203125 76.80859375 C-57.74096483 79.16758977 -63.01226895 79.68943906 -69 79 C-72.24168949 77.37915526 -74.19736744 76.05801565 -76.375 73.1875 C-78.69484932 65.06802737 -75.36043309 58.28057815 -71.4921875 51.265625 C-67.4029272 44.53261037 -62.60328293 38.54316187 -57 33 C-56.67 33 -56.34 33 -56 33 C-55.62438022 37.46910882 -55.62438022 37.46910882 -57.28515625 39.81640625 C-57.87167969 40.39261719 -58.45820312 40.96882813 -59.0625 41.5625 C-65.36720491 48.30378325 -71.03125629 56.60183439 -71.25 66.0625 C-71.35213266 69.80525864 -71.35213266 69.80525864 -69.81640625 71.7109375 C-65.79901078 74.56199235 -60.65239054 73.624553 -56 73 C-39.19813753 68.16577992 -17.7852193 53.6601661 -8 39 C-8.78375 39.20625 -9.5675 39.4125 -10.375 39.625 C-11.24125 39.74875 -12.1075 39.8725 -13 40 C-13.66 39.34 -14.32 38.68 -15 38 C-15.61875 38.66 -16.2375 39.32 -16.875 40 C-19 42 -19 42 -21 42 C-21.103125 42.598125 -21.20625 43.19625 -21.3125 43.8125 C-22.11209475 46.35666511 -22.81974318 47.4657452 -25 49 C-26.9375 48.75 -26.9375 48.75 -29 48 C-30.33115034 47.65805312 -31.66424243 47.323482 -33 47 C-33.38671875 47.56589844 -33.7734375 48.13179687 -34.171875 48.71484375 C-34.69265625 49.44832031 -35.2134375 50.18179688 -35.75 50.9375 C-36.26046875 51.66839844 -36.7709375 52.39929688 -37.296875 53.15234375 C-39.23131177 55.25094143 -40.27862729 55.44737467 -43 56 C-43.09935879 50.30750541 -43.17169923 44.61552282 -43.21972656 38.92236328 C-43.23976141 36.98835448 -43.26699729 35.05440565 -43.30175781 33.12060547 C-43.35063571 30.33025257 -43.37305019 27.54070499 -43.390625 24.75 C-43.42159271 23.466698 -43.42159271 23.466698 -43.45318604 22.1574707 C-43.4557907 15.08598391 -41.53147082 9.95496876 -36.921875 4.57421875 C-26.59341578 -4.39816579 -12.30816427 -8.63169962 0 0 Z " fill="#EAA114" transform="translate(94,30)"/>
<path d="M0 0 C4.53085629 2.9866025 8.42234678 6.66913666 12.2578125 10.48828125 C11.5978125 11.80828125 10.9378125 13.12828125 10.2578125 14.48828125 C8.9378125 14.48828125 7.6178125 14.48828125 6.2578125 14.48828125 C6.2578125 13.82828125 6.2578125 13.16828125 6.2578125 12.48828125 C5.42443359 12.07255859 5.42443359 12.07255859 4.57421875 11.6484375 C2.9757914 10.84787608 1.37956349 10.04291327 -0.21484375 9.234375 C-1.49681641 8.58662109 -1.49681641 8.58662109 -2.8046875 7.92578125 C-3.66191406 7.49136719 -4.51914063 7.05695312 -5.40234375 6.609375 C-11.34510113 3.76201044 -17.26772479 3.8114056 -23.7421875 4.48828125 C-27.34769404 5.77322241 -30.48041367 7.50598776 -33.7421875 9.48828125 C-34.45246094 9.78992187 -35.16273437 10.0915625 -35.89453125 10.40234375 C-38.23837412 11.7799089 -38.57252657 13.06062136 -39.7421875 15.48828125 C-40.16395264 16.08237793 -40.58571777 16.67647461 -41.02026367 17.28857422 C-46.8293045 26.33388223 -45.27691633 37.31192673 -45.0546875 47.61328125 C-45.02957296 49.6392954 -45.00676537 51.66533952 -44.98632812 53.69140625 C-44.93158413 58.62444571 -44.84548573 63.55602937 -44.7421875 68.48828125 C-43.58783203 67.76705078 -43.58783203 67.76705078 -42.41015625 67.03125 C-39.7421875 65.48828125 -39.7421875 65.48828125 -37.0546875 64.80078125 C-34.60937922 63.73152321 -34.60937922 63.73152321 -33.984375 61.5859375 C-33.48211592 59.57336414 -33.10454931 57.53068416 -32.7421875 55.48828125 C-32.1440625 55.79765625 -31.5459375 56.10703125 -30.9296875 56.42578125 C-28.65261978 57.59037829 -28.65261978 57.59037829 -25.7421875 58.48828125 C-25.4121875 57.49828125 -25.0821875 56.50828125 -24.7421875 55.48828125 C-24.0821875 55.48828125 -23.4221875 55.48828125 -22.7421875 55.48828125 C-22.7009375 54.93140625 -22.6596875 54.37453125 -22.6171875 53.80078125 C-21.27288376 50.24797851 -18.73244561 48.77869172 -15.7421875 46.48828125 C-15.0821875 47.14828125 -14.4221875 47.80828125 -13.7421875 48.48828125 C-10.14539684 48.16501572 -10.14539684 48.16501572 -6.7421875 47.48828125 C-19.28628357 62.85816639 -39.82365736 81.00197602 -60.14453125 83.98828125 C-67.73218265 84.28259015 -67.73218265 84.28259015 -71.046875 81.67578125 C-73.09969854 79.02697668 -73.31516548 77.06188926 -73.11328125 73.74609375 C-71.54782093 64.22150358 -65.90228155 56.65804081 -59.7421875 49.48828125 C-58.7521875 48.82828125 -57.7621875 48.16828125 -56.7421875 47.48828125 C-56.6605793 49.86398668 -56.60141528 52.23683966 -56.5546875 54.61328125 C-56.52955078 55.2784375 -56.50441406 55.94359375 -56.47851562 56.62890625 C-56.40829725 61.40375541 -57.45946973 64.35422544 -59.7421875 68.48828125 C-59.7421875 69.47828125 -59.7421875 70.46828125 -59.7421875 71.48828125 C-56.7721875 71.81828125 -53.8021875 72.14828125 -50.7421875 72.48828125 C-50.90154785 71.85414307 -51.0609082 71.22000488 -51.22509766 70.56665039 C-52.36983275 63.75174726 -52.04902245 56.72048242 -52.09228516 49.82592773 C-52.10878017 47.90490551 -52.1359841 45.983943 -52.17431641 44.06323242 C-52.46701201 29.28719493 -51.61506496 17.59668381 -40.859375 6.39453125 C-37.74511776 3.59055056 -34.49300324 1.35245913 -30.7421875 -0.51171875 C-30.01773438 -0.87652344 -29.29328125 -1.24132812 -28.546875 -1.6171875 C-20.06790776 -4.32148206 -8.00698228 -3.83609778 0 0 Z " fill="#A7BCD6" transform="translate(94.7421875,20.51171875)"/>
<path d="M0 0 C0.99 1.32 1.98 2.64 3 4 C-0.63 4 -4.26 4 -8 4 C-8 4.66 -8 5.32 -8 6 C-7.443125 6.09796875 -6.88625 6.1959375 -6.3125 6.296875 C-0.81390221 7.37430295 4.30752567 8.83792497 9 12 C11 15 11 15 10.8515625 17.41796875 C9.311851 22.08654353 5.8988492 25.13483146 2 28 C-2.34145697 28.72357616 -5.27794571 28.38211474 -9 26 C-9.66 26.66 -10.32 27.32 -11 28 C-13.43744897 28.17488254 -15.7593608 28.23177405 -18.1953125 28.1953125 C-18.90275604 28.1924826 -19.61019958 28.18965271 -20.33908081 28.18673706 C-22.6012251 28.17553137 -24.86297515 28.15042679 -27.125 28.125 C-28.65754637 28.11497067 -30.19009894 28.10584474 -31.72265625 28.09765625 C-35.48192301 28.07559086 -39.24089464 28.04105896 -43 28 C-43.03898352 25.92332704 -43.06677174 23.84644193 -43.08984375 21.76953125 C-43.106521 20.61300049 -43.12319824 19.45646973 -43.14038086 18.26489258 C-42.83963182 11.27025452 -39.69032925 7.3974512 -34.75 2.6875 C-25.04030063 -5.33561198 -10.88228033 -7.63172907 0 0 Z " fill="#F7A50A" transform="translate(94,30)"/>
<path d="M0 0 C3.795 -0.061875 7.59 -0.12375 11.5 -0.1875 C13.27020508 -0.22846802 13.27020508 -0.22846802 15.07617188 -0.27026367 C21.43697526 -0.32019233 26.2589014 0.17729319 32 3 C33.58512383 6.17024765 33.42372144 9.54667028 33 13 C31.5 15 31.5 15 30 16 C30.7425 16.8353125 30.7425 16.8353125 31.5 17.6875 C33 20 33 20 33 25 C29.7 25 26.4 25 23 25 C22.5359375 23.7934375 22.5359375 23.7934375 22.0625 22.5625 C21.23664655 20.10919595 21.23664655 20.10919595 20 19 C18.31816052 18.76712992 16.6287584 18.58735834 14.9375 18.4375 C14.01839844 18.35371094 13.09929687 18.26992188 12.15234375 18.18359375 C11.08693359 18.09271484 11.08693359 18.09271484 10 18 C10 20.31 10 22.62 10 25 C6.7 25 3.4 25 0 25 C0 16.75 0 8.5 0 0 Z " fill="#0F2950" transform="translate(183,38)"/>
<path d="M0 0 C0.09980707 5.21031273 0.17190561 10.42005385 0.21972656 15.63110352 C0.23968762 17.39910593 0.26686652 19.16704366 0.30175781 20.93481445 C0.76126936 44.83617262 0.76126936 44.83617262 -7.75 53.875 C-14.30317116 60.6713315 -21.12010243 64.51988111 -30.68359375 65.30078125 C-42.92490864 65.33899555 -51.71379797 62.97924452 -60.76171875 54.3125 C-61.17035156 53.879375 -61.57898437 53.44625 -62 53 C-61.67 52.01 -61.34 51.02 -61 50 C-58.875 49.1875 -58.875 49.1875 -56 49 C-54.46727111 50.17400511 -52.9396552 51.3611159 -51.5078125 52.65625 C-45.68874202 57.84215737 -38.48700145 58.15261274 -31 58 C-22.84608948 56.5361674 -16.85000435 52.24353101 -11.39453125 46.171875 C-5.70854748 37.31639327 -6.55640807 27.64862099 -6.56420898 17.53417969 C-6.56064042 15.39208765 -6.53333721 13.25124435 -6.50390625 11.109375 C-6.50205322 9.84061523 -6.5002002 8.57185547 -6.49829102 7.26464844 C-5.90424229 3.37262514 -4.38624302 0 0 0 Z " fill="#A9BED8" transform="translate(113,51)"/>
<path d="M0 0 C-0.66 0.99 -1.32 1.98 -2 3 C-1.236875 3.268125 -0.47375 3.53625 0.3125 3.8125 C2.91229902 4.9612484 4.10215992 5.9685876 6 8 C-1.0566083 14.04101703 -1.0566083 14.04101703 -4.875 13.875 C-5.57625 13.58625 -6.2775 13.2975 -7 13 C-7.66 13 -8.32 13 -9 13 C-9.495 13.495 -9.99 13.99 -10.5 14.5 C-10.995 14.995 -11.49 15.49 -12 16 C-12.66 16 -13.32 16 -14 16 C-14.103125 16.598125 -14.20625 17.19625 -14.3125 17.8125 C-15.11209475 20.35666511 -15.81974318 21.4657452 -18 23 C-19.9375 22.75 -19.9375 22.75 -22 22 C-23.33115034 21.65805312 -24.66424243 21.323482 -26 21 C-26.58007812 21.84884766 -26.58007812 21.84884766 -27.171875 22.71484375 C-27.69265625 23.44832031 -28.2134375 24.18179688 -28.75 24.9375 C-29.26046875 25.66839844 -29.7709375 26.39929688 -30.296875 27.15234375 C-32 29 -32 29 -36 30 C-36 20.76 -36 11.52 -36 2 C-26.43 1.67 -16.86 1.34 -7 1 C-7 0.67 -7 0.34 -7 0 C-2.25 -1.125 -2.25 -1.125 0 0 Z " fill="#F8A508" transform="translate(87,56)"/>
<path d="M0 0 C0 0.66 0 1.32 0 2 C0.66 2 1.32 2 2 2 C2.495 2.99 2.495 2.99 3 4 C4.98 3.67 6.96 3.34 9 3 C10.37534119 4.52280665 11.72465281 6.06915027 13.0625 7.625 C13.81660156 8.48351562 14.57070312 9.34203125 15.34765625 10.2265625 C17 13 17 13 16.91015625 16.08203125 C14.95168745 22.36089905 10.44934987 27.4059957 5.01171875 31.03515625 C1.21626234 32.85550136 -2.85691533 33.44147551 -7 34 C-7.15339844 33.22269531 -7.30679688 32.44539063 -7.46484375 31.64453125 C-7.91728582 29.40874088 -8.42769881 27.20744743 -9 25 C-8.0409375 24.7834375 -8.0409375 24.7834375 -7.0625 24.5625 C-5.02454854 24.18992819 -5.02454854 24.18992819 -4 23 C-4.45375 22.5875 -4.9075 22.175 -5.375 21.75 C-7.83475161 19.10103673 -8.86424989 16.40725033 -10 13 C-10.99 13 -11.98 13 -13 13 C-13.33 13.99 -13.66 14.98 -14 16 C-15.33333333 16.66666667 -16.66666667 17.33333333 -18 18 C-20.31717221 20.20413942 -22.51492252 22.41790702 -24.5625 24.875 C-25.2740625 25.431875 -25.2740625 25.431875 -26 26 C-28.1875 25.6875 -28.1875 25.6875 -30 25 C-27.51438369 22.42600622 -25.02541454 20.21284704 -22.125 18.125 C-16.84573572 14.12155792 -12.33526904 9.4195423 -7.78564453 4.62353516 C-7.20927246 4.02718262 -6.63290039 3.43083008 -6.0390625 2.81640625 C-5.52553223 2.27443604 -5.01200195 1.73246582 -4.48291016 1.17407227 C-3 0 -3 0 0 0 Z " fill="#3F77A8" transform="translate(87,74)"/>
<path d="M0 0 C3.13259176 0.32973091 4.46100866 0.61251467 6.9765625 2.55859375 C7.65525391 3.76128906 7.65525391 3.76128906 8.34765625 4.98828125 C8.88648438 5.88675781 9.4253125 6.78523438 9.98046875 7.7109375 C10.57601562 8.75121094 11.1715625 9.79148437 11.78515625 10.86328125 C12.99866301 12.76147302 14.23659955 14.64246203 15.47436523 16.52490234 C20.78515625 24.61209555 20.78515625 24.61209555 20.78515625 25.86328125 C18.99422434 25.94414272 17.20225997 26.00240827 15.41015625 26.05078125 C13.91355469 26.10298828 13.91355469 26.10298828 12.38671875 26.15625 C11.52820313 26.05957031 10.6696875 25.96289062 9.78515625 25.86328125 C9.12515625 24.87328125 8.46515625 23.88328125 7.78515625 22.86328125 C5.02569011 22.55997786 2.5401994 22.44493267 -0.21484375 22.48828125 C-0.9521875 22.47667969 -1.68953125 22.46507813 -2.44921875 22.453125 C-4.84299944 22.42919123 -4.84299944 22.42919123 -8.21484375 22.86328125 C-8.87484375 23.85328125 -9.53484375 24.84328125 -10.21484375 25.86328125 C-12.59765625 26.15625 -12.59765625 26.15625 -15.33984375 26.05078125 C-16.24992188 26.02371094 -17.16 25.99664062 -18.09765625 25.96875 C-18.79632813 25.93394531 -19.495 25.89914063 -20.21484375 25.86328125 C-18.13421521 20.37171618 -15.27280315 15.54733153 -12.21484375 10.55078125 C-11.68761719 9.61943359 -11.16039062 8.68808594 -10.6171875 7.72851562 C-7.67362422 2.97914933 -5.83795459 0.25176012 0 0 Z " fill="#112C52" transform="translate(238.21484375,37.13671875)"/>
<path d="M0 0 C9.57 0 19.14 0 29 0 C29 1.98 29 3.96 29 6 C22.73 6 16.46 6 10 6 C10 7.32 10 8.64 10 10 C15.28 10 20.56 10 26 10 C26 11.65 26 13.3 26 15 C20.72 15 15.44 15 10 15 C10 16.32 10 17.64 10 19 C16.6 19 23.2 19 30 19 C30 20.98 30 22.96 30 25 C20.1 25 10.2 25 0 25 C0 16.75 0 8.5 0 0 Z " fill="#0E294F" transform="translate(298,38)"/>
<path d="M0 0 C0.76183594 0.34160156 1.52367188 0.68320312 2.30859375 1.03515625 C3.07300781 1.37417969 3.83742188 1.71320312 4.625 2.0625 C6.74609375 3.09765625 6.74609375 3.09765625 9.74609375 5.09765625 C12.9441604 5.55803265 12.9441604 5.55803265 16.43359375 5.72265625 C17.61308594 5.79742187 18.79257813 5.8721875 20.0078125 5.94921875 C21.36326172 6.02269531 21.36326172 6.02269531 22.74609375 6.09765625 C22.41609375 6.75765625 22.08609375 7.41765625 21.74609375 8.09765625 C19.43203155 8.82841273 17.09780506 9.49903883 14.74609375 10.09765625 C17.22109375 10.59265625 17.22109375 10.59265625 19.74609375 11.09765625 C19.74609375 11.75765625 19.74609375 12.41765625 19.74609375 13.09765625 C14.58172346 13.18790738 9.81225793 13.16421713 4.74609375 12.09765625 C2.07300477 12.01207713 -0.57833995 12.05230767 -3.25390625 12.09765625 C-1.27390625 13.74765625 0.70609375 15.39765625 2.74609375 17.09765625 C2.41609375 18.08765625 2.08609375 19.07765625 1.74609375 20.09765625 C2.40609375 20.42765625 3.06609375 20.75765625 3.74609375 21.09765625 C-12.9623345 21.2821665 -12.9623345 21.2821665 -21.25390625 20.09765625 C-21.25390625 16.46765625 -21.25390625 12.83765625 -21.25390625 9.09765625 C-19.60390625 8.43765625 -17.95390625 7.77765625 -16.25390625 7.09765625 C-16.25390625 5.44765625 -16.25390625 3.79765625 -16.25390625 2.09765625 C-12.50390625 0.97265625 -12.50390625 0.97265625 -10.25390625 2.09765625 C-10.25390625 1.43765625 -10.25390625 0.77765625 -10.25390625 0.09765625 C-6.22037186 -2.35127534 -4.24008919 -1.69750538 0 0 Z " fill="#FCBD46" transform="translate(72.25390625,35.90234375)"/>
<path d="M0 0 C0.99 0.66 1.98 1.32 3 2 C6.63939932 1.68269476 6.63939932 1.68269476 10 1 C-2.54409607 16.36988514 -23.08146986 34.51369477 -43.40234375 37.5 C-50.98999515 37.7943089 -50.98999515 37.7943089 -54.3046875 35.1875 C-56.35751104 32.53869543 -56.57297798 30.57360801 -56.37109375 27.2578125 C-54.80563343 17.73322233 -49.16009405 10.16975956 -43 3 C-42.01 2.34 -41.02 1.68 -40 1 C-39.18830777 6.3339775 -40.22472034 8.78493525 -43.375 13.1875 C-44.00148438 14.00605469 -44.62796875 14.82460937 -45.2734375 15.66796875 C-47.9342509 19.26187283 -49.27537501 21.73874974 -49.125 26.25 C-49.08375 27.4875 -49.0425 28.725 -49 30 C-46.15691605 31.42154198 -44.17287527 31.23034926 -41 31 C-38.42639442 30.13832718 -36.08186647 29.23918163 -33.625 28.125 C-32.94179688 27.82198975 -32.25859375 27.51897949 -31.5546875 27.20678711 C-23.59276484 23.54637308 -16.2967661 18.82246376 -9 14 C-9.99 14 -10.98 14 -12 14 C-12 13.34 -12 12.68 -12 12 C-11.01 12 -10.02 12 -9 12 C-8.67 11.01 -8.34 10.02 -8 9 C-7.34 9 -6.68 9 -6 9 C-5.9071875 8.1646875 -5.9071875 8.1646875 -5.8125 7.3125 C-4.66626128 4.05012827 -2.50609803 2.31332126 0 0 Z " fill="#152E4F" transform="translate(78,67)"/>
<path d="M0 0 C3.3 0 6.6 0 10 0 C11.17407021 2.26727333 12.33939739 4.53834624 13.5 6.8125 C13.83386719 7.45509766 14.16773438 8.09769531 14.51171875 8.75976562 C16.00239084 11.69547699 17 13.66126517 17 17 C17.66 17 18.32 17 19 17 C19.17015625 16.443125 19.3403125 15.88625 19.515625 15.3125 C21.23315937 9.90409391 23.35342255 5.01937104 26 0 C29.63 0 33.26 0 37 0 C35.07743446 4.04175709 33.05584162 8.02449431 31 12 C30.70029297 12.60859863 30.40058594 13.21719727 30.09179688 13.84423828 C29.18289754 15.66927341 28.22382661 17.45892575 27.25 19.25 C26.67765625 20.34828125 26.1053125 21.4465625 25.515625 22.578125 C22.54502795 25.43801657 21.71477824 25.35095977 17.734375 25.359375 C16.15439392 25.26724282 14.57493706 25.15621082 13 25 C11.01288402 21.58789799 9.03671399 18.16958064 7.0625 14.75 C6.49853516 13.78191406 5.93457031 12.81382813 5.35351562 11.81640625 C4.81533203 10.88183594 4.27714844 9.94726562 3.72265625 8.984375 C2.97640991 7.69611816 2.97640991 7.69611816 2.21508789 6.38183594 C1 4 1 4 0 0 Z " fill="#122D53" transform="translate(259,38)"/>
<path d="M0 0 C3.63 0 7.26 0 11 0 C11 6.27 11 12.54 11 19 C16.94 19 22.88 19 29 19 C29 20.98 29 22.96 29 25 C19.43 25 9.86 25 0 25 C0 16.75 0 8.5 0 0 Z " fill="#122C52" transform="translate(331,38)"/>
<path d="M0 0 C9.9 0 19.8 0 30 0 C30 1.98 30 3.96 30 6 C26.7 6 23.4 6 20 6 C20 12.27 20 18.54 20 25 C16.7 25 13.4 25 10 25 C10 18.73 10 12.46 10 6 C6.7 6 3.4 6 0 6 C0 4.02 0 2.04 0 0 Z " fill="#0D274E" transform="translate(150,38)"/>
<path d="M0 0 C2.39323804 2.39323804 2.44196109 3.73148638 3 7 C3.9977758 9.99332739 4.7522025 10.94766315 7 13 C6.67 13.66 6.34 14.32 6 15 C4.68 15 3.36 15 2 15 C2.66 15.66 3.32 16.32 4 17 C4 17.99 4 18.98 4 20 C2.02 20.99 2.02 20.99 0 22 C0 22.66 0 23.32 0 24 C-6.95645188 24.63240472 -11.34364514 23.11169214 -17 19 C-19.5625 16.1875 -19.5625 16.1875 -21 14 C-19.948125 14.1546875 -19.948125 14.1546875 -18.875 14.3125 C-14.73619095 13.86262945 -12.95962966 11.83095011 -10 9 C-9.1646875 7.88625 -9.1646875 7.88625 -8.3125 6.75 C-7 5 -7 5 -4 4 C-3.67 3.34 -3.34 2.68 -3 2 C-2.01 2 -1.02 2 0 2 C0 1.34 0 0.68 0 0 Z " fill="#0E2A51" transform="translate(77,85)"/>
<path d="M0 0 C0.05802751 4.58328022 0.09360593 9.16646604 0.125 13.75 C0.14175781 15.05195312 0.15851563 16.35390625 0.17578125 17.6953125 C0.18222656 18.94570312 0.18867187 20.19609375 0.1953125 21.484375 C0.20578613 22.63647461 0.21625977 23.78857422 0.22705078 24.97558594 C0.00758762 27.89892966 -0.47271878 29.53732509 -2 32 C-3.33927721 30.54712339 -4.67126847 29.08752741 -6 27.625 C-6.7425 26.81289062 -7.485 26.00078125 -8.25 25.1640625 C-10 23 -10 23 -10 21 C-11.98 21.66 -13.96 22.32 -16 23 C-16.33 22.01 -16.66 21.02 -17 20 C-17.66 20 -18.32 20 -19 20 C-19.33 19.01 -19.66 18.02 -20 17 C-18.78515625 14.95703125 -18.78515625 14.95703125 -17.0625 12.8125 C-16.49660156 12.09707031 -15.93070312 11.38164063 -15.34765625 10.64453125 C-14.68056641 9.83048828 -14.68056641 9.83048828 -14 9 C-13.01 9.33 -12.02 9.66 -11 10 C-9.8125 13.0625 -9.8125 13.0625 -9 16 C-8.34 16 -7.68 16 -7 16 C-7.06960937 15.26394531 -7.13921875 14.52789062 -7.2109375 13.76953125 C-7.64663761 5.91655541 -7.64663761 5.91655541 -5.69921875 3.15625 C-1.85483285 0 -1.85483285 0 0 0 Z " fill="#F0A10B" transform="translate(106,56)"/>
<path d="M0 0 C0.33 0 0.66 0 1 0 C1.29802257 5.76176967 0.86725509 8.86283462 -2 14 C-2 14.99 -2 15.98 -2 17 C0.97 17.33 3.94 17.66 7 18 C7.33 17.01 7.66 16.02 8 15 C9.32 15 10.64 15 12 15 C14.02613283 13.70672372 16.02514795 12.3703055 18 11 C18.9075 10.7525 19.815 10.505 20.75 10.25 C23.13927 9.2333635 23.13927 9.2333635 23.75390625 7.1015625 C24.25903227 5.0881231 24.63736986 3.04391533 25 1 C26.32 1.66 27.64 2.32 29 3 C29 3.99 29 4.98 29 6 C30.32 5.67 31.64 5.34 33 5 C29.51867976 8.9255512 25.48839497 11.3349145 21 13.9375 C20.24614014 14.37626465 19.49228027 14.8150293 18.71557617 15.26708984 C2.23594007 24.6985339 2.23594007 24.6985339 -6 24 C-6.99 23.34 -7.98 22.68 -9 22 C-10.34887311 13.60701174 -6.06694469 8.30397012 -1.36328125 1.703125 C-0.91339844 1.14109375 -0.46351562 0.5790625 0 0 Z " fill="#3194D4" transform="translate(37,75)"/>
<path d="M0 0 C3.11097984 1.75448052 5.57704886 3.76810056 8.16796875 6.22265625 C7.83796875 6.88265625 7.50796875 7.54265625 7.16796875 8.22265625 C5.84796875 7.89265625 4.52796875 7.56265625 3.16796875 7.22265625 C3.16796875 6.56265625 3.16796875 5.90265625 3.16796875 5.22265625 C2.07484375 4.58328125 0.98171875 3.94390625 -0.14453125 3.28515625 C-0.75941406 2.92550781 -1.37429687 2.56585937 -2.0078125 2.1953125 C-7.98791834 -0.99322359 -15.65864808 -0.53298954 -22.18359375 0.6484375 C-28.94733915 2.84463372 -34.52026285 7.56164434 -37.92382812 13.76489258 C-40.22521817 18.47899271 -40.35075299 22.58129739 -40.22265625 27.75390625 C-40.21699646 28.63042847 -40.21133667 29.50695068 -40.20550537 30.41003418 C-40.18329761 33.18148813 -40.13313285 35.9515999 -40.08203125 38.72265625 C-40.06194599 40.61326244 -40.04369879 42.50388911 -40.02734375 44.39453125 C-39.98348432 49.00441531 -39.91456777 53.61330905 -39.83203125 58.22265625 C-36.3433071 57.0597482 -35.73226261 56.08298016 -33.64453125 53.16015625 C-33.11472656 52.42667969 -32.58492187 51.69320312 -32.0390625 50.9375 C-31.64074219 50.37160156 -31.24242187 49.80570313 -30.83203125 49.22265625 C-30.05192313 51.87954621 -29.79882758 53.08320086 -30.45703125 55.84765625 C-32.1908136 58.84237122 -33.60983733 59.17544323 -36.83203125 60.22265625 C-37.82203125 61.21265625 -37.82203125 61.21265625 -38.83203125 62.22265625 C-39.82203125 62.22265625 -40.81203125 62.22265625 -41.83203125 62.22265625 C-43.88166576 56.07375271 -43.1400723 48.91036309 -43.18212891 42.45581055 C-43.19861998 40.60444508 -43.22581867 38.75314147 -43.26416016 36.90209961 C-43.50980833 24.96680243 -43.4409924 16.07805321 -35.58203125 6.47265625 C-24.58923367 -2.52145086 -13.67670704 -6.22479815 0 0 Z " fill="#505148" transform="translate(91.83203125,26.77734375)"/>
<path d="M0 0 C8.08587944 -0.35672998 8.08587944 -0.35672998 11.5625 1 C13.44027271 3.61255333 13.5637895 5.88787271 13.37109375 9.05859375 C13 11 13 11 11.5625 13.5 C7.66194794 15.78324998 4.47500399 15.26323553 0 15 C0 10.05 0 5.1 0 0 Z " fill="#437EB1" transform="translate(262,82)"/>
<path d="M0 0 C5.80054339 1.52450179 9.67635324 2.65326391 13 8 C12.67 8.66 12.34 9.32 12 10 C12.66 10.33 13.32 10.66 14 11 C-2.70842825 11.18451025 -2.70842825 11.18451025 -11 10 C-11 9.01 -11 8.02 -11 7 C-9.54462432 6.16151196 -8.08559627 5.32936066 -6.625 4.5 C-5.81289063 4.0359375 -5.00078125 3.571875 -4.1640625 3.09375 C-2 2 -2 2 0 2 C0 1.34 0 0.68 0 0 Z " fill="#FDE3B4" transform="translate(62,46)"/>
<path d="M0 0 C0 0.66 0 1.32 0 2 C-0.66 2 -1.32 2 -2 2 C-2.33 5.3 -2.66 8.6 -3 12 C-3.66 12 -4.32 12 -5 12 C-5 13.98 -5 15.96 -5 18 C-5.7425 17.525625 -6.485 17.05125 -7.25 16.5625 C-9.81940349 14.92458215 -9.81940349 14.92458215 -12.25 14.5 C-12.8275 14.335 -13.405 14.17 -14 14 C-15 11 -15 11 -15 9 C-15.33 8.01 -15.66 7.02 -16 6 C-14.25 3.3125 -14.25 3.3125 -12 1 C-11.01 1 -10.02 1 -9 1 C-9 1.99 -9 2.98 -9 4 C-8.34 4 -7.68 4 -7 4 C-6.67 3.01 -6.34 2.02 -6 1 C-3.90006779 0.25486277 -2.22568901 0 0 0 Z " fill="#112E54" transform="translate(96,77)"/>
<path d="M0 0 C5.35248587 0.49975849 9.06415074 0.98941319 13.57421875 4.08203125 C16.76816901 4.79604357 16.76816901 4.79604357 19.57421875 5.08203125 C17.7160176 7.07709707 16.16120498 8.00472877 13.44970703 8.36181641 C10.83972666 8.45021146 8.24773495 8.44139084 5.63671875 8.39453125 C4.29577148 8.39936523 4.29577148 8.39936523 2.92773438 8.40429688 C-1.60828885 8.36725437 -5.31568172 8.23575772 -9.42578125 6.08203125 C-8.64203125 5.46328125 -7.85828125 4.84453125 -7.05078125 4.20703125 C-1.93467805 0.0654239 -1.93467805 0.0654239 0 0 Z " fill="#FDE1AE" transform="translate(68.42578125,36.91796875)"/>
<path d="M0 0 C0.33 0.99 0.66 1.98 1 3 C-0.11375 2.95875 -1.2275 2.9175 -2.375 2.875 C-6.04366025 2.58878141 -6.04366025 2.58878141 -8 5 C-8.33333333 7.5 -8.33333333 7.5 -8 10 C-5.8614515 12.1385485 -4.86724686 12.42655063 -2 13 C-2 12.01 -2 11.02 -2 10 C-2.66 10 -3.32 10 -4 10 C-4 9.01 -4 8.02 -4 7 C-2.02 7 -0.04 7 2 7 C2 9.31 2 11.62 2 14 C-1.21552819 15.60776409 -4.52206 15.60485913 -8 15 C-11.02791041 12.42627616 -11.86162709 10.84753406 -12.5 6.9375 C-12 4 -12 4 -10.5 1.625 C-6.86748926 -0.73613198 -4.28156703 -0.2854378 0 0 Z " fill="#4F86B6" transform="translate(220,82)"/>
<path d="M0 0 C0.99 0 1.98 0 3 0 C3.33 3.63 3.66 7.26 4 11 C5.65 11 7.3 11 9 11 C9.33 7.37 9.66 3.74 10 0 C10.99 0 11.98 0 13 0 C13.08142927 1.7492214 13.13938541 3.49954542 13.1875 5.25 C13.22230469 6.22453125 13.25710937 7.1990625 13.29296875 8.203125 C12.95484261 11.43110253 12.30544288 12.74203764 10 15 C6.5 15.5 6.5 15.5 3 15 C0.69455712 12.74203764 0.04515739 11.43110253 -0.29296875 8.203125 C-0.25816406 7.22859375 -0.22335938 6.2540625 -0.1875 5.25 C-0.16042969 4.26515625 -0.13335937 3.2803125 -0.10546875 2.265625 C-0.07066406 1.51796875 -0.03585938 0.7703125 0 0 Z " fill="#5188B7" transform="translate(229,82)"/>
<path d="M0 0 C0.33 0 0.66 0 1 0 C1.33 11.22 1.66 22.44 2 34 C3.32 34 4.64 34 6 34 C7.78994069 32.25925466 7.78994069 32.25925466 9.25 30 C9.77078125 29.2575 10.2915625 28.515 10.828125 27.75 C11.21484375 27.1725 11.6015625 26.595 12 26 C12.78010812 28.65688996 13.03320367 29.86054461 12.375 32.625 C10.64121765 35.61971497 9.22219392 35.95278698 6 37 C5.34 37.66 4.68 38.32 4 39 C3.01 39 2.02 39 1 39 C-0.25282725 35.24151826 -0.12381835 31.74509081 -0.09765625 27.83203125 C-0.0962413 27.03721848 -0.09482635 26.2424057 -0.09336853 25.42350769 C-0.08777378 22.88646675 -0.07522228 20.34951425 -0.0625 17.8125 C-0.05748432 16.09179815 -0.05292153 14.37109492 -0.04882812 12.65039062 C-0.03780607 8.4335597 -0.02054506 4.21679484 0 0 Z " fill="#173156" transform="translate(49,50)"/>
<path d="M0 0 C3.3 0 6.6 0 10 0 C10 0.66 10 1.32 10 2 C7.69 2 5.38 2 3 2 C3 3.32 3 4.64 3 6 C4.65 6 6.3 6 8 6 C8 6.66 8 7.32 8 8 C6.35 8 4.7 8 3 8 C3 9.65 3 11.3 3 13 C5.31 13 7.62 13 10 13 C10 13.66 10 14.32 10 15 C6.7 15 3.4 15 0 15 C0 10.05 0 5.1 0 0 Z " fill="#4881B3" transform="translate(283,82)"/>
<path d="M0 0 C10.55808656 -0.18451025 10.55808656 -0.18451025 15 1 C15 1.33 15 1.66 15 2 C12.69 2.66 10.38 3.32 8 4 C8 4.33 8 4.66 8 5 C-2.56 5 -13.12 5 -24 5 C-24 4.34 -24 3.68 -24 3 C-16.41 3 -8.82 3 -1 3 C-0.67 2.01 -0.34 1.02 0 0 Z " fill="#FCC358" transform="translate(75,53)"/>
<path d="M0 0 C0.66 0.33 1.32 0.66 2 1 C-0.02119889 10.39376248 -3.95766609 16.51864945 -12 21.875 C-17.4901672 25.02283718 -22.66440716 26.30905331 -29 26 C-28.67 24.35 -28.34 22.7 -28 21 C-27.34 21 -26.68 21 -26 21 C-25.67 21.66 -25.34 22.32 -25 23 C-17.73612583 22.13667069 -12.20564221 20.34155976 -7 15 C-6.67 14.01 -6.34 13.02 -6 12 C-5.27876953 11.30970703 -5.27876953 11.30970703 -4.54296875 10.60546875 C-2.64316714 8.62871315 -2.10654261 6.92149713 -1.3125 4.3125 C-1.06113281 3.50425781 -0.80976562 2.69601563 -0.55078125 1.86328125 C-0.36902344 1.24839844 -0.18726562 0.63351563 0 0 Z " fill="#213C61" transform="translate(105,84)"/>
<path d="M0 0 C1.32 0.66 2.64 1.32 4 2 C4 2.99 4 3.98 4 5 C5.32 4.67 6.64 4.34 8 4 C4.57422536 7.84958181 0.65457753 10.19384631 -3.75 12.75 C-4.79607422 13.36681641 -4.79607422 13.36681641 -5.86328125 13.99609375 C-7.57234691 15.00280366 -9.28574596 16.00215064 -11 17 C-11.33 15.68 -11.66 14.36 -12 13 C-9.41971121 11.37810419 -7.28225047 10.07220361 -4.3125 9.3125 C-1.86719172 8.24324196 -1.86719172 8.24324196 -1.2421875 6.09765625 C-0.73992842 4.08508289 -0.36236181 2.04240291 0 0 Z " fill="#2E88C4" transform="translate(62,76)"/>
<path d="M0 0 C0 0.66 0 1.32 0 2 C-0.680625 2.391875 -1.36125 2.78375 -2.0625 3.1875 C-7.33218788 6.43900955 -11.26639422 10.46209175 -14 16 C-15.32407669 16.68486725 -16.65909241 17.34870203 -18 18 C-20.31717221 20.20413942 -22.51492252 22.41790702 -24.5625 24.875 C-25.2740625 25.431875 -25.2740625 25.431875 -26 26 C-28.1875 25.6875 -28.1875 25.6875 -30 25 C-27.51438369 22.42600622 -25.02541454 20.21284704 -22.125 18.125 C-16.84573572 14.12155792 -12.33526904 9.4195423 -7.78564453 4.62353516 C-7.20927246 4.02718262 -6.63290039 3.43083008 -6.0390625 2.81640625 C-5.52553223 2.27443604 -5.01200195 1.73246582 -4.48291016 1.17407227 C-3 0 -3 0 0 0 Z " fill="#44759E" transform="translate(87,74)"/>
<path d="M0 0 C0.33 0 0.66 0 1 0 C1.33 14.52 1.66 29.04 2 44 C0.35 44 -1.3 44 -3 44 C-3.6875 42.375 -3.6875 42.375 -4 40 C-3.52199951 39.12649902 -3.04399902 38.25299805 -2.55151367 37.35302734 C-0.7565587 33.47389097 -0.52583899 30.16580415 -0.48828125 25.9765625 C-0.46135445 24.85729874 -0.46135445 24.85729874 -0.43388367 23.71542358 C-0.38006895 21.3520051 -0.34597933 18.98878514 -0.3125 16.625 C-0.27930128 15.01429546 -0.24480928 13.40361702 -0.20898438 11.79296875 C-0.12435982 7.86212313 -0.05741257 3.93133341 0 0 Z " fill="#DCE0E6" transform="translate(38,49)"/>
<path d="M0 0 C1.65 1.65 3.3 3.3 5 5 C3.30225825 6.32617193 1.59128335 7.63541303 -0.125 8.9375 C-1.07632813 9.66839844 -2.02765625 10.39929688 -3.0078125 11.15234375 C-6.13182837 13.08140316 -8.37654094 13.66130872 -12 14 C-12 13.34 -12 12.68 -12 12 C-11.01 12 -10.02 12 -9 12 C-8.67 11.01 -8.34 10.02 -8 9 C-7.34 9 -6.68 9 -6 9 C-5.938125 8.443125 -5.87625 7.88625 -5.8125 7.3125 C-4.66626128 4.05012827 -2.50609803 2.31332126 0 0 Z " fill="#224261" transform="translate(78,67)"/>
<path d="M0 0 C1.60407328 -0.02708567 3.2082785 -0.04643483 4.8125 -0.0625 C5.70582031 -0.07410156 6.59914062 -0.08570313 7.51953125 -0.09765625 C10 0 10 0 13 1 C12.625 2.9375 12.625 2.9375 12 5 C9.47524538 6.26237731 7.68799534 6.09856404 4.875 6.0625 C3.96492187 6.05347656 3.05484375 6.04445313 2.1171875 6.03515625 C1.41851562 6.02355469 0.71984375 6.01195312 0 6 C0 4.02 0 2.04 0 0 Z " fill="#E7EAED" transform="translate(193,44)"/>
<path d="M0 0 C1.0725 0.350625 2.145 0.70125 3.25 1.0625 C4.1575 1.371875 5.065 1.68125 6 2 C6 2.33 6 2.66 6 3 C5.33613281 2.95359375 4.67226562 2.9071875 3.98828125 2.859375 C-1.88116257 2.57488443 -1.88116257 2.57488443 -7.125 5 C-8.053125 5.99 -8.053125 5.99 -9 7 C-8.34 7.66 -7.68 8.32 -7 9 C-9.97 9 -12.94 9 -16 9 C-15.34 8.67 -14.68 8.34 -14 8 C-14 6.35 -14 4.7 -14 3 C-10.25 1.875 -10.25 1.875 -8 3 C-8 2.34 -8 1.68 -8 1 C-4.86714612 -0.90208986 -3.44900317 -1.21729524 0 0 Z " fill="#FCC459" transform="translate(70,35)"/>
<path d="M0 0 C3.11097984 1.75448052 5.57704886 3.76810056 8.16796875 6.22265625 C7.83796875 6.88265625 7.50796875 7.54265625 7.16796875 8.22265625 C5.84796875 7.89265625 4.52796875 7.56265625 3.16796875 7.22265625 C3.16796875 6.56265625 3.16796875 5.90265625 3.16796875 5.22265625 C2.07484375 4.58328125 0.98171875 3.94390625 -0.14453125 3.28515625 C-0.75941406 2.92550781 -1.37429687 2.56585937 -2.0078125 2.1953125 C-5.81261629 0.16662697 -8.96627169 0.08795199 -13.20703125 0.09765625 C-14.32851562 0.09507813 -15.45 0.0925 -16.60546875 0.08984375 C-19.47467747 0.20794677 -22.04411354 0.56483297 -24.83203125 1.22265625 C-25.16203125 0.56265625 -25.49203125 -0.09734375 -25.83203125 -0.77734375 C-17.5196745 -4.61854372 -8.19850877 -3.73145832 0 0 Z " fill="#324151" transform="translate(91.83203125,26.77734375)"/>
<path d="M0 0 C1.65 0 3.3 0 5 0 C7 2 7 2 7.1875 5.5625 C7 9 7 9 6 10 C4.00041636 10.04080783 1.99954746 10.04254356 0 10 C0 6.7 0 3.4 0 0 Z " fill="#F6F9FB" transform="translate(265,84)"/>
<path d="M0 0 C1.32 0 2.64 0 4 0 C4 4.95 4 9.9 4 15 C2.68 15 1.36 15 0 15 C0 10.05 0 5.1 0 0 Z " fill="#6898C0" transform="translate(250,82)"/>
<path d="M0 0 C0.99 0.33 1.98 0.66 3 1 C-4.33333333 8.33333333 -11.66666667 15.66666667 -19 23 C-19 18.80387323 -16.79262376 16.87337432 -14 14 C-12.02762361 12.23822642 -10.01881843 10.52536652 -8.00390625 8.8125 C-5.01835122 6.11211494 -2.54356823 3.11587109 0 0 Z " fill="#CF9015" transform="translate(91,64)"/>
<path d="M0 0 C0.71542969 0.103125 1.43085937 0.20625 2.16796875 0.3125 C2.16796875 1.9625 2.16796875 3.6125 2.16796875 5.3125 C1.50796875 5.3125 0.84796875 5.3125 0.16796875 5.3125 C0.16796875 4.3225 0.16796875 3.3325 0.16796875 2.3125 C-3.52108831 4.11239957 -3.52108831 4.11239957 -5.76953125 7.375 C-5.79015625 8.014375 -5.81078125 8.65375 -5.83203125 9.3125 C-5.17203125 9.9725 -4.51203125 10.6325 -3.83203125 11.3125 C-4.82203125 11.6425 -5.81203125 11.9725 -6.83203125 12.3125 C-7.16203125 12.9725 -7.49203125 13.6325 -7.83203125 14.3125 C-8.49203125 13.3225 -9.15203125 12.3325 -9.83203125 11.3125 C-10.82203125 10.9825 -11.81203125 10.6525 -12.83203125 10.3125 C-11.28558477 8.63092713 -9.71922404 6.96765155 -8.14453125 5.3125 C-7.27441406 4.384375 -6.40429688 3.45625 -5.5078125 2.5 C-2.83203125 0.3125 -2.83203125 0.3125 0 0 Z " fill="#386C9C" transform="translate(86.83203125,75.6875)"/>
<path d="M0 0 C1.27875 -0.061875 2.5575 -0.12375 3.875 -0.1875 C4.95394531 -0.23970703 4.95394531 -0.23970703 6.0546875 -0.29296875 C6.69664063 -0.19628906 7.33859375 -0.09960938 8 0 C8.66 0.99 9.32 1.98 10 3 C8.71186658 3.83878455 7.41936744 4.67086783 6.125 5.5 C5.40570313 5.9640625 4.68640625 6.428125 3.9453125 6.90625 C2 8 2 8 0 8 C0 5.36 0 2.72 0 0 Z " fill="#F7A812" transform="translate(51,45)"/>
<path d="M0 0 C1.32 0.66 2.64 1.32 4 2 C4.48979592 9.34693878 4.48979592 9.34693878 2.125 12.5 C0 14 0 14 -2 14 C-2 13.34 -2 12.68 -2 12 C-3.32 11.67 -4.64 11.34 -6 11 C-4.02 10.67 -2.04 10.34 0 10 C0 8.906875 0 7.81375 0 6.6875 C0 4.45833333 0 2.22916667 0 0 Z " fill="#588CB9" transform="translate(271,83)"/>
<path d="M0 0 C0.99 0 1.98 0 3 0 C3.05410687 1.77049689 3.09284119 3.54146849 3.125 5.3125 C3.14820313 6.29863281 3.17140625 7.28476563 3.1953125 8.30078125 C3 11 3 11 1 14 C0.01 14 -0.98 14 -2 14 C-1.67 13.01 -1.34 12.02 -1 11 C-0.77820215 9.10787263 -0.59385985 7.21115528 -0.4375 5.3125 C-0.35371094 4.31863281 -0.26992187 3.32476562 -0.18359375 2.30078125 C-0.12300781 1.54152344 -0.06242188 0.78226562 0 0 Z " fill="#447FB1" transform="translate(239,82)"/>
<path d="M0 0 C0 0.66 0 1.32 0 2 C-0.680625 2.391875 -1.36125 2.78375 -2.0625 3.1875 C-7.20244893 6.35895785 -11.51888908 10.43888931 -14 16 C-14.99 15.67 -15.98 15.34 -17 15 C-13.72200975 11.0664117 -10.3675398 7.24896457 -6.8125 3.5625 C-6.15894531 2.88316406 -5.50539063 2.20382813 -4.83203125 1.50390625 C-3 0 -3 0 0 0 Z " fill="#4F6D7E" transform="translate(87,74)"/>
<path d="M0 0 C1.98 0 3.96 0 6 0 C6 2.31 6 4.62 6 7 C4.68 7.33 3.36 7.66 2 8 C2 6.35 2 4.7 2 3 C1.34 3 0.68 3 0 3 C0 2.01 0 1.02 0 0 Z " fill="#6F9CC3" transform="translate(216,89)"/>
<path d="M0 0 C0.66 0 1.32 0 2 0 C5 4.38461538 5 4.38461538 5 7 C2.36 7 -0.28 7 -3 7 C-1.125 2.25 -1.125 2.25 0 0 Z " fill="#E1E5E9" transform="translate(237,46)"/>
<path d="M0 0 C1.0326802 2.78823655 1.04509293 3.8677274 0.0625 6.75 C-0.288125 7.4925 -0.63875 8.235 -1 9 C-3.31 9.33 -5.62 9.66 -8 10 C-7.59007812 9.52949219 -7.18015625 9.05898437 -6.7578125 8.57421875 C-6.21898437 7.95160156 -5.68015625 7.32898438 -5.125 6.6875 C-4.59132812 6.07261719 -4.05765625 5.45773438 -3.5078125 4.82421875 C-1.8359553 2.86501788 -1.8359553 2.86501788 0 0 Z " fill="#1E344F" transform="translate(61,76)"/>
<path d="M0 0 C1.74216797 0.02707031 1.74216797 0.02707031 3.51953125 0.0546875 C4.39996094 0.07789062 5.28039062 0.10109375 6.1875 0.125 C2.6477993 2.48480046 0.19643712 2.71100808 -4 3.25 C-5.27230469 3.41757812 -6.54460937 3.58515625 -7.85546875 3.7578125 C-8.83128906 3.87898438 -9.80710937 4.00015625 -10.8125 4.125 C-11.1425 3.465 -11.4725 2.805 -11.8125 2.125 C-7.73526266 0.17468308 -4.49557578 -0.09081971 0 0 Z " fill="#3F4C5A" transform="translate(77.8125,23.875)"/>
<path d="M0 0 C1.9375 0.75 1.9375 0.75 4 2 C4.75 4.125 4.75 4.125 5 6 C3.02 6.66 1.04 7.32 -1 8 C-1.125 2.25 -1.125 2.25 0 0 Z " fill="#40739D" transform="translate(62,76)"/>
<path d="M0 0 C0.66 0.33 1.32 0.66 2 1 C1.030625 1.886875 0.06125 2.77375 -0.9375 3.6875 C-3.60122242 6.32615209 -4.7731363 8.14331715 -5 12 C-6.32 12.33 -7.64 12.66 -9 13 C-6.93163135 7.25453153 -4.51520623 4.11385457 0 0 Z " fill="#EEA110" transform="translate(61,31)"/>
<path d="M0 0 C1.65 1.65 3.3 3.3 5 5 C3.35 6.32 1.7 7.64 0 9 C-0.66 8.67 -1.32 8.34 -2 8 C-1.67 7.67 -1.34 7.34 -1 7 C-0.63239269 4.67182036 -0.29758419 2.3381615 0 0 Z " fill="#3671A3" transform="translate(78,67)"/>
<path d="M0 0 C0.70125 0.268125 1.4025 0.53625 2.125 0.8125 C3.73375 1.3384375 3.73375 1.3384375 5.375 1.875 C6.2825 2.184375 7.19 2.49375 8.125 2.8125 C8.125 3.1425 8.125 3.4725 8.125 3.8125 C1.195 3.3175 1.195 3.3175 -5.875 2.8125 C-1.875 -0.1875 -1.875 -0.1875 0 0 Z " fill="#FCBC44" transform="translate(67.875,34.1875)"/>
</svg>
